<svg width="115" height="72" viewBox="0 0 115 72" fill="none" xmlns="http://www.w3.org/2000/svg">
<g clip-path="url(#clip0_177_829)">
<path d="M102.297 -0.000976562C109.2 -0.000976562 114.851 5.61297 114.851 12.4737V46.6354C114.851 53.4961 109.2 59.1106 102.294 59.1106H99.4105V68.669C99.4105 70.1929 98.1694 71.4258 96.6359 71.4258H18.3066C16.7728 71.4258 15.5315 70.1929 15.5315 68.669V59.1106H12.6486C5.74263 59.1106 0.0915527 53.4961 0.0915527 46.6354V12.4737C0.0915792 5.61301 5.74263 -0.000944352 12.6486 -0.000976562H102.297ZM34.6366 57.0849V60.4413C34.6366 62.1798 34.3635 63.7609 33.818 65.1848H33.1522V68.958H35.0108V66.9605H38.9361V68.958H40.7946V65.1848H39.9211V57.0849H34.6366ZM19.3769 57.0849V66.9605H21.3468V61.8284L22.4008 65.1987H23.4132L24.4951 61.8145V66.9605H26.4649V57.0849H24.7173L22.9141 61.9252L21.111 57.0849H19.3769ZM27.9919 57.0849V66.9605H32.5415V65.1848H29.9617V62.8688H32.1809V61.0931H29.9617V58.8599H32.5415V57.0849H27.9919ZM41.8896 57.0849V66.9605H43.6789L45.5792 61.8563V66.9605H47.5484V57.0849H45.801L43.8589 62.1891V57.0849H41.8896ZM50.927 57.0849L48.3888 66.9605H50.4416L50.7609 65.4212H53.0355L53.3544 66.9605H55.4072L52.8691 57.0849H50.927ZM56.2476 57.0849V66.9605H58.2172V58.8599H60.7279V57.0849H56.2476ZM61.7743 57.0849V66.9605H63.7435V63.382H64.5621C65.5792 63.382 66.296 63.1184 66.7121 62.5913C67.1281 62.0548 67.3363 61.2691 67.3363 60.2334C67.3363 59.1977 67.1281 58.4163 66.7121 57.8892C66.296 57.3528 65.5792 57.0849 64.5621 57.0849H61.7743ZM67.826 57.0849L70.0592 63.7287L69.9342 64.2005C69.8324 64.5702 69.6799 64.8291 69.4763 64.9769C69.282 65.1159 68.9631 65.1848 68.5192 65.1848V66.9605C69.4717 66.9605 70.1424 66.8308 70.5306 66.5719C70.9188 66.313 71.2334 65.8137 71.4738 65.0741L74.0955 57.0849H71.9313L70.9606 61.0795L69.9895 57.0849H67.826ZM74.913 57.0849V66.9605H76.8826V58.8599H78.5194V66.9605H80.489V57.0849H74.913ZM82.0108 57.0849V66.9605H83.9804V58.8599H85.6171V66.9605H87.5867V57.0849H82.0108ZM90.9674 57.0849L88.4289 66.9605H90.4817L90.8006 65.4212H93.0756L93.3945 66.9605H95.4473L92.9088 57.0849H90.9674ZM37.9514 58.8599V65.1848H35.8293C36.3008 63.8627 36.5365 62.4616 36.5365 60.9824V58.8599H37.9514ZM52.6609 63.6455H51.1352L51.898 59.9838L52.6609 63.6455ZM92.701 63.6455H91.1753L91.9381 59.9838L92.701 63.6455ZM64.5757 58.8599C64.7514 58.8599 64.895 58.9017 65.0057 58.9849C65.126 59.0588 65.2092 59.1749 65.2557 59.332C65.3017 59.4799 65.3296 59.6185 65.3389 59.7481C65.3574 59.8774 65.3664 60.0395 65.3664 60.2334C65.3664 60.4277 65.3574 60.5895 65.3389 60.7192C65.3296 60.8484 65.3017 60.9916 65.2557 61.1488C65.2092 61.2966 65.126 61.4124 65.0057 61.4956C64.895 61.5695 64.7514 61.6066 64.5757 61.6066H63.7435V58.8599H64.5757ZM12.4414 6.23636C8.99025 6.23643 6.16298 9.0417 6.16287 12.4737V46.6358C6.16294 50.0643 8.98675 52.8732 12.4414 52.8732H102.09C105.541 52.8732 108.369 50.0679 108.369 46.6358V12.4706C108.369 9.04199 105.545 6.23646 102.094 6.23636H12.4414Z" fill="black"/>
<path d="M25.721 12.8049C29.2802 12.8049 32.1041 13.8298 34.1887 15.8904C36.2699 17.9442 37.3124 20.7115 37.3124 24.1886C37.3124 27.6968 36.2735 30.4778 34.1887 32.5315C32.1041 34.5886 29.2837 35.6139 25.721 35.6139H20.1955V45.4912C20.1954 46.0315 19.9374 46.3015 19.425 46.3015H13.7182C13.2023 46.3015 12.9478 46.0315 12.9478 45.4912V13.6151C12.9478 13.0748 13.2057 12.8049 13.7182 12.8049H25.721ZM46.944 12.8042C47.394 12.8042 47.7601 13.168 47.7601 13.6147V33.3312L58.2706 13.3824C58.4588 13.0293 58.832 12.8042 59.2363 12.8042H65.2394C65.6891 12.8042 66.0551 13.1645 66.0551 13.6147V45.4905C66.0551 45.9373 65.6891 46.3012 65.2394 46.3012H59.6231C59.111 46.3012 58.8528 46.0308 58.8528 45.4905V25.7776L48.3422 45.7226C48.154 46.0758 47.7811 46.3012 47.3765 46.3012H41.3284C40.8123 46.3012 40.558 46.0308 40.558 45.4905V13.6147C40.558 13.0744 40.8159 12.8042 41.3284 12.8042H46.944ZM77.49 12.8042C77.9117 12.8043 78.2914 13.0433 78.4728 13.4173L86.4523 29.937L94.4322 13.4173C94.6136 13.0433 94.9968 12.8042 95.415 12.8042H101.16C101.673 12.8042 101.931 13.0745 101.931 13.6147V45.4873C101.931 46.0273 101.673 46.2976 101.16 46.2976H95.544C95.0943 46.2976 94.7283 45.934 94.7283 45.4873V26.9621L89.3216 38.2281C89.1401 38.6056 88.7566 38.8445 88.3384 38.8445H84.5663C84.1481 38.8445 83.7649 38.6056 83.5834 38.2281L78.1767 26.9621V45.4905C78.1767 45.9373 77.8103 46.3012 77.3607 46.3012H71.7447C71.2322 46.3012 70.9744 46.0308 70.9744 45.4905V13.6147C70.9744 13.0744 71.2322 12.8042 71.7447 12.8042H77.49ZM20.1955 19.4611V28.9088H24.7239C28.1332 28.9088 29.8413 27.3332 29.8413 24.1852C29.8413 21.0371 28.1332 19.4611 24.7239 19.4611H20.1955Z" fill="black"/>
</g>
<defs>
<clipPath id="clip0_177_829">
<rect width="114.998" height="71.4275" fill="white"/>
</clipPath>
</defs>
</svg>
