<svg width="233" height="59" viewBox="0 0 233 59" fill="none" xmlns="http://www.w3.org/2000/svg">
<path d="M5.97224 39.2743V58.1224H12.124V39.2743H18.0961V33.6963H0.00012207V39.2743H5.97224Z" fill="black"/>
<path d="M74.0878 49.7001H68.5198L71.3936 44.2571L74.0878 49.7001ZM77.5454 58.1121H83.6522L71.3936 33.3711L59.0004 58.1121H65.1072L66.5441 55.0532H76.1534L77.5903 58.1121H77.5454Z" fill="black"/>
<path d="M170.092 50.1235H164.524L167.397 44.6805L170.092 50.1235ZM173.549 58.5354H179.656L167.397 33.7944L155.004 58.5354H161.111L162.548 55.4765H172.157L173.594 58.5354H173.549Z" fill="black"/>
<path d="M222.717 50.1235H217.149L220.023 44.6805L222.717 50.1235ZM226.174 58.5354H232.281L220.023 33.7944L207.629 58.5354H213.736L215.173 55.4765H224.782L226.219 58.5354H226.174Z" fill="black"/>
<path d="M36.3727 15.0659C36.3727 6.69898 48.0475 6.69898 48.0475 15.0659C48.0475 23.4329 36.3727 23.5228 36.3727 15.0659ZM54.1094 15.0659C54.1094 -1.08318 30.2209 -1.08318 30.2209 15.0659C30.2209 31.215 54.0645 31.215 54.0645 15.0659H54.1094Z" fill="black"/>
<path d="M87.8725 15.0766C87.8725 6.70968 99.5473 6.70968 99.5473 15.0766C99.5473 23.4436 87.8725 23.5335 87.8725 15.0766ZM105.609 15.0766C105.609 -1.0275 81.7656 -1.0275 81.7656 15.0766C81.7656 31.1807 105.609 31.2257 105.609 15.0766Z" fill="black"/>
<path d="M67.8056 15.6121L73.7328 27.1279H80.4234L67.8505 2.97168L55.4124 27.1279L61.9233 27.1728L67.8056 15.6121Z" fill="black"/>
<path d="M12.3035 13.8972L0 3.05615V27.0774H6.60076V16.9111L12.3484 22.3541L18.096 16.9111V27.0774H24.6967V3.05615L12.3035 13.8972Z" fill="black"/>
<path d="M32.5082 49.7001H26.9402L29.814 44.2571L32.5082 49.7001ZM35.9658 58.1121H42.0726L29.814 33.3711L17.4208 58.1121H23.5276L24.9645 55.0532H34.5738L36.0107 58.1121H35.9658Z" fill="black"/>
<path d="M110.551 46.1035C110.551 54.3355 116.837 58.519 122.989 58.474C128.153 58.474 133.586 55.775 134.484 48.8925H128.377C127.704 51.5015 125.593 52.8061 122.989 52.8061C119.307 52.8061 116.972 49.6572 116.972 46.0585C116.972 42.055 119.352 39.311 122.989 39.311C125.593 39.311 127.434 40.4356 128.287 42.8647H134.394C133.451 36.3871 128.018 33.6431 122.989 33.6431C116.837 33.6431 110.551 37.7816 110.551 46.0585" fill="black"/>
<path fill-rule="evenodd" clip-rule="evenodd" d="M141.351 7.50499V2.69175L147.009 0.307617L152.487 2.64676L157.92 0.307617L163.129 2.64676L168.562 0.307617V5.12086L163.129 7.54997L157.92 5.12086L152.487 7.50499L147.009 5.12086L141.351 7.50499Z" fill="black"/>
<path fill-rule="evenodd" clip-rule="evenodd" d="M141.351 15.9659V11.1527L147.009 8.76855L152.487 11.0627L157.92 8.76855L163.129 11.0627L168.562 8.76855V13.5368L163.129 16.0109L157.92 13.5368L152.487 15.9659L147.009 13.5368L141.351 15.9659Z" fill="black"/>
<path fill-rule="evenodd" clip-rule="evenodd" d="M141.351 24.422V19.6087L147.009 17.2246L152.487 19.5188L157.92 17.2246L163.129 19.5188L168.562 17.2246V21.9929L163.129 24.467L157.92 21.9929L152.487 24.422L147.009 21.9929L141.351 24.422Z" fill="black"/>
<path d="M123.298 12.1456L126.801 19.253H119.886L123.253 12.1456H123.298ZM117.865 24.4711H129.046V27.1701H135.781V19.3429H133.222L123.343 0L113.644 19.3429H111.174V27.1701H117.91V24.4711H117.865Z" fill="black"/>
<path d="M187.602 24.7337H193.934V15.4221C194.338 15.4221 194.787 15.3321 195.236 15.2871L200.579 24.7337H207.494L200.939 12.993C205.788 9.88912 205.608 5.30079 205.608 0.307617H199.232C199.232 4.71601 199.547 9.21437 193.979 9.52925V0.307617H187.647V9.52925C182.079 9.21437 182.394 4.71601 182.394 0.307617H176.017C176.017 5.30079 175.838 9.88912 180.687 12.993L174.131 24.7337H181.046L186.39 15.2871C186.839 15.3771 187.288 15.4221 187.692 15.4221V24.7337H187.602Z" fill="black"/>
<path d="M223.656 13.2179C227.069 13.2179 227.294 19.1108 223.656 19.1557C222.175 19.1557 220.648 19.1557 219.211 19.1557V13.2179H223.656ZM219.211 0.307617H212.969V24.7337C216.472 24.7337 220.109 24.7337 223.701 24.7337C235.376 24.7337 235.376 7.59496 223.701 7.59496H219.211V0.307617Z" fill="black"/>
<path d="M142.923 39.0943V58.4822H149.254V39.0943H155.406V33.6963H136.771V39.0943H142.923Z" fill="black"/>
<path d="M204.04 33.6963H197.573V42.693H189.94V33.6963H183.474V58.4822H189.94V48.5409H197.573V58.4822H204.04V33.6963Z" fill="black"/>
<path d="M47.3256 39.2743V58.1224H53.4774V39.2743H59.4495V33.6963H41.3535V39.2743H47.3256Z" fill="black"/>
<path d="M99.408 46.2917H94.9626V39.3192C96.3995 39.3192 97.9711 39.3192 99.408 39.3192C103.045 39.3642 102.821 46.2917 99.408 46.2917ZM94.9626 58.1224V51.8697H99.4529C111.128 51.8697 111.128 33.7413 99.4529 33.6963C95.8607 33.6963 92.2235 33.6963 88.7211 33.6963V58.1224H94.9626Z" fill="black"/>
</svg>
