<svg width="124" height="102" viewBox="0 0 124 102" fill="none" xmlns="http://www.w3.org/2000/svg">
<path d="M104.066 47.1685H104.775C105.022 47.1685 105.213 47.101 105.336 46.9662C105.46 46.8313 105.516 46.5953 105.516 46.2693V44.8308C105.516 44.5048 105.46 44.2688 105.336 44.1339C105.213 43.9991 105.033 43.9316 104.775 43.9316H104.066V47.1909V47.1685Z" fill="black"/>
<path d="M78.3808 51.7871H77.6728V55.0464H78.3808C78.6281 55.0464 78.8192 54.979 78.9428 54.8441C79.0664 54.7092 79.1226 54.4732 79.1226 54.1473V52.7087C79.1226 52.3828 79.0664 52.1468 78.9428 52.0119C78.8192 51.877 78.6393 51.8096 78.3808 51.8096V51.7871Z" fill="black"/>
<path d="M44.2783 33.9988H45.7394L45.0088 29.1436L44.2783 33.9988Z" fill="black"/>
<path d="M86.8546 35.6685H87.5627C87.8099 35.6685 88.001 35.601 88.1246 35.4662C88.2482 35.3313 88.3044 35.0953 88.3044 34.7693V33.3308C88.3044 33.0048 88.2482 32.7688 88.1246 32.6339C88.001 32.4991 87.8212 32.4316 87.5627 32.4316H86.8546V35.6909V35.6685Z" fill="black"/>
<path d="M98.6039 35.6685H99.312C99.5593 35.6685 99.7503 35.601 99.8739 35.4662C99.9976 35.3313 100.054 35.0953 100.054 34.7693V33.3308C100.054 33.0048 99.9976 32.7688 99.8739 32.6339C99.7503 32.4991 99.5705 32.4316 99.312 32.4316H98.6039V35.6909V35.6685Z" fill="black"/>
<path d="M83.7527 51.6709C83.2358 51.6709 82.966 51.9856 82.966 52.615V57.8073C82.966 58.4367 83.2245 58.7514 83.7527 58.7514C84.281 58.7514 84.5395 58.4367 84.5395 57.8073V52.615C84.5395 51.9856 84.281 51.6709 83.7527 51.6709Z" fill="black"/>
<path d="M74.5238 33.9988H75.9736L75.2543 29.1436L74.5238 33.9988Z" fill="black"/>
<path d="M63.4521 28.707C62.9351 28.707 62.6653 29.0217 62.6653 29.6511V34.8435C62.6653 35.4729 62.9239 35.7876 63.4521 35.7876C63.9803 35.7876 64.2388 35.4729 64.2388 34.8435V29.6511C64.2388 29.0217 63.9803 28.707 63.4521 28.707Z" fill="black"/>
<path d="M122.375 0H37.5674C37.174 0 36.8143 0.236046 36.6682 0.606976L0.0922667 100.601C-0.267423 101.376 0.485685 102.208 1.29499 101.916L110.775 62.0689C111.158 61.934 111.416 61.5631 111.416 61.1585V39.341L122.791 32.8779C123.117 32.7093 123.32 32.3833 123.32 32.0124V0.966665C123.32 0.438371 122.892 0 122.353 0H122.375ZM41.4902 37.048H39.9503V32.9228H38.2306V37.048H36.7244V27.4376H38.2306V31.5628H39.9503V27.4376H41.4902V37.048ZM46.2112 37.048L45.9526 35.3058H44.098L43.8395 37.048H42.4569L43.9968 27.4376H46.2112L47.7511 37.048H46.2224H46.2112ZM54.1019 38.3407H52.6294V37.048H48.6728V27.4376H50.179V35.6767H51.8988V27.4376H53.4387V35.7104H54.1019V38.3519V38.3407ZM59.9693 37.048H58.6092V30.2814L57.991 32.6418L56.7321 37.048H55.1809V27.4376H56.5298V33.5186L57.0805 31.4054L58.317 27.4376H59.9805V37.048H59.9693ZM65.7468 34.7438C65.7468 35.5193 65.5445 36.1038 65.1511 36.531C64.7577 36.9581 64.1844 37.1604 63.4425 37.1604C62.7007 37.1604 62.1274 36.9469 61.734 36.531C61.3406 36.1038 61.1495 35.5193 61.1495 34.7438V29.7418C61.1495 28.9662 61.3406 28.3818 61.734 27.9546C62.1274 27.5275 62.7007 27.3252 63.4425 27.3252C64.1844 27.3252 64.7577 27.5387 65.1511 27.9546C65.5445 28.3818 65.7468 28.9662 65.7468 29.7418V34.7438ZM68.4782 37.048H66.9608V27.4376H68.4782V31.5628H70.198V27.4376H71.7379V37.048H70.198V32.9228H68.4782V37.048ZM73.2778 48.5468H71.7379V40.3077H70.0181V48.5468H68.5007V38.9364H73.2666V48.5468H73.2778ZM74.0759 37.048H72.6933L74.2332 27.4376H76.4476L77.9875 37.048H76.4588L76.2003 35.3058H74.3456L74.0871 37.048H74.0759ZM75.8631 48.5468H74.3456V38.9364H76.5712C77.3243 38.9364 77.8863 39.1387 78.2573 39.5434C78.6282 39.948 78.8193 40.5325 78.8193 41.3193V42.567C78.8193 43.3426 78.6282 43.9383 78.2573 44.343C77.8863 44.7476 77.3131 44.9499 76.5712 44.9499H75.8631V48.5581V48.5468ZM84.2259 37.048H82.6859V28.8089H81.3708L81.2022 34.6201C81.1685 35.4969 80.9886 36.1263 80.6514 36.4972C80.3142 36.8682 79.7634 37.0593 78.9991 37.0593H78.7631V35.6879C79.0104 35.6879 79.2014 35.6655 79.3251 35.6317C79.4487 35.5868 79.5386 35.4969 79.5948 35.362C79.651 35.2159 79.6848 35.0023 79.696 34.71L79.9433 27.4488H84.2146V37.0593L84.2259 37.048ZM84.4844 41.2406V46.2426C84.4844 47.0182 84.282 47.6027 83.8886 48.0298C83.4952 48.4569 82.922 48.6592 82.1801 48.6592C81.4383 48.6592 80.865 48.4457 80.4716 48.0298C80.0782 47.6027 79.8871 47.0182 79.8871 46.2426V41.2406C79.8871 40.4651 80.0782 39.8806 80.4716 39.4534C80.865 39.0263 81.4383 38.824 82.1801 38.824C82.922 38.824 83.4952 39.0376 83.8886 39.4534C84.282 39.8806 84.4844 40.4651 84.4844 41.2406ZM80.6402 54.0433C80.6402 54.8189 80.4491 55.4147 80.0782 55.8193C79.7073 56.224 79.134 56.4263 78.3921 56.4263H77.684V60.0344H76.1666V50.424H78.3921C79.1452 50.424 79.7073 50.6263 80.0782 51.0309C80.4491 51.4356 80.6402 52.0201 80.6402 52.8069V54.0546V54.0433ZM86.0468 57.7302C86.0468 58.5057 85.8445 59.0902 85.4511 59.5174C85.0576 59.9445 84.4844 60.1468 83.7425 60.1468C83.0006 60.1468 82.4274 59.9333 82.034 59.5174C81.6406 59.0902 81.4495 58.5057 81.4495 57.7302V52.7282C81.4495 51.9527 81.6406 51.3682 82.034 50.941C82.4274 50.5139 83.0006 50.3116 83.7425 50.3116C84.4844 50.3116 85.0576 50.5251 85.4511 50.941C85.8445 51.3682 86.0468 51.9527 86.0468 52.7282V57.7302ZM87.5754 31.0457C88.3285 31.0457 88.8906 31.248 89.2615 31.6527C89.6324 32.0573 89.8235 32.6418 89.8235 33.4286V34.6763C89.8235 35.4519 89.6324 36.0476 89.2615 36.4523C88.8906 36.8569 88.3173 37.0593 87.5754 37.0593H85.3499V27.4488H86.8673V31.0569H87.5754V31.0457ZM89.1379 42.9829V44.3542H87.0697V47.1643H89.6774V48.5356H85.5522V38.9251H89.6774V40.2965H87.0697V42.9717H89.1379V42.9829ZM91.6557 53.6612H90.2282V52.6271C90.2282 51.9976 89.9696 51.6829 89.4413 51.6829C88.913 51.6829 88.6545 51.9976 88.6545 52.6271V57.8201C88.6545 58.4383 88.913 58.753 89.4413 58.753C89.9696 58.753 90.2282 58.4383 90.2282 57.8201V56.4488H91.6557V57.7302C91.6557 58.5057 91.4646 59.1015 91.0824 59.5174C90.7002 59.9333 90.1382 60.1468 89.4076 60.1468C88.677 60.1468 88.115 59.9333 87.7328 59.5174C87.3507 59.1015 87.1596 58.5057 87.1596 57.7302V52.7282C87.1596 51.9527 87.3507 51.3569 87.7328 50.941C88.115 50.5251 88.677 50.3116 89.4076 50.3116C90.1382 50.3116 90.7002 50.5251 91.0824 50.941C91.4646 51.3569 91.6557 51.9527 91.6557 52.7282V53.6612ZM92.2627 48.5468H90.7452V38.9364H92.2627V43.129L94.2409 38.9364H95.7472L93.6452 43.2189L95.7472 48.5468H94.196L92.7235 44.7139L92.2514 45.5906V48.5468H92.2627ZM94.2072 31.5628V27.4376H95.7472V37.048H94.2072V32.9228H92.4875V37.048H90.97V27.4376H92.4875V31.5628H94.2072ZM97.1971 53.6612H95.7696V52.6271C95.7696 51.9976 95.5111 51.6829 94.9828 51.6829C94.4545 51.6829 94.196 51.9976 94.196 52.6271V57.8201C94.196 58.4383 94.4545 58.753 94.9828 58.753C95.5111 58.753 95.7696 58.4383 95.7696 57.8201V56.4488H97.1971V57.7302C97.1971 58.5057 97.0061 59.1015 96.6239 59.5174C96.2417 59.9333 95.6797 60.1468 94.9491 60.1468C94.2185 60.1468 93.6565 59.9333 93.2743 59.5174C92.8921 59.1015 92.701 58.5057 92.701 57.7302V52.7282C92.701 51.9527 92.8921 51.3569 93.2743 50.941C93.6565 50.5251 94.2185 50.3116 94.9491 50.3116C95.6797 50.3116 96.2417 50.5251 96.6239 50.941C97.0061 51.3569 97.1971 51.9527 97.1971 52.7282V53.6612ZM99.3103 31.0457C100.063 31.0457 100.625 31.248 100.996 31.6527C101.367 32.0573 101.558 32.6418 101.558 33.4286V34.6763C101.558 35.4519 101.367 36.0476 100.996 36.4523C100.625 36.8569 100.063 37.0593 99.3103 37.0593H97.0848V27.4488H98.6022V31.0569H99.3103V31.0457ZM101.48 38.9364V40.3077H99.8948V48.5468H98.3886V40.3077H96.8038V38.9364H101.48ZM103.154 60.0344H101.794V53.2678L101.176 55.6282L99.9173 60.0344H98.3661V50.424H99.715V56.505L100.266 54.3918L101.502 50.424H103.166V60.0344H103.154ZM104.773 42.5445C105.526 42.5445 106.088 42.7469 106.459 43.1515C106.83 43.5562 107.021 44.1406 107.021 44.9275V46.1751C107.021 46.9507 106.83 47.5465 106.459 47.9511C106.088 48.3558 105.526 48.5581 104.773 48.5581H102.548V38.9476H104.065V42.5558H104.773V42.5445ZM103.941 37.048H102.435V27.4376H103.941V37.048ZM109.404 60.0344H108.044V53.2678L107.426 55.6282L106.167 60.0344H104.616V50.424H105.965V56.505L106.515 54.3918L107.752 50.424H109.415V60.0344H109.404ZM109.404 48.5468H107.898V38.9364H109.404V48.5468ZM109.404 28.8089H106.796V31.4841H108.865V32.8554H106.796V35.6655H109.404V37.0368H105.279V27.4263H109.404V28.7976V28.8089ZM122.634 32.0236C122.634 32.1248 122.578 32.2147 122.488 32.2597H122.465L122.454 32.2821L111.427 38.543V26.1787C111.427 25.6504 111 25.212 110.461 25.212H35.8814C35.5104 25.212 35.162 25.4256 35.0046 25.774L5.11668 89.8662L37.3314 0.887983C37.3651 0.786821 37.4662 0.719379 37.5674 0.719379H122.375C122.522 0.719379 122.634 0.831782 122.634 0.977905V32.0349V32.0236Z" fill="black"/>
<path d="M82.1888 40.1978C81.6718 40.1978 81.4021 40.5124 81.4021 41.1418V46.3342C81.4021 46.9636 81.6606 47.2783 82.1888 47.2783C82.7171 47.2783 82.9755 46.9636 82.9755 46.3342V41.1418C82.9755 40.5124 82.7171 40.1978 82.1888 40.1978Z" fill="black"/>
<path d="M77.1338 43.3573C77.2575 43.2224 77.3136 42.9864 77.3136 42.6605V41.2219C77.3136 40.8959 77.2575 40.6599 77.1338 40.5251C77.0102 40.3902 76.8304 40.3228 76.5719 40.3228H75.8638V43.582H76.5719C76.8191 43.582 77.0102 43.5146 77.1338 43.3797V43.3573Z" fill="black"/>
<path d="M39.759 11.2056L41.31 15.319L42.8497 11.2056H44.0523V16.5665H43.1195V14.802L43.2094 12.4418L41.6247 16.5778H40.9616L39.3769 12.4531L39.4668 14.8133V16.5778H38.534V11.2168H39.7478L39.759 11.2056Z" fill="black"/>
<path d="M49.435 14.0471C49.435 14.5753 49.3451 15.0361 49.1653 15.4295C48.9855 15.8229 48.727 16.1263 48.3898 16.3398C48.0526 16.5534 47.6593 16.6545 47.221 16.6545C46.7826 16.6545 46.4005 16.5534 46.0633 16.3398C45.7262 16.1263 45.4565 15.8229 45.2766 15.4295C45.0968 15.0361 44.9957 14.5866 44.9957 14.0696V13.7661C44.9957 13.2491 45.0856 12.7771 45.2766 12.3837C45.4677 11.9904 45.7262 11.6757 46.0633 11.4621C46.4005 11.2486 46.7826 11.1475 47.221 11.1475C47.6593 11.1475 48.0414 11.2486 48.3786 11.4621C48.7157 11.6757 48.9742 11.9679 49.1653 12.3725C49.3451 12.7659 49.4463 13.2267 49.4463 13.7549V14.0583L49.435 14.0471ZM48.5022 13.7661C48.5022 13.1705 48.3898 12.7209 48.165 12.395C47.9402 12.0803 47.6256 11.9229 47.2097 11.9229C46.7939 11.9229 46.4904 12.0803 46.2656 12.395C46.0409 12.7097 45.9172 13.1592 45.9172 13.7324V14.0359C45.9172 14.6203 46.0296 15.0811 46.2656 15.407C46.5017 15.7329 46.8163 15.8903 47.221 15.8903C47.6256 15.8903 47.9515 15.7329 48.1763 15.4182C48.401 15.1036 48.5134 14.6428 48.5134 14.0359V13.7549L48.5022 13.7661Z" fill="black"/>
<path d="M54.4591 11.208V16.569H53.5263V11.961H51.8854L51.7842 14.029C51.7505 14.6808 51.6719 15.1754 51.5482 15.535C51.4246 15.8946 51.2448 16.1531 51.02 16.3217C50.7952 16.4903 50.4805 16.569 50.0872 16.569H49.8511V15.8272H49.9972C50.2108 15.7935 50.3794 15.7261 50.4918 15.5912C50.6042 15.4563 50.6941 15.2653 50.7615 14.9955C50.8177 14.737 50.8627 14.3437 50.8851 13.8267L50.9863 11.1968H54.4479L54.4591 11.208Z" fill="black"/>
<path d="M59.8666 14.0471C59.8666 14.5753 59.7767 15.0361 59.5969 15.4295C59.4171 15.8229 59.1586 16.1263 58.8214 16.3398C58.4842 16.5534 58.0909 16.6545 57.6526 16.6545C57.2142 16.6545 56.8321 16.5534 56.495 16.3398C56.1578 16.1263 55.888 15.8229 55.7082 15.4295C55.5284 15.0361 55.4272 14.5866 55.4272 14.0696V13.7661C55.4272 13.2491 55.5172 12.7771 55.7082 12.3837C55.8993 11.9904 56.1578 11.6757 56.495 11.4621C56.8321 11.2486 57.2142 11.1475 57.6526 11.1475C58.0909 11.1475 58.473 11.2486 58.8102 11.4621C59.1473 11.6757 59.4058 11.9679 59.5969 12.3725C59.7767 12.7659 59.8778 13.2267 59.8778 13.7549V14.0583L59.8666 14.0471ZM58.9338 13.7661C58.9338 13.1705 58.8214 12.7209 58.5966 12.395C58.3719 12.0803 58.0572 11.9229 57.6413 11.9229C57.2255 11.9229 56.922 12.0803 56.6972 12.395C56.4725 12.7097 56.3488 13.1592 56.3488 13.7324V14.0359C56.3488 14.6203 56.4612 15.0811 56.6972 15.407C56.9333 15.7329 57.248 15.8903 57.6526 15.8903C58.0572 15.8903 58.3831 15.7329 58.6078 15.4182C58.8326 15.1036 58.945 14.6428 58.945 14.0359V13.7549L58.9338 13.7661Z" fill="black"/>
<path d="M65.599 17.9083H64.7111V16.5934H61.1821V17.9083H60.283L60.2493 15.8516H60.6764C60.8899 15.6493 61.0585 15.3459 61.1821 14.9525C61.3057 14.5591 61.3957 14.1096 61.4294 13.6151L61.5642 11.2324H64.9472V15.8516H65.6327L65.5878 17.9083H65.599ZM61.7441 15.8516H64.048V11.9854H62.4858L62.3959 13.4914C62.3285 14.5029 62.115 15.2897 61.7553 15.8516H61.7441Z" fill="black"/>
<path d="M69.4868 14.1951H67.284V15.8472H69.8577V16.589H66.3512V11.228H69.8352V11.981H67.284V13.4646H69.4868V14.2063V14.1951ZM66.812 10.3851C66.812 10.2615 66.8569 10.1603 66.9356 10.0816C67.0143 10.003 67.1267 9.95801 67.2728 9.95801C67.4189 9.95801 67.5313 10.003 67.6212 10.0816C67.6998 10.1603 67.7448 10.2727 67.7448 10.3851C67.7448 10.4975 67.6998 10.6099 67.6212 10.6885C67.5425 10.7672 67.4189 10.8122 67.2728 10.8122C67.1267 10.8122 67.0143 10.7672 66.9356 10.6885C66.8569 10.6099 66.812 10.4975 66.812 10.3851ZM68.4866 10.3963C68.4866 10.2727 68.5315 10.1715 68.6102 10.0929C68.6889 10.0142 68.8013 9.96925 68.9474 9.96925C69.0935 9.96925 69.2059 10.0142 69.2958 10.0929C69.3857 10.1715 69.4194 10.2839 69.4194 10.3963C69.4194 10.5087 69.3745 10.6211 69.2958 10.6998C69.2171 10.7784 69.0935 10.8234 68.9474 10.8234C68.8013 10.8234 68.6889 10.7784 68.6102 10.6998C68.5315 10.6211 68.4866 10.5087 68.4866 10.3963Z" fill="black"/>
<path d="M74.7822 14.2782H74.1866V16.5934H73.2537V14.2782H72.6244L71.3094 16.5934H70.1518L71.8826 13.7387L70.2642 11.2324H71.3881L72.6693 13.469H73.2425V11.2324H74.1753V13.469H74.726L75.996 11.2324H77.1199L75.524 13.7387L77.2436 16.6046H76.0859L74.7822 14.2894V14.2782Z" fill="black"/>
<path d="M78.7381 13.2623H79.8395C80.2329 13.2623 80.57 13.3297 80.8735 13.4646C81.1657 13.5995 81.3905 13.7905 81.5366 14.0378C81.6939 14.285 81.7613 14.5772 81.7613 14.9032C81.7613 15.4089 81.5928 15.8023 81.2556 16.1057C80.9184 16.4092 80.4464 16.5665 79.862 16.5665H77.8165V11.2056H78.7493V13.251L78.7381 13.2623ZM78.7381 14.0153V15.836H79.8282C80.1429 15.836 80.3902 15.7461 80.5588 15.5775C80.7274 15.4089 80.8173 15.1841 80.8173 14.9032C80.8173 14.6222 80.7274 14.4199 80.5588 14.2626C80.3902 14.1052 80.1429 14.0265 79.8395 14.0153H78.7156H78.7381Z" fill="black"/>
<path d="M87.7203 11.2056H88.6532V16.5665H87.7203V12.7453L85.3714 16.5665H84.4386V11.2056H85.3714V15.0268L87.7203 11.2056Z" fill="black"/>
<path d="M96.5786 17.9083H95.6907V16.5934H92.1617V17.9083H91.2626L91.2289 15.8516H91.656C91.8695 15.6493 92.0381 15.3459 92.1617 14.9525C92.2854 14.5591 92.3753 14.1096 92.409 13.6151L92.5439 11.2324H95.9267V15.8516H96.6123L96.5674 17.9083H96.5786ZM92.7237 15.8516H95.0276V11.9854H93.4655L93.3755 13.4914C93.3081 14.5029 93.0945 15.2897 92.7349 15.8516H92.7237Z" fill="black"/>
<path d="M100.467 14.1995H98.2647V15.8516H100.838V16.5934H97.3318V11.2324H100.816V11.9854H98.2647V13.469H100.467V14.2107V14.1995Z" fill="black"/>
<path d="M105.549 11.9586H103.874V16.5665H102.953V11.9586H101.301V11.2056H105.56V11.9586H105.549Z" fill="black"/>
<path d="M109.54 11.2056H110.473V16.5665H109.54V12.7453L107.191 16.5665H106.259V11.2056H107.191V15.0268L109.54 11.2056Z" fill="black"/>
</svg>
