<svg width="297" height="67" viewBox="0 0 297 67" fill="none" xmlns="http://www.w3.org/2000/svg">
<path d="M88.4971 33.0764V16.3735H92.8155L96.5873 25.9572L100.359 16.3735H104.677V33.0764H100.578V24.7524L98.0085 31.5978H95.166L92.5968 24.7524V33.0764H88.4971Z" fill="black"/>
<path d="M117.634 16.1733C123.046 16.1733 126.107 19.8973 126.107 24.7712C126.107 29.6452 123.046 33.3691 117.634 33.3691C112.223 33.3691 109.161 29.6452 109.161 24.7712C109.161 19.8973 112.223 16.1733 117.634 16.1733ZM117.634 29.8642C120.258 29.8642 121.789 27.5094 121.789 24.7712C121.789 22.033 120.258 19.6782 117.634 19.6782C115.01 19.6782 113.48 22.033 113.48 24.7712C113.48 27.5094 115.01 29.8642 117.634 29.8642Z" fill="black"/>
<path d="M128.782 29.5715C130.75 29.5715 131.57 28.9691 131.734 27.2167L132.827 16.3735H144.962V33.0764H140.863V19.8784H136.654L135.67 28.6953C135.232 32.7478 132.499 33.0764 128.782 33.0764V29.5715Z" fill="black"/>
<path d="M158.195 16.1733C163.606 16.1733 166.667 19.8973 166.667 24.7712C166.667 29.6452 163.606 33.3691 158.195 33.3691C152.783 33.3691 149.722 29.6452 149.722 24.7712C149.722 19.8973 152.783 16.1733 158.195 16.1733ZM158.195 29.8642C160.818 29.8642 162.349 27.5094 162.349 24.7712C162.349 22.033 160.818 19.6782 158.195 19.6782C155.571 19.6782 154.04 22.033 154.04 24.7712C154.04 27.5094 155.571 29.8642 158.195 29.8642Z" fill="black"/>
<path d="M170.221 29.5715H171.588L173.72 16.3735H185.636V29.5715H186.839L186.347 36.8551H182.794V33.0764H174.266V36.8551H170.713L170.167 29.5715H170.221ZM175.578 29.5715H181.537V19.8784H177.054L175.578 29.5715Z" fill="black"/>
<path d="M198.203 16.1508C203.778 16.1508 205.965 20.8057 205.965 24.4201V26.1177H194.485C194.595 27.9797 195.907 29.8964 198.421 29.8964C200.28 29.8964 201.428 29.0202 202.466 27.3225L205.801 28.5273C204.489 31.4846 202.248 33.4013 198.257 33.4013C192.518 33.4013 190.276 28.7464 190.276 24.8034C190.276 20.8604 192.572 16.2055 198.257 16.2055L198.203 16.1508ZM194.813 9.1958C196.235 9.1958 197.164 10.1815 197.164 11.5506C197.164 12.9197 196.235 13.9055 194.813 13.9055C193.392 13.9055 192.463 12.9197 192.463 11.5506C192.463 10.1815 193.392 9.1958 194.813 9.1958ZM201.756 22.8319C201.428 21.189 200.389 19.6556 198.203 19.6556C196.125 19.6556 194.868 21.2985 194.595 22.8319H201.756ZM201.646 9.1958C203.068 9.1958 203.997 10.1815 203.997 11.5506C203.997 12.9197 203.068 13.9055 201.646 13.9055C200.225 13.9055 199.296 12.9197 199.296 11.5506C199.296 10.1815 200.225 9.1958 201.646 9.1958Z" fill="black"/>
<path d="M207.824 33.0885L214.931 24.1073L208.262 16.4404H213.345L218.757 23.0121V16.4404H222.857V23.0121L228.268 16.4404H233.352L226.683 24.1073L233.789 33.0885H228.76L222.857 25.2026V33.0885H218.757V25.2026L212.853 33.0885H207.824Z" fill="black"/>
<path d="M237.067 33.0764V16.3735H241.167V22.4523H246.742V16.3735H250.842V33.0764H246.742V25.9572H241.167V33.0764H237.067Z" fill="black"/>
<path d="M256.313 33.0764V16.3735H260.413V22.7261H263.474C267.027 22.7261 269.214 24.7524 269.214 27.8739C269.214 30.9954 267.027 33.0216 263.474 33.0216H256.313V33.0764ZM260.413 29.5715H262.709C264.24 29.5715 265.005 29.1334 265.005 27.9286C265.005 26.7238 264.24 26.2857 262.709 26.2857H260.413V29.6263V29.5715ZM272.712 33.0764V16.3735H276.812V33.0764H272.712Z" fill="black"/>
<path d="M282.278 33.0873V16.3845H286.378V26.68L292.117 16.3845H296.6V33.0873H292.5V22.7918L286.76 33.0873H282.278ZM288.564 9.92236C288.564 10.47 288.947 10.8533 289.439 10.8533C289.931 10.8533 290.313 10.47 290.313 9.92236H293.32C293.32 11.8391 291.844 13.5368 289.439 13.5368C287.034 13.5368 285.558 11.8391 285.558 9.92236H288.564Z" fill="black"/>
<path d="M88.4971 55.6921V38.9893H92.5968V52.1873H98.0631V38.9893H102.163V52.1873H103.365L102.874 59.4708H99.3204V55.6921H88.4971Z" fill="black"/>
<path d="M115.118 38.7891C120.694 38.7891 122.88 43.444 122.88 47.0584V48.756H111.401C111.511 50.618 112.822 52.5347 115.337 52.5347C117.195 52.5347 118.343 51.6585 119.382 49.9608L122.662 51.1656C121.35 54.1228 119.109 56.0396 115.118 56.0396C109.379 56.0396 107.137 51.3847 107.137 47.4417C107.137 43.4987 109.433 38.8438 115.118 38.8438V38.7891ZM118.671 45.4702C118.343 43.8273 117.305 42.2939 115.118 42.2939C113.041 42.2939 111.784 43.9368 111.511 45.4702H118.671Z" fill="black"/>
<path d="M127.695 55.6921V38.9893H131.795V45.068H137.37V38.9893H141.47V55.6921H137.37V48.5729H131.795V55.6921H127.695Z" fill="black"/>
<path d="M145.62 42.5522V39.0474H158.63V42.5522H154.148V55.7502H150.048V42.5522H145.566H145.62Z" fill="black"/>
<path d="M162.731 62.5017V39.0629H166.831V40.7605C167.268 39.8843 168.854 38.7891 170.876 38.7891C175.905 38.7891 178.474 42.2392 178.474 47.3869C178.474 52.5347 175.905 55.9848 170.876 55.9848C169.182 55.9848 167.596 55.1086 166.831 54.1776V62.4469H162.731V62.5017ZM170.33 52.4799C172.461 52.4799 174.211 50.6727 174.211 47.3869C174.211 44.1011 172.516 42.2939 170.33 42.2939C168.143 42.2939 166.503 44.1011 166.503 47.3869C166.503 50.6727 168.198 52.4799 170.33 52.4799Z" fill="black"/>
<path d="M10.9873 55.1494H0V66.1569H10.9873V55.1494Z" fill="black"/>
<path d="M33.0147 33.0815H10.9855V55.1512H33.0147V33.0815Z" fill="black"/>
<path d="M66.0902 0H33.0736V33.0772H66.0902V0Z" fill="black"/>
</svg>
