<svg width="332" height="53" viewBox="0 0 332 53" fill="none" xmlns="http://www.w3.org/2000/svg">
<g clip-path="url(#clip0_177_784)">
<path d="M151.719 15.6679L158.799 10.4492H135.1V41.7955H158.799V36.5742H141.863V28.5495H156.31V23.3309H141.863V15.6679H151.719Z" fill="black"/>
<path d="M117.213 22.6683H108.983V15.6679H122.121L129.203 10.4492H102.22V41.7955H116.342C124.264 41.7955 128.807 38.2055 128.807 31.9494C128.807 25.6934 124.689 22.6683 117.216 22.6683H117.213ZM116.036 36.5742H108.983V27.887H116.036C120.328 27.887 122.329 29.3414 122.329 32.2319C122.329 35.1223 120.212 36.5768 116.036 36.5768V36.5742Z" fill="black"/>
<path d="M177.999 10.4492H165.096V41.7928H171.859V32.9129H177.999C186.232 32.9129 191.348 28.5838 191.348 21.6652C191.348 14.7466 186.232 10.4492 177.999 10.4492ZM177.854 27.6969H171.859V15.6679H177.854C182.188 15.6679 184.574 17.8034 184.574 21.6811C184.574 25.5588 182.188 27.6943 177.854 27.6943V27.6969Z" fill="black"/>
<path d="M90.6071 35.0017C88.8728 35.9599 86.8535 36.4641 84.7681 36.4641C78.6704 36.4641 74.2437 32.1112 74.2437 26.1165C74.2437 20.1218 78.6704 15.7663 84.7681 15.7663C87.0752 15.7663 89.1421 16.4157 90.9186 17.6906L95.7703 14.1165L95.4509 13.8341C92.6185 11.3448 88.8332 10.0303 84.5068 10.0303C79.8134 10.0303 75.553 11.6141 72.5121 14.4861C69.4527 17.3765 67.7686 21.4443 67.7686 25.9396C67.7686 30.435 69.4474 34.582 72.4962 37.5622C75.553 40.5503 79.8055 42.1975 84.4646 42.1975C89.1236 42.1975 93.5979 40.4975 96.483 37.4038C94.2551 35.7619 92.1064 34.1781 92.1064 34.1781L90.6071 34.999V35.0017Z" fill="black"/>
<path d="M52.0915 26.1258C52.0915 24.5341 51.949 22.9741 51.6744 21.4589L46.0678 25.59C46.073 25.7668 46.0757 25.9463 46.0757 26.1258C46.0757 37.1703 37.0902 46.1558 26.0458 46.1558C15.0013 46.1558 6.01584 37.1703 6.01584 26.1258C6.01584 15.0814 15.0013 6.09592 26.0458 6.09592C30.2323 6.09592 34.1205 7.38672 37.3383 9.59086L42.4039 5.85835C37.9323 2.24462 32.2437 0.0800781 26.0458 0.0800781C11.6621 0.0800781 0 11.7422 0 26.1258C0 40.5095 11.6621 52.1716 26.0458 52.1716C40.4294 52.1716 52.0915 40.5095 52.0915 26.1258Z" fill="black"/>
<path d="M46.6566 10.1987C47.8867 11.7878 48.9373 13.5247 49.7794 15.3751L26.046 32.8657L16.1313 26.6492V19.171L26.046 25.3875L46.6566 10.1987Z" fill="black"/>
<path d="M281.656 9.62109C284.441 9.62109 286.856 9.84283 288.902 10.2889C290.948 10.7034 292.621 11.3105 293.925 12.1103C295.258 12.8811 296.238 13.8156 296.858 14.911C297.51 16.0065 297.835 17.2234 297.835 18.5564C297.835 20.2458 297.36 21.6396 296.412 22.735C295.493 23.8015 294.279 24.5723 292.767 25.0474C294.01 25.4328 295.047 25.9079 295.879 26.4702C296.708 27.0324 297.36 27.6554 297.835 28.3364C298.339 28.9884 298.695 29.6853 298.901 30.4244C299.11 31.1662 299.213 31.9053 299.213 32.6471C299.213 35.7883 297.7 38.2194 294.678 39.9379C291.684 41.6563 287.342 42.5168 281.654 42.5168C275.965 42.5168 271.607 41.6563 268.584 39.9379C265.591 38.2194 264.094 35.7883 264.094 32.6471C264.094 31.9053 264.197 31.1662 264.406 30.4244C264.614 29.6827 264.955 28.9858 265.427 28.3364C265.932 27.6554 266.597 27.0324 267.428 26.4702C268.257 25.9079 269.295 25.4328 270.54 25.0474C269.028 24.5723 267.8 23.8015 266.85 22.735C265.932 21.6396 265.472 20.2458 265.472 18.5564C265.472 17.2234 265.784 16.0065 266.407 14.911C267.059 13.8156 268.038 12.8811 269.342 12.1103C270.675 11.3105 272.351 10.7034 274.365 10.2889C276.411 9.84547 278.84 9.62109 281.656 9.62109ZM329.812 16.4658H310.563L309.94 21.9326C310.682 21.7848 311.63 21.6501 312.786 21.5313C313.942 21.4126 315.098 21.3545 316.254 21.3545C321.41 21.3545 325.322 22.215 327.991 23.9335C330.657 25.6229 331.992 28.1279 331.992 31.446C331.992 35.1812 330.525 37.966 327.592 39.8032C324.659 41.6114 320.407 42.5142 314.834 42.5142C312.316 42.5142 309.811 42.3373 307.322 41.981C304.833 41.6246 302.61 41.1521 300.654 40.5582V34.3338C301.631 34.6902 302.684 35.0148 303.811 35.3131C304.967 35.5797 306.152 35.8015 307.367 35.981C308.581 36.1578 309.811 36.3057 311.057 36.4244C312.332 36.5142 313.575 36.5564 314.792 36.5564C317.756 36.5564 320.024 36.2001 321.595 35.49C323.194 34.7482 323.994 33.4759 323.994 31.6677C323.994 30.8389 323.786 30.1262 323.371 29.5349C322.957 28.9119 322.289 28.4077 321.37 28.0223C320.452 27.6369 319.266 27.3545 317.815 27.1776C316.363 26.9691 314.599 26.8661 312.525 26.8661C310.45 26.8661 308.436 26.9691 306.657 27.1776C304.877 27.3862 303.368 27.6369 302.122 27.9326L303.901 10.508H329.817V16.4658H329.812ZM261.932 41.6273H254.198V18.1103L244.373 22.7324V15.9748L256.109 10.508H261.932V41.6246V41.6273ZM281.656 27.8455C278.338 27.8455 275.907 28.2018 274.365 28.9119C272.853 29.622 272.098 30.7333 272.098 32.2458C272.098 33.7584 272.853 34.7799 274.365 35.49C275.907 36.2001 278.335 36.5564 281.656 36.5564C284.977 36.5564 287.39 36.2001 288.902 35.49C290.444 34.7799 291.214 33.6976 291.214 32.2458C291.214 30.794 290.444 29.622 288.902 28.9119C287.39 28.2018 284.974 27.8455 281.656 27.8455ZM281.656 15.5789C278.692 15.5789 276.543 15.8745 275.21 16.4684C273.906 17.0624 273.254 17.981 273.254 19.2243C273.254 20.4676 273.906 21.373 275.21 21.9352C276.543 22.4975 278.692 22.7799 281.656 22.7799C284.621 22.7799 286.753 22.4975 288.057 21.9352C289.39 21.373 290.058 20.4676 290.058 19.2243C290.058 17.981 289.39 17.0597 288.057 16.4684C286.753 15.8745 284.621 15.5789 281.656 15.5789Z" fill="black"/>
<path d="M219.413 0.0136719H217.037V52.2794H219.413V0.0136719Z" fill="black"/>
</g>
<defs>
<clipPath id="clip0_177_784">
<rect width="331.988" height="52.2614" fill="white"/>
</clipPath>
</defs>
</svg>
