<svg width="119" height="58" viewBox="0 0 119 58" fill="none" xmlns="http://www.w3.org/2000/svg">
<path fill-rule="evenodd" clip-rule="evenodd" d="M83.6324 0H45.3533V34.3779H56.0028V23.8201H70.5147L75.8009 14.2173H56.0028V10.2078H78.0139L83.6324 0Z" fill="black"/>
<path fill-rule="evenodd" clip-rule="evenodd" d="M118.253 0V34.3779H107.781V19.0217L99.3208 34.3779H88.8433V19.0217L80.383 34.3779H68.3451L87.277 0H99.3208V13.5649L99.9497 12.1295L106.215 0H118.253Z" fill="black"/>
<path fill-rule="evenodd" clip-rule="evenodd" d="M12.6134 11.1687V23.2151H26.8286C30.2222 23.2151 32.7971 20.1961 32.7615 17.1533C32.7259 14.1758 30.151 11.1746 26.8286 11.1746H12.6134V11.1687ZM0 0H29.4272C38.4334 0 45.7961 7.36668 45.7961 16.3645V18.0134C45.7961 27.0171 38.4274 34.3779 29.4272 34.3779H0V0Z" fill="black"/>
<path d="M5.16124 51.9445H3.04345V57.2701H0.000244141V44.0449H3.04345V49.3884H5.23243L8.70869 44.0449H11.9417L7.61716 50.4322L12.0782 57.2701H8.60191L5.16124 51.9445Z" fill="black"/>
<path d="M29.305 54.4309H23.1652L21.9965 57.2657H18.8584L24.755 44.0405H27.7804L33.6948 57.2657H30.4795L29.3109 54.4309H29.305ZM28.344 52.1061L26.244 47.0414L24.144 52.1061H28.338H28.344Z" fill="black"/>
<path d="M51.8857 51.6343C52.3187 52.1977 52.5382 52.8442 52.5382 53.5914C52.5382 54.398 52.2713 55.0978 51.7433 55.6908C51.2153 56.2839 50.4975 56.7346 49.5959 57.0489C48.6942 57.3633 47.7094 57.5234 46.6416 57.5234C45.734 57.5234 44.8323 57.4107 43.9306 57.1853C43.0289 56.96 42.1747 56.6101 41.3679 56.1475L42.3111 53.9591C42.8925 54.309 43.5272 54.5818 44.2272 54.7597C44.9272 54.9436 45.6094 55.0325 46.2798 55.0325C47.1874 55.0325 47.9408 54.8665 48.5399 54.5403C49.1391 54.2141 49.4357 53.7515 49.4357 53.1585C49.4357 52.6662 49.2281 52.2985 48.8187 52.0435C48.4094 51.7944 47.8518 51.664 47.1459 51.664H43.9128V49.357H46.9145C47.5315 49.357 48.012 49.2324 48.362 48.9774C48.712 48.7224 48.884 48.3784 48.884 47.9396C48.884 47.4236 48.6348 47.0203 48.1365 46.7297C47.6382 46.4391 46.9976 46.2968 46.2204 46.2968C45.6391 46.2968 45.0399 46.3739 44.423 46.534C43.806 46.6941 43.2188 46.9254 42.6671 47.2398L41.7417 44.8616C43.1416 44.144 44.6544 43.7822 46.2738 43.7822C47.306 43.7822 48.2552 43.9305 49.1272 44.233C49.9992 44.5354 50.6874 44.9743 51.2035 45.5555C51.7196 46.1367 51.9806 46.8068 51.9806 47.5778C51.9806 48.2064 51.8086 48.7698 51.4704 49.2562C51.1323 49.7484 50.6637 50.122 50.0704 50.3889C50.8357 50.6558 51.4408 51.065 51.8738 51.6284L51.8857 51.6343Z" fill="black"/>
<path d="M71.0125 54.4309H64.8727L63.704 57.2657H60.5659L66.4625 44.0405H69.4879L75.4023 57.2657H72.1871L71.0184 54.4309H71.0125ZM70.0455 52.1061L67.9456 47.0414L65.8456 52.1061H70.0396H70.0455Z" fill="black"/>
<path d="M96.3896 44.0405V57.2657H93.3286V51.8452H87.3193V57.2657H84.2583V44.0405H87.3193V49.2535H93.3286V44.0405H96.3896Z" fill="black"/>
<path d="M116.927 49.467C117.787 50.1846 118.22 51.2521 118.22 52.6577C118.22 54.1581 117.746 55.2968 116.791 56.0855C115.842 56.8743 114.501 57.2657 112.775 57.2657H106.807V44.0405H109.85V48.3876H113.214C114.827 48.3876 116.061 48.7494 116.927 49.467ZM114.471 54.419C114.916 54.0276 115.142 53.4642 115.142 52.717C115.142 51.347 114.299 50.6591 112.609 50.6591H109.85V55.0062H112.609C113.403 55.0062 114.02 54.8105 114.471 54.419Z" fill="black"/>
</svg>
