<svg width="491" height="105" viewBox="0 0 491 105" fill="none" xmlns="http://www.w3.org/2000/svg">
<path d="M0 0.304932H490" stroke="white" stroke-width="0.609833" stroke-miterlimit="10"/>
<path d="M333.401 97.8604V93.3448H330.757L330.407 95.0034H327.038V91.8073H332.339V89.2166H327.038V86.3838H330.226L330.576 87.9576H333.111V83.4783H322.426V85.96L323.489 86.0932V95.4755L323.199 97.8604H333.401Z" fill="white"/>
<path d="M333.909 87.1277H337.181L337.604 88.4473C337.604 88.4473 338.992 86.7524 341.117 86.8372C343.242 86.934 343.822 88.3626 344.015 88.7015C344.208 89.0405 344.208 89.9243 344.208 89.9243V95.4931L345.295 95.6384V97.8538H340.96V90.6264C340.96 90.6264 340.9 89.2705 339.608 89.3795C338.389 89.4763 338.171 91.3165 338.159 92.2123C338.159 92.9871 338.208 97.8538 338.208 97.8538H335.008V89.4521L333.921 89.3068V87.1156L333.909 87.1277Z" fill="white"/>
<path d="M351.838 89.3338H350.208V93.9826C350.208 93.9826 350.184 95.1448 351.078 95.3264C351.814 95.4717 352.345 95.3264 352.345 95.3264L351.911 97.8566C351.911 97.8566 349.568 98.0019 348.602 97.3723C347.624 96.7428 346.924 95.9559 346.924 94.2368V89.3459H345.85V87.0215L346.924 86.9126L347.335 84.4913L350.16 83.3049V86.8157H351.85V89.3459L351.838 89.3338Z" fill="white"/>
<path d="M362.74 92.9653C362.74 92.9653 362.909 90.6773 362.342 89.394C361.774 88.0986 361.291 87.6507 360.313 87.0938C359.335 86.5369 356.981 86.4764 355.677 87.1907C354.373 87.9049 353.54 89.0066 353.214 90.1204C352.888 91.2341 352.526 93.4859 353.323 95.0839C354.119 96.6698 355.097 97.1662 356.1 97.5294C357.102 97.8926 358.502 97.8926 358.913 97.8926C359.323 97.8926 360.627 97.7473 361.255 97.5899C361.883 97.4325 362.342 97.2751 362.342 97.2751V94.2244H359.951L359.637 95.326C359.637 95.326 357.971 95.4834 357.283 95.0113C356.595 94.5391 356.353 93.9823 356.281 93.607C356.208 93.2317 356.269 92.9774 356.269 92.9774H362.74V92.9653ZM356.401 90.4836C356.51 90.1083 357.017 89.4303 357.44 89.2366C357.862 89.0429 358.683 88.934 359.287 89.5635C359.903 90.193 359.758 91.1252 359.758 91.1252H356.257C356.257 91.1252 356.293 90.8589 356.401 90.4836Z" fill="white"/>
<path d="M369.224 97.8591V95.6315L368.125 95.4863V92.1813C368.125 92.1813 368.161 90.6922 369.018 90.1716C369.634 89.7963 370.262 89.76 370.733 89.7358C371.204 89.6995 371.445 89.7358 371.445 89.7358L371.083 86.8666C371.083 86.8666 369.815 86.794 368.982 87.2661C368.149 87.7383 367.787 88.4646 367.787 88.4646L367.328 87.1209H363.947V89.2637L365.046 89.3847V97.8591H369.224Z" fill="white"/>
<path d="M318.818 86.5657V94.519L314 90.5363L318.818 86.5657Z" fill="white"/>
<path fill-rule="evenodd" clip-rule="evenodd" d="M478.569 81.3049H465.493V93.0487H469.131V89.4421H474.088L475.894 86.1617H469.131V84.792H476.65L478.569 81.3049Z" fill="white"/>
<path fill-rule="evenodd" clip-rule="evenodd" d="M490.397 81.3049V93.0487H486.819V87.8029L483.929 93.0487H480.35V87.8029L477.46 93.0487H473.348L479.815 81.3049H483.929V85.9388L484.144 85.4485L486.284 81.3049H490.397Z" fill="white"/>
<path fill-rule="evenodd" clip-rule="evenodd" d="M454.309 85.1202V89.2354H459.165C460.324 89.2354 461.204 88.2041 461.192 87.1646C461.179 86.1475 460.3 85.1222 459.165 85.1222H454.309V85.1202ZM450 81.3049H460.052C463.129 81.3049 465.644 83.8214 465.644 86.8952V87.4584C465.644 90.5342 463.127 93.0487 460.052 93.0487H450V81.3049Z" fill="white"/>
<path d="M451.763 99.0461H451.04V100.865H450V96.3475H451.04V98.1729H451.787L452.975 96.3475H454.079L452.602 98.5295L454.126 100.865H452.938L451.763 99.0461Z" fill="white"/>
<path d="M460.012 99.897H457.914L457.515 100.865H456.443L458.457 96.3475H459.491L461.511 100.865H460.413L460.014 99.897H460.012ZM459.683 99.1028L458.966 97.3727L458.249 99.1028H459.681H459.683Z" fill="white"/>
<path d="M467.725 98.9395C467.872 99.1319 467.947 99.3528 467.947 99.608C467.947 99.8836 467.856 100.123 467.676 100.325C467.496 100.528 467.25 100.682 466.942 100.789C466.634 100.897 466.298 100.951 465.933 100.951C465.623 100.951 465.315 100.913 465.007 100.836C464.699 100.759 464.407 100.639 464.132 100.481L464.454 99.7336C464.652 99.8532 464.869 99.9464 465.108 100.007C465.347 100.07 465.581 100.1 465.81 100.1C466.12 100.1 466.377 100.044 466.582 99.9322C466.786 99.8208 466.888 99.6627 466.888 99.4601C466.888 99.292 466.817 99.1664 466.677 99.0793C466.537 98.9942 466.347 98.9496 466.105 98.9496H465.001V98.1615H466.026C466.237 98.1615 466.401 98.119 466.521 98.0319C466.64 97.9447 466.699 97.8272 466.699 97.6773C466.699 97.5011 466.614 97.3633 466.444 97.264C466.274 97.1648 466.055 97.1161 465.789 97.1161C465.591 97.1161 465.386 97.1425 465.175 97.1972C464.964 97.2519 464.764 97.3309 464.575 97.4383L464.259 96.6259C464.738 96.3807 465.254 96.2571 465.807 96.2571C466.16 96.2571 466.484 96.3078 466.782 96.4111C467.08 96.5144 467.315 96.6644 467.491 96.8629C467.668 97.0614 467.757 97.2904 467.757 97.5537C467.757 97.7685 467.698 97.9609 467.583 98.1271C467.467 98.2952 467.307 98.4229 467.104 98.514C467.366 98.6052 467.573 98.745 467.72 98.9374L467.725 98.9395Z" fill="white"/>
<path d="M474.259 99.897H472.162L471.763 100.865H470.691L472.705 96.3475H473.738L475.759 100.865H474.66L474.261 99.897H474.259ZM473.929 99.1028L473.211 97.3727L472.494 99.1028H473.927H473.929Z" fill="white"/>
<path d="M482.927 96.3475V100.865H481.882V99.0137H479.829V100.865H478.783V96.3475H479.829V98.1283H481.882V96.3475H482.927Z" fill="white"/>
<path d="M489.943 98.2013C490.237 98.4464 490.385 98.8111 490.385 99.2912C490.385 99.8038 490.223 100.193 489.897 100.462C489.572 100.732 489.114 100.865 488.525 100.865H486.486V96.3475H487.526V97.8325H488.675C489.226 97.8325 489.647 97.9561 489.943 98.2013ZM489.104 99.8929C489.256 99.7592 489.333 99.5667 489.333 99.3115C489.333 98.8435 489.045 98.6085 488.468 98.6085H487.526V100.093H488.468C488.739 100.093 488.95 100.027 489.104 99.8929Z" fill="white"/>
<path d="M201.658 94.8738V94.7093C201.603 94.6972 201.545 94.688 201.484 94.6819C201.429 94.6697 201.369 94.6636 201.301 94.6636C201.234 94.6575 201.164 94.6545 201.091 94.6545C201.018 94.6484 200.939 94.6454 200.854 94.6454C200.689 94.6454 200.552 94.6545 200.442 94.6728C200.332 94.685 200.241 94.7093 200.168 94.7459C200.101 94.7764 200.052 94.816 200.022 94.8647C199.991 94.9135 199.976 94.9683 199.976 95.0292C199.976 95.0901 199.988 95.145 200.013 95.1937C200.043 95.2424 200.086 95.2851 200.141 95.3216C200.202 95.3582 200.281 95.3856 200.378 95.4039C200.482 95.4222 200.604 95.4313 200.744 95.4313C200.902 95.4313 201.036 95.4191 201.146 95.3947C201.262 95.3704 201.356 95.3338 201.429 95.2851C201.509 95.2303 201.567 95.1693 201.603 95.1023C201.64 95.0353 201.658 94.9591 201.658 94.8738ZM203.477 93.7589V96.5919H201.768V95.9156H201.74C201.692 96.007 201.618 96.0984 201.521 96.1898C201.423 96.2751 201.301 96.3543 201.155 96.4274C201.009 96.5005 200.838 96.5615 200.643 96.6102C200.454 96.6589 200.238 96.6833 199.994 96.6833C199.671 96.6833 199.394 96.6498 199.163 96.5828C198.931 96.5158 198.739 96.4213 198.586 96.2995C198.434 96.1776 198.318 96.0284 198.239 95.8517C198.166 95.6689 198.129 95.4648 198.129 95.2394C198.129 94.9896 198.178 94.7733 198.276 94.5905C198.373 94.4078 198.519 94.2555 198.714 94.1336C198.916 94.0117 199.169 93.9234 199.473 93.8686C199.784 93.8137 200.153 93.7863 200.579 93.7863C200.689 93.7863 200.799 93.7894 200.908 93.7955C201.018 93.8016 201.119 93.8077 201.21 93.8137C201.308 93.8198 201.393 93.829 201.466 93.8412C201.545 93.8473 201.609 93.8534 201.658 93.8594V93.7041C201.658 93.6249 201.64 93.5548 201.603 93.4939C201.573 93.4269 201.515 93.372 201.429 93.3294C201.35 93.2807 201.241 93.2441 201.1 93.2197C200.96 93.1954 200.781 93.1832 200.561 93.1832C200.378 93.1832 200.195 93.1954 200.013 93.2197C199.836 93.238 199.665 93.2654 199.501 93.302C199.336 93.3385 199.181 93.3781 199.035 93.4208C198.894 93.4634 198.769 93.5091 198.66 93.5579V92.1871C198.775 92.1505 198.913 92.1109 199.071 92.0683C199.23 92.0195 199.403 91.9769 199.592 91.9403C199.787 91.9038 199.997 91.8733 200.223 91.8489C200.448 91.8185 200.683 91.8032 200.927 91.8032C201.365 91.8032 201.746 91.8367 202.069 91.9038C202.392 91.9708 202.657 92.0804 202.865 92.2327C203.078 92.3851 203.233 92.5861 203.331 92.8359C203.428 93.0857 203.477 93.3934 203.477 93.7589ZM204.794 96.7199C204.672 96.7199 204.553 96.7107 204.437 96.6924C204.321 96.6742 204.23 96.6559 204.163 96.6376L204.154 95.1297C204.196 95.1358 204.233 95.1419 204.263 95.148C204.3 95.148 204.337 95.148 204.373 95.148C204.513 95.148 204.629 95.1145 204.721 95.0475C204.818 94.9744 204.897 94.8464 204.958 94.6636C205.019 94.4809 205.062 94.2341 205.086 93.9234C205.11 93.6066 205.123 93.2045 205.123 92.7171V91.9312H209.867V96.5919H208.039V93.4299H206.805L206.795 93.6584C206.783 94.1702 206.741 94.6179 206.667 95.0018C206.594 95.3856 206.478 95.7055 206.32 95.9613C206.162 96.2111 205.958 96.4 205.708 96.5279C205.464 96.6559 205.159 96.7199 204.794 96.7199ZM214.147 94.8738V94.7093C214.092 94.6972 214.034 94.688 213.973 94.6819C213.918 94.6697 213.857 94.6636 213.79 94.6636C213.723 94.6575 213.653 94.6545 213.58 94.6545C213.507 94.6484 213.428 94.6454 213.342 94.6454C213.178 94.6454 213.041 94.6545 212.931 94.6728C212.821 94.685 212.73 94.7093 212.657 94.7459C212.59 94.7764 212.541 94.816 212.511 94.8647C212.48 94.9135 212.465 94.9683 212.465 95.0292C212.465 95.0901 212.477 95.145 212.501 95.1937C212.532 95.2424 212.574 95.2851 212.629 95.3216C212.69 95.3582 212.77 95.3856 212.867 95.4039C212.971 95.4222 213.093 95.4313 213.233 95.4313C213.391 95.4313 213.525 95.4191 213.635 95.3947C213.751 95.3704 213.845 95.3338 213.918 95.2851C213.997 95.2303 214.055 95.1693 214.092 95.1023C214.129 95.0353 214.147 94.9591 214.147 94.8738ZM215.966 93.7589V96.5919H214.257V95.9156H214.229C214.18 96.007 214.107 96.0984 214.01 96.1898C213.912 96.2751 213.79 96.3543 213.644 96.4274C213.498 96.5005 213.327 96.5615 213.132 96.6102C212.943 96.6589 212.727 96.6833 212.483 96.6833C212.16 96.6833 211.883 96.6498 211.651 96.5828C211.42 96.5158 211.228 96.4213 211.075 96.2995C210.923 96.1776 210.807 96.0284 210.728 95.8517C210.655 95.6689 210.618 95.4648 210.618 95.2394C210.618 94.9896 210.667 94.7733 210.765 94.5905C210.862 94.4078 211.008 94.2555 211.203 94.1336C211.404 94.0117 211.657 93.9234 211.962 93.8686C212.273 93.8137 212.642 93.7863 213.068 93.7863C213.178 93.7863 213.288 93.7894 213.397 93.7955C213.507 93.8016 213.607 93.8077 213.699 93.8137C213.796 93.8198 213.882 93.829 213.955 93.8412C214.034 93.8473 214.098 93.8534 214.147 93.8594V93.7041C214.147 93.6249 214.129 93.5548 214.092 93.4939C214.062 93.4269 214.004 93.372 213.918 93.3294C213.839 93.2807 213.729 93.2441 213.589 93.2197C213.449 93.1954 213.269 93.1832 213.05 93.1832C212.867 93.1832 212.684 93.1954 212.501 93.2197C212.325 93.238 212.154 93.2654 211.989 93.302C211.825 93.3385 211.67 93.3781 211.523 93.4208C211.383 93.4634 211.258 93.5091 211.148 93.5579V92.1871C211.264 92.1505 211.401 92.1109 211.56 92.0683C211.718 92.0195 211.892 91.9769 212.081 91.9403C212.276 91.9038 212.486 91.8733 212.712 91.8489C212.937 91.8185 213.172 91.8032 213.416 91.8032C213.854 91.8032 214.235 91.8367 214.558 91.9038C214.881 91.9708 215.146 92.0804 215.353 92.2327C215.567 92.3851 215.722 92.5861 215.82 92.8359C215.917 93.0857 215.966 93.3934 215.966 93.7589ZM218.032 92.9273H218.051C218.124 92.8237 218.221 92.7232 218.343 92.6257C218.471 92.5221 218.623 92.4307 218.8 92.3516C218.977 92.2724 219.181 92.2114 219.413 92.1688C219.644 92.12 219.906 92.0957 220.199 92.0957C220.638 92.0957 221.022 92.1474 221.351 92.251C221.686 92.3485 221.963 92.4947 222.182 92.6897C222.408 92.8846 222.576 93.1222 222.685 93.4025C222.795 93.6828 222.85 94.0026 222.85 94.3621C222.85 94.7825 222.771 95.1419 222.612 95.4404C222.46 95.739 222.247 95.9827 221.972 96.1715C221.704 96.3604 221.387 96.5005 221.021 96.5919C220.656 96.6772 220.266 96.7199 219.851 96.7199C219.614 96.7199 219.373 96.7046 219.129 96.6742C218.885 96.6437 218.645 96.5889 218.407 96.5097C218.176 96.4305 217.956 96.3238 217.749 96.1898C217.548 96.0497 217.371 95.8669 217.219 95.6415C217.072 95.4161 216.954 95.145 216.862 94.8282C216.771 94.5113 216.725 94.1367 216.725 93.7041C216.725 92.9669 216.81 92.3668 216.981 91.9038C217.158 91.4346 217.405 91.066 217.722 90.798C218.039 90.5238 218.413 90.3319 218.846 90.2222C219.285 90.1065 219.769 90.0273 220.299 89.9846C220.586 89.9602 220.83 89.9389 221.031 89.9206C221.232 89.8963 221.405 89.8719 221.552 89.8476C221.704 89.8232 221.835 89.7988 221.945 89.7744C222.061 89.744 222.173 89.7135 222.283 89.683V91.1453C222.21 91.1818 222.119 91.2153 222.009 91.2458C221.899 91.2762 221.774 91.3067 221.634 91.3372C221.494 91.3615 221.338 91.3859 221.168 91.4103C221.003 91.4286 220.817 91.4468 220.61 91.4651C220.366 91.4834 220.135 91.5047 219.915 91.5291C219.696 91.5534 219.492 91.5869 219.303 91.6296C219.114 91.6722 218.943 91.7271 218.791 91.7941C218.639 91.8611 218.508 91.9464 218.398 92.05C218.288 92.1535 218.2 92.2784 218.133 92.4247C218.072 92.5648 218.039 92.7323 218.032 92.9273ZM218.672 94.3895C218.672 94.5174 218.69 94.6423 218.727 94.7642C218.77 94.8799 218.837 94.9835 218.928 95.0749C219.02 95.1602 219.141 95.2303 219.294 95.2851C219.446 95.3338 219.632 95.3582 219.851 95.3582C220.052 95.3582 220.223 95.3338 220.363 95.2851C220.51 95.2303 220.625 95.1602 220.711 95.0749C220.802 94.9835 220.866 94.8799 220.903 94.7642C220.945 94.6484 220.967 94.5235 220.967 94.3895C220.967 94.2616 220.945 94.1397 220.903 94.0239C220.866 93.9082 220.802 93.8077 220.711 93.7224C220.625 93.6371 220.51 93.5701 220.363 93.5213C220.217 93.4726 220.037 93.4482 219.824 93.4482C219.611 93.4482 219.431 93.4756 219.285 93.5304C219.138 93.5792 219.02 93.6462 218.928 93.7315C218.837 93.8168 218.77 93.9173 218.727 94.0331C218.69 94.1488 218.672 94.2676 218.672 94.3895ZM223.718 98.4835L223.746 97.1037C223.831 97.1342 223.923 97.1555 224.02 97.1677C224.118 97.1859 224.209 97.1951 224.294 97.1951C224.422 97.1951 224.532 97.1829 224.623 97.1585C224.715 97.1402 224.794 97.1098 224.861 97.0671C224.928 97.0245 224.983 96.9727 225.026 96.9118C225.074 96.8569 225.117 96.7899 225.154 96.7107L225.19 96.6193L222.905 91.9312H224.934L226.433 95.6689H225.803L226.936 91.9312H228.801L227.028 96.4823C226.863 96.9087 226.698 97.259 226.534 97.5332C226.369 97.8135 226.193 98.0328 226.004 98.1912C225.815 98.3556 225.605 98.4684 225.373 98.5293C225.147 98.5903 224.882 98.6207 224.578 98.6207C224.444 98.6207 224.294 98.6086 224.13 98.5842C223.971 98.5598 223.834 98.5262 223.718 98.4835ZM231.126 93.4299V96.5919H229.307V91.9312H233.448V93.4299H231.126ZM237.053 94.8738V94.7093C236.998 94.6972 236.941 94.688 236.88 94.6819C236.825 94.6697 236.764 94.6636 236.697 94.6636C236.63 94.6575 236.56 94.6545 236.486 94.6545C236.413 94.6484 236.334 94.6454 236.249 94.6454C236.084 94.6454 235.947 94.6545 235.838 94.6728C235.728 94.685 235.636 94.7093 235.563 94.7459C235.496 94.7764 235.447 94.816 235.417 94.8647C235.387 94.9135 235.371 94.9683 235.371 95.0292C235.371 95.0901 235.384 95.145 235.408 95.1937C235.438 95.2424 235.481 95.2851 235.536 95.3216C235.597 95.3582 235.676 95.3856 235.774 95.4039C235.877 95.4222 235.999 95.4313 236.139 95.4313C236.298 95.4313 236.432 95.4191 236.541 95.3947C236.657 95.3704 236.752 95.3338 236.825 95.2851C236.904 95.2303 236.962 95.1693 236.998 95.1023C237.035 95.0353 237.053 94.9591 237.053 94.8738ZM238.872 93.7589V96.5919H237.163V95.9156H237.136C237.087 96.007 237.014 96.0984 236.916 96.1898C236.819 96.2751 236.697 96.3543 236.551 96.4274C236.404 96.5005 236.234 96.5615 236.039 96.6102C235.85 96.6589 235.633 96.6833 235.39 96.6833C235.067 96.6833 234.789 96.6498 234.558 96.5828C234.326 96.5158 234.134 96.4213 233.982 96.2995C233.829 96.1776 233.714 96.0284 233.634 95.8517C233.561 95.6689 233.525 95.4648 233.525 95.2394C233.525 94.9896 233.574 94.7733 233.671 94.5905C233.769 94.4078 233.915 94.2555 234.11 94.1336C234.311 94.0117 234.564 93.9234 234.868 93.8686C235.179 93.8137 235.548 93.7863 235.975 93.7863C236.084 93.7863 236.194 93.7894 236.304 93.7955C236.413 93.8016 236.514 93.8077 236.605 93.8137C236.703 93.8198 236.788 93.829 236.861 93.8412C236.941 93.8473 237.005 93.8534 237.053 93.8594V93.7041C237.053 93.6249 237.035 93.5548 236.998 93.4939C236.968 93.4269 236.91 93.372 236.825 93.3294C236.746 93.2807 236.636 93.2441 236.496 93.2197C236.356 93.1954 236.176 93.1832 235.956 93.1832C235.774 93.1832 235.591 93.1954 235.408 93.2197C235.231 93.238 235.061 93.2654 234.896 93.302C234.731 93.3385 234.576 93.3781 234.43 93.4208C234.29 93.4634 234.165 93.5091 234.055 93.5579V92.1871C234.171 92.1505 234.308 92.1109 234.466 92.0683C234.625 92.0195 234.799 91.9769 234.987 91.9403C235.182 91.9038 235.393 91.8733 235.618 91.8489C235.844 91.8185 236.078 91.8032 236.322 91.8032C236.761 91.8032 237.142 91.8367 237.465 91.9038C237.788 91.9708 238.053 92.0804 238.26 92.2327C238.473 92.3851 238.629 92.5861 238.726 92.8359C238.824 93.0857 238.872 93.3934 238.872 93.7589Z" fill="white"/>
<path d="M151.528 94.8736V94.7091C151.474 94.6969 151.416 94.6878 151.355 94.6817C151.3 94.6695 151.239 94.6634 151.172 94.6634C151.105 94.6573 151.035 94.6543 150.962 94.6543C150.889 94.6482 150.809 94.6452 150.724 94.6452C150.56 94.6452 150.422 94.6543 150.313 94.6726C150.203 94.6848 150.112 94.7091 150.038 94.7457C149.971 94.7762 149.923 94.8158 149.892 94.8645C149.862 94.9132 149.847 94.9681 149.847 95.029C149.847 95.0899 149.859 95.1448 149.883 95.1935C149.914 95.2422 149.956 95.2849 150.011 95.3214C150.072 95.358 150.151 95.3854 150.249 95.4037C150.352 95.422 150.474 95.4311 150.614 95.4311C150.773 95.4311 150.907 95.4189 151.017 95.3945C151.132 95.3702 151.227 95.3336 151.3 95.2849C151.379 95.2301 151.437 95.1691 151.474 95.1021C151.51 95.0351 151.528 94.9589 151.528 94.8736ZM153.348 93.7587V96.5917H151.638V95.9154H151.611C151.562 96.0068 151.489 96.0982 151.391 96.1896C151.294 96.2749 151.172 96.3541 151.026 96.4272C150.879 96.5003 150.709 96.5612 150.514 96.61C150.325 96.6587 150.109 96.6831 149.865 96.6831C149.542 96.6831 149.265 96.6496 149.033 96.5826C148.801 96.5155 148.609 96.4211 148.457 96.2993C148.305 96.1774 148.189 96.0282 148.11 95.8515C148.037 95.6687 148 95.4646 148 95.2392C148 94.9894 148.049 94.7731 148.146 94.5903C148.244 94.4076 148.39 94.2553 148.585 94.1334C148.786 94.0115 149.039 93.9232 149.344 93.8684C149.655 93.8135 150.023 93.7861 150.45 93.7861C150.56 93.7861 150.669 93.7892 150.779 93.7953C150.889 93.8014 150.989 93.8074 151.081 93.8135C151.178 93.8196 151.263 93.8288 151.337 93.841C151.416 93.847 151.48 93.8531 151.528 93.8592V93.7039C151.528 93.6247 151.51 93.5546 151.474 93.4937C151.443 93.4267 151.385 93.3718 151.3 93.3292C151.221 93.2805 151.111 93.2439 150.971 93.2195C150.831 93.1952 150.651 93.183 150.432 93.183C150.249 93.183 150.066 93.1952 149.883 93.2195C149.706 93.2378 149.536 93.2652 149.371 93.3018C149.207 93.3383 149.051 93.3779 148.905 93.4206C148.765 93.4632 148.64 93.5089 148.53 93.5577V92.1868C148.646 92.1503 148.783 92.1107 148.942 92.0681C149.1 92.0193 149.274 91.9767 149.463 91.9401C149.658 91.9035 149.868 91.8731 150.093 91.8487C150.319 91.8182 150.553 91.803 150.797 91.803C151.236 91.803 151.617 91.8365 151.94 91.9035C152.263 91.9706 152.528 92.0802 152.735 92.2325C152.948 92.3849 153.104 92.5859 153.201 92.8357C153.299 93.0855 153.348 93.3932 153.348 93.7587ZM156.091 89.7377V96.5917H154.271V89.7377H156.091ZM160.366 94.8736V94.7091C160.311 94.6969 160.253 94.6878 160.192 94.6817C160.138 94.6695 160.077 94.6634 160.01 94.6634C159.943 94.6573 159.873 94.6543 159.799 94.6543C159.726 94.6482 159.647 94.6452 159.562 94.6452C159.397 94.6452 159.26 94.6543 159.15 94.6726C159.041 94.6848 158.949 94.7091 158.876 94.7457C158.809 94.7762 158.76 94.8158 158.73 94.8645C158.699 94.9132 158.684 94.9681 158.684 95.029C158.684 95.0899 158.696 95.1448 158.721 95.1935C158.751 95.2422 158.794 95.2849 158.849 95.3214C158.91 95.358 158.989 95.3854 159.086 95.4037C159.19 95.422 159.312 95.4311 159.452 95.4311C159.61 95.4311 159.745 95.4189 159.854 95.3945C159.97 95.3702 160.065 95.3336 160.138 95.2849C160.217 95.2301 160.275 95.1691 160.311 95.1021C160.348 95.0351 160.366 94.9589 160.366 94.8736ZM162.185 93.7587V96.5917H160.476V95.9154H160.448C160.4 96.0068 160.327 96.0982 160.229 96.1896C160.132 96.2749 160.01 96.3541 159.863 96.4272C159.717 96.5003 159.546 96.5612 159.351 96.61C159.163 96.6587 158.946 96.6831 158.702 96.6831C158.379 96.6831 158.102 96.6496 157.871 96.5826C157.639 96.5155 157.447 96.4211 157.295 96.2993C157.142 96.1774 157.027 96.0282 156.947 95.8515C156.874 95.6687 156.838 95.4646 156.838 95.2392C156.838 94.9894 156.886 94.7731 156.984 94.5903C157.081 94.4076 157.228 94.2553 157.423 94.1334C157.624 94.0115 157.877 93.9232 158.181 93.8684C158.492 93.8135 158.861 93.7861 159.288 93.7861C159.397 93.7861 159.507 93.7892 159.617 93.7953C159.726 93.8014 159.827 93.8074 159.918 93.8135C160.016 93.8196 160.101 93.8288 160.174 93.841C160.253 93.847 160.317 93.8531 160.366 93.8592V93.7039C160.366 93.6247 160.348 93.5546 160.311 93.4937C160.281 93.4267 160.223 93.3718 160.138 93.3292C160.058 93.2805 159.949 93.2439 159.809 93.2195C159.668 93.1952 159.489 93.183 159.269 93.183C159.086 93.183 158.904 93.1952 158.721 93.2195C158.544 93.2378 158.373 93.2652 158.209 93.3018C158.044 93.3383 157.889 93.3779 157.743 93.4206C157.602 93.4632 157.478 93.5089 157.368 93.5577V92.1868C157.484 92.1503 157.621 92.1107 157.779 92.0681C157.938 92.0193 158.111 91.9767 158.3 91.9401C158.495 91.9035 158.706 91.8731 158.931 91.8487C159.156 91.8182 159.391 91.803 159.635 91.803C160.074 91.803 160.455 91.8365 160.778 91.9035C161.1 91.9706 161.366 92.0802 161.573 92.2325C161.786 92.3849 161.941 92.5859 162.039 92.8357C162.137 93.0855 162.185 93.3932 162.185 93.7587ZM164.892 96.0068V96.5917H163.109V89.7377H164.928V92.5798H164.956C165.023 92.4823 165.108 92.3879 165.212 92.2965C165.321 92.2051 165.449 92.1259 165.595 92.0589C165.748 91.9919 165.922 91.9401 166.117 91.9035C166.312 91.8609 166.534 91.8396 166.784 91.8396C167.137 91.8396 167.457 91.8853 167.744 91.9767C168.03 92.0681 168.271 92.2112 168.466 92.4062C168.667 92.595 168.819 92.8387 168.923 93.1373C169.033 93.4297 169.088 93.777 169.088 94.1791C169.088 94.5934 169.039 94.9559 168.941 95.2666C168.844 95.5712 168.694 95.8302 168.493 96.0434C168.292 96.2566 168.042 96.4181 167.744 96.5277C167.451 96.6313 167.104 96.6831 166.702 96.6831C166.47 96.6831 166.257 96.6618 166.062 96.6191C165.873 96.5826 165.705 96.5338 165.559 96.4729C165.413 96.412 165.285 96.3419 165.175 96.2627C165.071 96.1835 164.983 96.0982 164.91 96.0068H164.892ZM166.08 95.3214C166.269 95.3214 166.43 95.3031 166.564 95.2666C166.705 95.224 166.82 95.16 166.912 95.0747C167.003 94.9833 167.07 94.8675 167.113 94.7274C167.156 94.5873 167.177 94.4167 167.177 94.2156C167.177 94.0329 167.149 93.8775 167.095 93.7496C167.046 93.6155 166.973 93.5089 166.875 93.4297C166.778 93.3505 166.662 93.2926 166.528 93.2561C166.394 93.2195 166.245 93.2012 166.08 93.2012C165.897 93.2012 165.733 93.2226 165.586 93.2652C165.446 93.3079 165.327 93.3749 165.23 93.4663C165.132 93.5516 165.056 93.6612 165.001 93.7953C164.953 93.9293 164.928 94.0877 164.928 94.2705C164.928 94.4411 164.953 94.5934 165.001 94.7274C165.056 94.8554 165.132 94.965 165.23 95.0564C165.333 95.1417 165.455 95.2087 165.595 95.2574C165.742 95.3001 165.903 95.3214 166.08 95.3214ZM169.804 94.9193V91.931H171.632V94.3436C171.632 94.5203 171.647 94.6695 171.677 94.7914C171.708 94.9071 171.757 94.9985 171.824 95.0655C171.891 95.1326 171.976 95.1813 172.079 95.2118C172.189 95.2361 172.323 95.2483 172.482 95.2483C172.665 95.2483 172.82 95.227 172.948 95.1844C173.082 95.1417 173.192 95.0747 173.277 94.9833C173.363 94.8858 173.423 94.764 173.46 94.6178C173.502 94.4715 173.524 94.2949 173.524 94.0877V91.931H175.343V96.5917H173.524V95.9337H173.506C173.408 96.0678 173.295 96.1835 173.167 96.281C173.039 96.3724 172.899 96.4485 172.747 96.5095C172.595 96.5704 172.43 96.613 172.253 96.6374C172.083 96.6679 171.906 96.6831 171.723 96.6831C171.418 96.6831 171.147 96.6496 170.91 96.5826C170.678 96.5095 170.48 96.4028 170.315 96.2627C170.151 96.1165 170.023 95.9337 169.931 95.7144C169.846 95.489 169.804 95.224 169.804 94.9193ZM180.289 92.5798V91.931H182.071V96.2627C182.071 96.744 181.98 97.134 181.797 97.4325C181.62 97.7371 181.38 97.9778 181.075 98.1544C180.776 98.331 180.429 98.4529 180.033 98.5199C179.643 98.5869 179.232 98.6205 178.799 98.6205C178.586 98.6205 178.375 98.6113 178.168 98.593C177.961 98.5808 177.763 98.5625 177.574 98.5382C177.385 98.5138 177.211 98.4865 177.053 98.456C176.894 98.4317 176.763 98.4012 176.66 98.3646V96.9116C176.751 96.942 176.861 96.9725 176.989 97.003C177.123 97.0395 177.269 97.07 177.428 97.0943C177.586 97.1248 177.76 97.1492 177.949 97.1674C178.138 97.1857 178.342 97.1949 178.561 97.1949C178.896 97.1949 179.171 97.1705 179.384 97.1218C179.597 97.073 179.768 96.9999 179.896 96.9024C180.024 96.811 180.112 96.6983 180.161 96.5643C180.216 96.4242 180.243 96.2627 180.243 96.0799V95.8423H180.225C180.158 95.9398 180.066 96.0373 179.951 96.1348C179.841 96.2262 179.713 96.3084 179.567 96.3815C179.427 96.4485 179.268 96.5003 179.091 96.5369C178.921 96.5734 178.741 96.5917 178.552 96.5917C178.168 96.5917 177.824 96.5491 177.519 96.4638C177.214 96.3785 176.955 96.2475 176.742 96.0708C176.535 95.888 176.373 95.6535 176.258 95.3671C176.142 95.0808 176.084 94.7365 176.084 94.3344C176.084 93.9202 176.133 93.5607 176.23 93.2561C176.334 92.9454 176.486 92.6864 176.687 92.4793C176.888 92.2661 177.141 92.1076 177.446 92.0041C177.757 91.8944 178.116 91.8396 178.525 91.8396C178.75 91.8396 178.954 91.8609 179.137 91.9035C179.32 91.9462 179.481 92.001 179.622 92.0681C179.768 92.1351 179.896 92.2143 180.006 92.3057C180.115 92.391 180.204 92.4823 180.271 92.5798H180.289ZM179.091 93.2012C178.915 93.2012 178.756 93.2226 178.616 93.2652C178.476 93.3018 178.36 93.3627 178.269 93.448C178.177 93.5272 178.107 93.6308 178.058 93.7587C178.016 93.8867 177.994 94.039 177.994 94.2156C177.994 94.3923 178.022 94.5446 178.077 94.6726C178.132 94.8005 178.208 94.9071 178.305 94.9924C178.403 95.0777 178.518 95.1417 178.653 95.1844C178.787 95.2209 178.939 95.2392 179.11 95.2392C179.292 95.2392 179.454 95.2148 179.594 95.1661C179.734 95.1173 179.853 95.0503 179.951 94.965C180.048 94.8797 180.121 94.7762 180.17 94.6543C180.219 94.5264 180.243 94.3801 180.243 94.2156C180.243 94.0572 180.219 93.9141 180.17 93.7861C180.127 93.6582 180.057 93.5516 179.96 93.4663C179.868 93.381 179.75 93.317 179.603 93.2744C179.457 93.2256 179.286 93.2012 179.091 93.2012ZM186.352 94.8736V94.7091C186.298 94.6969 186.24 94.6878 186.179 94.6817C186.124 94.6695 186.063 94.6634 185.996 94.6634C185.929 94.6573 185.859 94.6543 185.786 94.6543C185.713 94.6482 185.633 94.6452 185.548 94.6452C185.383 94.6452 185.246 94.6543 185.137 94.6726C185.027 94.6848 184.936 94.7091 184.862 94.7457C184.795 94.7762 184.747 94.8158 184.716 94.8645C184.686 94.9132 184.671 94.9681 184.671 95.029C184.671 95.0899 184.683 95.1448 184.707 95.1935C184.738 95.2422 184.78 95.2849 184.835 95.3214C184.896 95.358 184.975 95.3854 185.073 95.4037C185.176 95.422 185.298 95.4311 185.438 95.4311C185.597 95.4311 185.731 95.4189 185.841 95.3945C185.956 95.3702 186.051 95.3336 186.124 95.2849C186.203 95.2301 186.261 95.1691 186.298 95.1021C186.334 95.0351 186.352 94.9589 186.352 94.8736ZM188.172 93.7587V96.5917H186.462V95.9154H186.435C186.386 96.0068 186.313 96.0982 186.215 96.1896C186.118 96.2749 185.996 96.3541 185.85 96.4272C185.703 96.5003 185.533 96.5612 185.338 96.61C185.149 96.6587 184.933 96.6831 184.689 96.6831C184.366 96.6831 184.088 96.6496 183.857 96.5826C183.625 96.5155 183.433 96.4211 183.281 96.2993C183.129 96.1774 183.013 96.0282 182.934 95.8515C182.861 95.6687 182.824 95.4646 182.824 95.2392C182.824 94.9894 182.873 94.7731 182.97 94.5903C183.068 94.4076 183.214 94.2553 183.409 94.1334C183.61 94.0115 183.863 93.9232 184.168 93.8684C184.479 93.8135 184.847 93.7861 185.274 93.7861C185.383 93.7861 185.493 93.7892 185.603 93.7953C185.713 93.8014 185.813 93.8074 185.905 93.8135C186.002 93.8196 186.087 93.8288 186.161 93.841C186.24 93.847 186.304 93.8531 186.352 93.8592V93.7039C186.352 93.6247 186.334 93.5546 186.298 93.4937C186.267 93.4267 186.209 93.3718 186.124 93.3292C186.045 93.2805 185.935 93.2439 185.795 93.2195C185.655 93.1952 185.475 93.183 185.255 93.183C185.073 93.183 184.89 93.1952 184.707 93.2195C184.53 93.2378 184.36 93.2652 184.195 93.3018C184.031 93.3383 183.875 93.3779 183.729 93.4206C183.589 93.4632 183.464 93.5089 183.354 93.5577V92.1868C183.47 92.1503 183.607 92.1107 183.765 92.0681C183.924 92.0193 184.098 91.9767 184.287 91.9401C184.482 91.9035 184.692 91.8731 184.917 91.8487C185.143 91.8182 185.377 91.803 185.621 91.803C186.06 91.803 186.441 91.8365 186.764 91.9035C187.087 91.9706 187.352 92.0802 187.559 92.2325C187.772 92.3849 187.928 92.5859 188.025 92.8357C188.123 93.0855 188.172 93.3932 188.172 93.7587Z" fill="white"/>
<path d="M201.606 100.008V104.464H200.835V100.715H198.938V104.464H198.161V100.008H201.606ZM204.581 103.841C204.781 103.841 204.955 103.809 205.103 103.745C205.256 103.681 205.384 103.584 205.485 103.452C205.592 103.316 205.67 103.149 205.721 102.949C205.772 102.75 205.797 102.512 205.797 102.236C205.797 101.952 205.77 101.708 205.715 101.504C205.659 101.301 205.577 101.135 205.466 101.008C205.36 100.876 205.226 100.781 205.065 100.721C204.908 100.662 204.723 100.632 204.511 100.632C204.32 100.632 204.146 100.664 203.989 100.727C203.836 100.787 203.704 100.882 203.594 101.014C203.488 101.145 203.405 101.313 203.346 101.517C203.291 101.716 203.263 101.956 203.263 102.236C203.263 102.512 203.293 102.752 203.352 102.956C203.412 103.155 203.497 103.321 203.607 103.452C203.721 103.584 203.859 103.681 204.021 103.745C204.182 103.809 204.369 103.841 204.581 103.841ZM204.537 104.535C204.197 104.535 203.898 104.484 203.639 104.382C203.38 104.28 203.161 104.134 202.983 103.943C202.804 103.747 202.668 103.507 202.575 103.223C202.486 102.939 202.442 102.61 202.442 102.236C202.442 101.863 202.488 101.534 202.581 101.249C202.679 100.965 202.817 100.727 202.995 100.536C203.174 100.341 203.39 100.193 203.645 100.091C203.904 99.9891 204.193 99.938 204.511 99.938C204.868 99.938 205.178 99.9912 205.441 100.097C205.704 100.203 205.923 100.356 206.097 100.556C206.271 100.755 206.4 100.997 206.485 101.281C206.574 101.561 206.619 101.88 206.619 102.236C206.619 102.631 206.57 102.973 206.472 103.261C206.375 103.546 206.235 103.783 206.052 103.974C205.874 104.161 205.655 104.301 205.396 104.394C205.141 104.488 204.855 104.535 204.537 104.535ZM210.848 100.008V104.464H210.071V100.715H208.708C208.699 101.317 208.68 101.856 208.651 102.332C208.625 102.803 208.568 103.202 208.479 103.529C208.389 103.851 208.258 104.097 208.084 104.267C207.914 104.437 207.676 104.522 207.371 104.522C207.311 104.522 207.262 104.518 207.224 104.509C207.186 104.505 207.143 104.494 207.097 104.477V103.752C207.127 103.756 207.154 103.76 207.179 103.764C207.209 103.764 207.239 103.764 207.269 103.764C207.383 103.764 207.481 103.724 207.562 103.643C207.646 103.558 207.714 103.401 207.765 103.172C207.82 102.943 207.861 102.629 207.886 102.23C207.916 101.827 207.935 101.307 207.944 100.67L207.95 100.008H210.848ZM215.433 100.008V104.464H214.663V100.848H214.822L212.689 104.464H211.842V100.008H212.619V103.624H212.453L214.593 100.008H215.433ZM218.112 100.727V104.464H217.342V100.727H216.049V100.008H219.405V100.727H218.112ZM222.694 103.77V104.464H220.007V100.008H222.694V100.702H220.784V101.842H222.497V102.497H220.784V103.77H222.694ZM227.141 104.464H226.18L225.046 102.542H225.237L224.11 104.464H223.187L224.613 102.154L223.321 100.008H224.244L225.256 101.803H225.072L226.123 100.008H227.014L225.696 102.141L227.141 104.464Z" fill="white"/>
<path d="M159.257 100.702V102.255H159.875C160.036 102.255 160.172 102.24 160.282 102.211C160.393 102.177 160.482 102.128 160.55 102.064C160.622 102.001 160.673 101.92 160.703 101.822C160.737 101.725 160.754 101.608 160.754 101.472C160.754 101.336 160.737 101.22 160.703 101.122C160.673 101.024 160.622 100.944 160.55 100.88C160.482 100.816 160.393 100.772 160.282 100.747C160.172 100.717 160.034 100.702 159.868 100.702H159.257ZM159.27 102.955V104.464H158.493V100.008H159.939C160.21 100.008 160.446 100.036 160.645 100.091C160.845 100.146 161.013 100.235 161.148 100.358C161.288 100.477 161.392 100.628 161.46 100.81C161.528 100.988 161.562 101.203 161.562 101.453C161.562 101.691 161.528 101.903 161.46 102.09C161.392 102.276 161.288 102.436 161.148 102.567C161.008 102.695 160.832 102.792 160.62 102.86C160.412 102.924 160.164 102.955 159.875 102.955H159.27ZM164.254 103.84C164.454 103.84 164.628 103.809 164.776 103.745C164.929 103.681 165.056 103.584 165.158 103.452C165.264 103.316 165.343 103.149 165.394 102.949C165.445 102.75 165.47 102.512 165.47 102.236C165.47 101.952 165.443 101.708 165.388 101.504C165.332 101.3 165.25 101.135 165.139 101.007C165.033 100.876 164.899 100.781 164.738 100.721C164.581 100.662 164.396 100.632 164.184 100.632C163.993 100.632 163.819 100.664 163.662 100.727C163.509 100.787 163.377 100.882 163.267 101.014C163.161 101.145 163.078 101.313 163.019 101.517C162.964 101.716 162.936 101.956 162.936 102.236C162.936 102.512 162.966 102.752 163.025 102.955C163.085 103.155 163.169 103.32 163.28 103.452C163.394 103.584 163.532 103.681 163.694 103.745C163.855 103.809 164.042 103.84 164.254 103.84ZM164.21 104.534C163.87 104.534 163.571 104.483 163.312 104.381C163.053 104.28 162.834 104.133 162.656 103.942C162.477 103.747 162.342 103.507 162.248 103.223C162.159 102.938 162.115 102.61 162.115 102.236C162.115 101.863 162.161 101.534 162.255 101.249C162.352 100.965 162.49 100.727 162.669 100.536C162.847 100.341 163.063 100.193 163.318 100.091C163.577 99.9889 163.866 99.938 164.184 99.938C164.541 99.938 164.851 99.991 165.114 100.097C165.377 100.203 165.596 100.356 165.77 100.556C165.944 100.755 166.073 100.997 166.158 101.281C166.247 101.561 166.292 101.88 166.292 102.236C166.292 102.631 166.243 102.973 166.145 103.261C166.048 103.545 165.908 103.783 165.725 103.974C165.547 104.161 165.328 104.301 165.069 104.394C164.814 104.488 164.528 104.534 164.21 104.534ZM169.754 103.745V104.464H167.118V100.008H167.895V103.745H169.754ZM171.564 102.688V104.464H170.794V102.688L169.227 100.008H170.131L171.284 102.013H171.099L172.22 100.008H173.124L171.564 102.688ZM175.497 100.727V104.464H174.726V100.727H173.433V100.008H176.789V100.727H175.497ZM180.078 103.77V104.464H177.391V100.008H180.078V100.702H178.168V101.842H179.881V102.497H178.168V103.77H180.078ZM183.812 103.63V104.362C183.693 104.418 183.549 104.46 183.379 104.49C183.209 104.519 183.001 104.534 182.755 104.534C182.403 104.534 182.091 104.488 181.819 104.394C181.547 104.297 181.318 104.155 181.131 103.968C180.949 103.777 180.811 103.543 180.717 103.267C180.624 102.987 180.577 102.663 180.577 102.293C180.577 101.907 180.622 101.568 180.711 101.275C180.804 100.982 180.944 100.736 181.131 100.536C181.322 100.337 181.558 100.188 181.838 100.091C182.123 99.9889 182.454 99.938 182.831 99.938C182.946 99.938 183.05 99.9444 183.143 99.9572C183.241 99.9656 183.33 99.9763 183.411 99.9889C183.496 100.002 183.57 100.017 183.634 100.033C183.697 100.05 183.755 100.067 183.806 100.084V100.804C183.738 100.778 183.663 100.757 183.583 100.74C183.506 100.723 183.428 100.708 183.347 100.696C183.271 100.679 183.196 100.668 183.124 100.664C183.052 100.655 182.986 100.651 182.927 100.651C182.664 100.651 182.434 100.683 182.239 100.747C182.048 100.806 181.889 100.901 181.762 101.033C181.639 101.16 181.547 101.324 181.488 101.523C181.428 101.723 181.399 101.96 181.399 102.236C181.399 102.504 181.43 102.737 181.494 102.936C181.558 103.132 181.653 103.295 181.781 103.427C181.908 103.558 182.067 103.658 182.258 103.726C182.449 103.789 182.674 103.821 182.933 103.821C183.082 103.821 183.224 103.809 183.36 103.783C183.5 103.753 183.651 103.702 183.812 103.63ZM188.239 100.008V104.464H187.463V102.516H185.425V104.464H184.648V100.008H185.425V101.816H187.463V100.008H188.239Z" fill="white"/>
<path d="M196.096 79.5001C195.103 78.6317 194.116 77.8946 193.17 77.3049C192.224 77.8946 191.238 78.6317 190.244 79.5001C191.189 80.0319 192.176 80.7166 193.17 81.5315C194.164 80.7166 195.151 80.0319 196.096 79.5001Z" fill="white"/>
<path d="M198.164 86.7429C199.113 85.9872 200.051 85.3518 200.95 84.8565C200.378 84.0671 199.753 83.2796 199.081 82.507C199.026 82.4445 198.971 82.3831 198.916 82.3209C198.524 82.5304 198.12 82.7691 197.707 83.0364C197.155 83.3942 196.597 83.7963 196.04 84.2376C196.307 84.5235 196.572 84.8166 196.834 85.118C197.298 85.6504 197.742 86.1937 198.164 86.7429Z" fill="white"/>
<path d="M193.414 81.7323C194.221 82.4102 195.031 83.1721 195.826 84.0067C196.807 83.2269 197.777 82.5761 198.703 82.0767C197.925 81.214 197.134 80.4251 196.344 79.718C196.018 79.8989 195.684 80.0994 195.345 80.3192C194.705 80.7335 194.059 81.207 193.414 81.7323Z" fill="white"/>
<path d="M190.299 84.2376C189.742 83.7962 189.184 83.3939 188.632 83.0363C188.219 82.7691 187.815 82.5304 187.423 82.3209C187.368 82.3827 187.313 82.4443 187.259 82.5071C186.586 83.2796 185.961 84.0671 185.389 84.8567C186.288 85.3519 187.227 85.9867 188.175 86.743C188.597 86.1936 189.041 85.6505 189.505 85.1178C189.768 84.8166 190.033 84.5229 190.299 84.2376Z" fill="white"/>
<path d="M194.801 88.7018C194.775 88.6713 194.75 88.6404 194.725 88.6099C194.692 88.5703 194.658 88.5308 194.625 88.4913C194.587 88.446 194.549 88.4009 194.511 88.3557C194.485 88.3261 194.46 88.2964 194.435 88.2669C194.37 88.1904 194.304 88.1139 194.238 88.0376C194.014 87.7808 193.788 87.5293 193.56 87.2831C193.556 87.2792 193.553 87.2754 193.549 87.2719C193.496 87.2142 193.442 87.1566 193.388 87.0995C193.316 87.0218 193.243 86.9453 193.169 86.8688C193.039 87.0051 192.909 87.1432 192.779 87.2831C192.551 87.5294 192.325 87.7808 192.102 88.0376C192.035 88.1139 191.969 88.1904 191.904 88.2671C191.879 88.2964 191.854 88.3259 191.829 88.3551C191.79 88.4005 191.752 88.446 191.713 88.4919C191.68 88.5308 191.647 88.5701 191.615 88.6096C191.589 88.6404 191.563 88.6714 191.538 88.7023C191.36 88.9175 191.186 89.1337 191.015 89.3513C191.382 89.7346 191.747 90.1333 192.108 90.5467C192.174 90.6228 192.24 90.6994 192.306 90.776C192.332 90.8067 192.358 90.8379 192.385 90.8686C192.421 90.9119 192.458 90.955 192.494 90.9982C192.53 91.0409 192.566 91.0835 192.601 91.1259C192.621 91.1496 192.64 91.1728 192.659 91.1962C192.832 91.4053 193.003 91.6155 193.17 91.827C193.337 91.6155 193.507 91.4049 193.68 91.1958C193.7 91.1727 193.719 91.1496 193.738 91.1265C193.774 91.0835 193.81 91.0406 193.846 90.9978C193.882 90.9546 193.918 90.9119 193.954 90.8691C193.981 90.8381 194.007 90.8069 194.034 90.776C194.099 90.6994 194.165 90.6228 194.232 90.5467C194.592 90.1332 194.957 89.7346 195.325 89.3513C195.154 89.1338 194.979 88.9171 194.801 88.7018H194.801Z" fill="white"/>
<path d="M187.636 82.0768C188.562 82.5762 189.532 83.2269 190.513 84.0067C191.308 83.1718 192.118 82.4102 192.925 81.7323C192.28 81.207 191.634 80.7331 190.994 80.3193C190.655 80.0994 190.321 79.8989 189.995 79.718C189.206 80.4251 188.414 81.2141 187.636 82.0768Z" fill="white"/>
<path d="M13.2922 87.623C14.0103 88.7274 14.4362 90.0398 14.456 91.4462C14.3372 93.3479 12.7871 95.527 10.3357 96.9433C7.88427 98.3597 5.22486 98.6172 3.52125 97.7704C2.2683 97.0226 1.25802 95.9033 0.643928 94.5613C0.673642 94.6207 0.703357 94.6801 0.733071 94.7395C0.733071 94.7445 0.738023 94.7544 0.742975 94.7594C1.00545 95.215 1.39173 95.5715 1.87706 95.8291C3.57572 96.7403 6.45304 96.4283 9.14217 94.8733C11.8313 93.3182 13.5399 90.9807 13.6042 89.0542C13.6191 88.5392 13.5201 88.0539 13.2922 87.6181M7.22561 84.3297C8.45875 84.3297 9.6176 84.6367 10.6328 85.1815C10.8755 85.3449 11.0736 85.5331 11.2172 85.7807C12.0888 87.2862 10.3307 89.9259 7.29989 91.679C4.26905 93.4321 1.1045 93.6302 0.237835 92.1247C0.0942168 91.8721 0.0149791 91.5998 0.00012207 91.2977V91.3918C0.0298362 90.0001 0.455739 88.7026 1.16393 87.6131C0.896498 88.0786 0.797451 88.5144 0.906403 88.8611C0.92126 88.9057 0.94107 88.9502 0.960879 88.9948C1.45611 89.8565 3.46677 89.6287 5.45266 88.4847C7.43361 87.3407 8.63703 85.7114 8.14179 84.8497C8.11703 84.8101 8.08732 84.7705 8.05265 84.7358C7.8298 84.4931 7.46332 84.3644 7.00275 84.3396C7.07704 84.3396 7.15132 84.3396 7.22561 84.3396V84.3297ZM55.0852 94.8237L55.1099 91.2927C55.1347 89.0542 53.7678 88.1381 51.777 88.1381C50.1378 88.1381 48.6471 89.0344 48.4193 91.1194H50.1576C50.2566 90.2973 50.9004 90.0249 51.772 90.0249C52.6437 90.0249 53.2627 90.2973 53.3518 91.2135L51.1282 92.1098C49.6128 92.7289 48.4688 93.4272 48.4688 94.8931C48.4688 96.359 49.3157 97.3791 51.0044 97.3791C52.1732 97.3791 52.9111 96.8294 53.5004 95.7597C53.5896 96.8294 54.2977 97.3049 55.5259 97.3049H56.0261V95.5913H55.8775C55.3031 95.5913 55.0802 95.3685 55.0802 94.8188L55.0852 94.8237ZM51.6779 95.522C50.8311 95.522 50.212 95.2992 50.212 94.5266C50.212 93.8531 50.732 93.5559 51.6284 93.1845L53.3617 92.4664L53.3419 94.8782C53.0448 95.2546 52.4456 95.527 51.6779 95.527V95.522ZM40.555 93.7837C40.3569 94.7792 40.0845 95.2001 39.5348 95.2001C39.2376 95.2001 39.0148 95.1754 38.8662 95.1258V97.191C39.0891 97.29 39.2872 97.3643 39.7626 97.3643C40.7085 97.3643 41.377 96.8195 41.7039 95.9727C41.902 95.4527 42.0258 94.7296 42.1249 93.8085C42.2239 92.8874 42.2982 91.6691 42.2982 90.2279H44.71V97.2405H46.5225V88.3361H40.7828C40.7828 91.0203 40.7085 92.7834 40.5599 93.7788L40.555 93.7837ZM59.5027 94.4424V88.3361H57.6852V97.2355H59.577L63.2318 91.0253V97.2355H65.0444V88.3361H63.1575L59.5027 94.4424ZM72.671 88.3361V91.6641H69.14V88.3361H67.3274V97.2355H69.14V93.5064H72.671V97.2355H74.4885V88.3361H72.671ZM24.2221 88.4104C22.7859 88.4104 21.5577 89.079 20.9238 90.322C21.013 88.3064 21.4141 87.108 23.7516 86.796L27.3817 86.2958L27.2331 84.3049L23.4545 84.8249C20.1958 85.2706 19.2796 87.7815 19.2796 91.7335C19.2796 95.1902 20.8446 97.399 23.7566 97.399C26.6686 97.399 28.1295 95.21 28.1295 92.6496C28.1295 90.0893 26.416 88.4005 24.227 88.4005L24.2221 88.4104ZM23.7516 95.4477C22.1124 95.4477 21.1417 94.2542 21.1417 92.4664V91.5453C21.4884 90.847 22.4095 90.3022 23.7516 90.3022C25.168 90.3022 26.2625 90.9708 26.2625 92.6645C26.2625 94.3582 25.3958 95.4477 23.7516 95.4477ZM31.7497 94.4424V88.3361H29.9371V97.2355H31.8289L35.4837 91.0253V97.2355H37.2963V88.3361H35.4095L31.7546 94.4424H31.7497ZM61.3449 87.5685C62.8108 87.5685 63.8558 86.796 64.0539 85.1072H62.6127C62.4642 85.7015 62.1126 86.0036 61.3449 86.0036C60.5773 86.0036 60.1762 85.7064 60.0524 85.1072H58.6112C58.8093 86.796 59.879 87.5685 61.3449 87.5685Z" fill="white"/>
<path d="M6.64828 32.1522V37.3562H8.34626V32.1522H9.99466V30.6121H4.99988V32.1522H6.64828Z" fill="white"/>
<path d="M25.4494 35.0282H23.9123L24.7057 33.5253L25.4494 35.0282ZM26.404 37.3509H28.0898L24.7057 30.5194L21.2843 37.3509H22.9702L23.3669 36.5063H26.0197L26.4163 37.3509H26.404Z" fill="white"/>
<path d="M51.9483 35.1469H50.4112L51.2046 33.644L51.9483 35.1469ZM52.9029 37.4696H54.5887L51.2046 30.6381L47.7832 37.4696H49.4691L49.8658 36.625H52.5186L52.9152 37.4696H52.9029Z" fill="white"/>
<path d="M66.4735 35.1469H64.9364L65.7297 33.644L66.4735 35.1469ZM67.428 37.4696H69.1139L65.7297 30.6381L62.3083 37.4696H63.9942L64.3909 36.625H67.0437L67.4404 37.4696H67.428Z" fill="white"/>
<path d="M15.039 25.4591C15.039 23.1488 18.262 23.1488 18.262 25.4591C18.262 27.7693 15.039 27.7942 15.039 25.4591ZM19.9355 25.4591C19.9355 21 13.3407 21 13.3407 25.4591C13.3407 29.9181 19.9231 29.9181 19.9231 25.4591H19.9355Z" fill="white"/>
<path d="M29.2541 25.4616C29.2541 23.1514 32.4772 23.1514 32.4772 25.4616C32.4772 27.7719 29.2541 27.7968 29.2541 25.4616ZM34.1506 25.4616C34.1506 21.015 27.5682 21.015 27.5682 25.4616C27.5682 29.9083 34.1506 29.9207 34.1506 25.4616Z" fill="white"/>
<path d="M23.7156 25.6098L25.3519 28.7895H27.1989L23.7279 22.1195L20.2942 28.7895L22.0916 28.8019L23.7156 25.6098Z" fill="white"/>
<path d="M8.39657 25.1391L5 22.1456V28.7784H6.82225V25.9712L8.40897 27.4742L9.99569 25.9712V28.7784H11.8179V22.1456L8.39657 25.1391Z" fill="white"/>
<path d="M13.9736 35.0282H12.4365L13.2298 33.5253L13.9736 35.0282ZM14.9281 37.3509H16.614L13.2298 30.5194L9.80847 37.3509H11.4944L11.891 36.5063H14.5438L14.9405 37.3509H14.9281Z" fill="white"/>
<path d="M35.5134 34.0385C35.5134 36.3115 37.2489 37.4666 38.9472 37.4542C40.3728 37.4542 41.8727 36.709 42.1206 34.8086H40.4347C40.2488 35.529 39.6662 35.8892 38.9472 35.8892C37.9307 35.8892 37.2861 35.0197 37.2861 34.0261C37.2861 32.9206 37.9431 32.1629 38.9472 32.1629C39.6662 32.1629 40.1744 32.4734 40.4099 33.1442H42.0958C41.8355 31.3556 40.3356 30.5979 38.9472 30.5979C37.2489 30.5979 35.5134 31.7406 35.5134 34.0261" fill="white"/>
<path fill-rule="evenodd" clip-rule="evenodd" d="M44.015 23.3754V22.0464L45.5769 21.3881L47.0893 22.0339L48.5892 21.3881L50.0272 22.0339L51.5271 21.3881V22.7171L50.0272 23.3878L48.5892 22.7171L47.0893 23.3754L45.5769 22.7171L44.015 23.3754Z" fill="white"/>
<path fill-rule="evenodd" clip-rule="evenodd" d="M44.015 25.7123V24.3833L45.5769 23.725L47.0893 24.3584L48.5892 23.725L50.0272 24.3584L51.5271 23.725V25.0416L50.0272 25.7247L48.5892 25.0416L47.0893 25.7123L45.5769 25.0416L44.015 25.7123Z" fill="white"/>
<path fill-rule="evenodd" clip-rule="evenodd" d="M44.015 28.0515V26.7225L45.5769 26.0641L47.0893 26.6976L48.5892 26.0641L50.0272 26.6976L51.5271 26.0641V27.3808L50.0272 28.0639L48.5892 27.3808L47.0893 28.0515L45.5769 27.3808L44.015 28.0515Z" fill="white"/>
<path d="M39.0323 24.6586L39.9992 26.621H38.0902L39.0199 24.6586H39.0323ZM37.5323 28.0619H40.619V28.8071H42.4784V26.6459H41.7719L39.0447 21.3049L36.3671 26.6459H35.6853V28.8071H37.5447V28.0619H37.5323Z" fill="white"/>
<path d="M56.7814 28.1326H58.5292V25.5615C58.6408 25.5615 58.7648 25.5366 58.8887 25.5242L60.3639 28.1326H62.2729L60.4631 24.8907C61.8019 24.0337 61.7523 22.7668 61.7523 21.3881H59.992C59.992 22.6053 60.0788 23.8474 58.5416 23.9343V21.3881H56.7938V23.9343C55.2566 23.8474 55.3434 22.6053 55.3434 21.3881H53.5831C53.5831 22.7668 53.5336 24.0337 54.8724 24.8907L53.0625 28.1326H54.9715L56.4467 25.5242C56.5706 25.549 56.6946 25.5615 56.8062 25.5615V28.1326H56.7814Z" fill="white"/>
<path d="M66.7322 24.9526C67.6742 24.9526 67.7362 26.5796 66.7322 26.5921C66.3232 26.5921 65.9018 26.5921 65.5052 26.5921V24.9526H66.7322ZM65.5052 21.3881H63.7825V28.1321C64.7492 28.1321 65.7531 28.1321 66.7446 28.1321C69.9671 28.1321 69.9671 23.4001 66.7446 23.4001H65.5052V21.3881Z" fill="white"/>
<path d="M44.4481 32.1025V37.4556H46.1957V32.1025H47.8936V30.6121H42.7501V32.1025H44.4481Z" fill="white"/>
<path d="M61.3176 30.6121H59.5328V33.0961H57.4258V30.6121H55.6411V37.4556H57.4258V34.7107H59.5328V37.4556H61.3176V30.6121Z" fill="white"/>
<path d="M18.0626 32.1522V37.3562H19.7606V32.1522H21.409V30.6121H16.4142V32.1522H18.0626Z" fill="white"/>
<path d="M32.4379 34.0897H31.2109V32.1646C31.6075 32.1646 32.0413 32.1646 32.4379 32.1646C33.4418 32.177 33.3799 34.0897 32.4379 34.0897ZM31.2109 37.3562V35.6298H32.4503C35.6728 35.6298 35.6728 30.6245 32.4503 30.6121C31.4588 30.6121 30.4549 30.6121 29.4882 30.6121V37.3562H31.2109Z" fill="white"/>
<path d="M314 22.3049L317.701 29.7192H318.645L314.944 22.3049H314Z" fill="white"/>
<path d="M328.346 31.1893V37.7544H329.181V31.9416H334.709V31.1893H328.346Z" fill="white"/>
<path d="M338.75 29.7194H339.827L339.863 29.6709C340.359 28.9306 340.613 28.0448 340.613 27.0497C340.613 24.1252 338.496 22.3049 335.073 22.3049H329.714V29.7194H330.549V23.1422H335.073C338.013 23.1422 339.767 24.5984 339.767 27.0497C339.767 28.0326 339.464 28.8942 338.896 29.5495L338.738 29.7194H338.75Z" fill="white"/>
<path d="M357.997 22.3049V29.7192H358.832V23.931L362.097 29.7192H363.065L358.868 22.3049H357.997Z" fill="white"/>
<path d="M343.117 30.3391L339.814 37.7535H340.722L343.649 31.1764H350.629L353.69 37.7535H354.609L351.174 30.3997L351.137 30.3391H343.117Z" fill="white"/>
<path d="M369.84 22.3049L363.949 33.2143H364.904L369.84 24.016V29.7194H370.675V22.3049H369.84Z" fill="white"/>
<path d="M359.896 30.3391H359.061V37.7533H359.896V30.3391Z" fill="white"/>
<path d="M371.751 30.3391H370.916V37.7533H371.751V30.3391Z" fill="white"/>
<path d="M348.682 23.5184L351.574 29.7194H352.481L349.045 22.3656L349.021 22.3049H348.477C348.38 22.3049 348.295 22.3049 348.283 22.3777L345.017 29.7194H345.924L348.67 23.5184H348.682Z" fill="white"/>
<path d="M324.221 22.3049L320.399 29.7192H321.343L325.165 22.3049H324.221Z" fill="white"/>
<path d="M322.503 30.3391L318.681 37.7533H319.624L323.446 30.3391H322.503Z" fill="white"/>
<path d="M176.101 29.6656V24.9336H177.326L178.395 27.6487L179.465 24.9336H180.69V29.6656H179.527V27.3074L178.799 29.2467H177.992L177.264 27.3074V29.6656H176.101Z" fill="white"/>
<path d="M184.365 24.8813C185.899 24.8813 186.768 25.9364 186.768 27.3172C186.768 28.698 185.899 29.753 184.365 29.753C182.83 29.753 181.961 28.698 181.961 27.3172C181.961 25.9364 182.83 24.8813 184.365 24.8813ZM184.365 28.7601C185.109 28.7601 185.543 28.0929 185.543 27.3172C185.543 26.5414 185.109 25.8743 184.365 25.8743C183.62 25.8743 183.186 26.5414 183.186 27.3172C183.186 28.0929 183.62 28.7601 184.365 28.7601Z" fill="white"/>
<path d="M187.527 28.6727C188.085 28.6727 188.318 28.502 188.364 28.0055L188.674 24.9336H192.116V29.6656H190.954V25.9265H189.76L189.481 28.4244C189.357 29.5725 188.581 29.6656 187.527 29.6656V28.6727Z" fill="white"/>
<path d="M195.87 24.8813C197.405 24.8813 198.273 25.9364 198.273 27.3172C198.273 28.698 197.405 29.753 195.87 29.753C194.335 29.753 193.467 28.698 193.467 27.3172C193.467 25.9364 194.335 24.8813 195.87 24.8813ZM195.87 28.7601C196.614 28.7601 197.048 28.0929 197.048 27.3172C197.048 26.5414 196.614 25.8743 195.87 25.8743C195.126 25.8743 194.692 26.5414 194.692 27.3172C194.692 28.0929 195.126 28.7601 195.87 28.7601Z" fill="white"/>
<path d="M199.281 28.6722H199.668L200.273 24.9336H203.652V28.6722H203.993L203.854 30.7354H202.846V29.6651H200.428V30.7354H199.42L199.265 28.6722H199.281ZM200.8 28.6722H202.49V25.9264H201.218L200.8 28.6722Z" fill="white"/>
<path d="M207.217 24.8685C208.798 24.8685 209.418 26.1871 209.418 27.2109V27.6918H206.163C206.194 28.2193 206.566 28.7622 207.279 28.7622C207.806 28.7622 208.131 28.514 208.426 28.0331L209.372 28.3744C209 29.2121 208.364 29.7551 207.232 29.7551C205.604 29.7551 204.969 28.4364 204.969 27.3195C204.969 26.2026 205.62 24.884 207.232 24.884L207.217 24.8685ZM206.256 22.8983C206.659 22.8983 206.922 23.1775 206.922 23.5654C206.922 23.9532 206.659 24.2324 206.256 24.2324C205.853 24.2324 205.589 23.9532 205.589 23.5654C205.589 23.1775 205.853 22.8983 206.256 22.8983ZM208.224 26.761C208.131 26.2957 207.837 25.8613 207.217 25.8613C206.628 25.8613 206.271 26.3267 206.194 26.761H208.224ZM208.193 22.8983C208.596 22.8983 208.86 23.1775 208.86 23.5654C208.86 23.9532 208.596 24.2324 208.193 24.2324C207.79 24.2324 207.527 23.9532 207.527 23.5654C207.527 23.1775 207.79 22.8983 208.193 22.8983Z" fill="white"/>
<path d="M209.946 29.6686L211.961 27.1245L210.07 24.9526H211.512L213.046 26.8142V24.9526H214.209V26.8142L215.744 24.9526H217.186L215.294 27.1245L217.31 29.6686H215.883L214.209 27.4347V29.6686H213.046V27.4347L211.372 29.6686H209.946Z" fill="white"/>
<path d="M218.24 29.6656V24.9336H219.403V26.6557H220.985V24.9336H222.148V29.6656H220.985V27.6487H219.403V29.6656H218.24Z" fill="white"/>
<path d="M223.699 29.6651V24.9336H224.861V26.7331H225.73C226.737 26.7331 227.357 27.3071 227.357 28.1913C227.357 29.0756 226.737 29.6495 225.73 29.6495H223.699V29.6651ZM224.861 28.6722H225.513C225.947 28.6722 226.164 28.5481 226.164 28.2068C226.164 27.8655 225.947 27.7414 225.513 27.7414H224.861V28.6877V28.6722ZM228.35 29.6651V24.9336H229.512V29.6651H228.35Z" fill="white"/>
<path d="M231.063 29.6717V24.9402H232.226V27.8567L233.854 24.9402H235.125V29.6717H233.962V26.7552L232.335 29.6717H231.063ZM232.846 23.1097C232.846 23.2648 232.955 23.3734 233.094 23.3734C233.234 23.3734 233.342 23.2648 233.342 23.1097H234.195C234.195 23.6526 233.776 24.1335 233.094 24.1335C232.412 24.1335 231.994 23.6526 231.994 23.1097H232.846Z" fill="white"/>
<path d="M176.101 36.0797V31.3483H177.263V35.0869H178.814V31.3483H179.976V35.0869H180.317L180.178 37.1501H179.17V36.0797H176.101Z" fill="white"/>
<path d="M183.651 31.2889C185.233 31.2889 185.853 32.6077 185.853 33.6317V34.1126H182.597C182.628 34.6402 183 35.1832 183.713 35.1832C184.241 35.1832 184.566 34.9349 184.861 34.454L185.791 34.7953C185.419 35.6331 184.783 36.1761 183.651 36.1761C182.024 36.1761 181.388 34.8574 181.388 33.7403C181.388 32.6232 182.039 31.3045 183.651 31.3045V31.2889ZM184.659 33.1818C184.566 32.7163 184.272 32.2819 183.651 32.2819C183.062 32.2819 182.706 32.7473 182.628 33.1818H184.659Z" fill="white"/>
<path d="M187.219 36.0803V31.3483H188.381V33.0704H189.963V31.3483H191.126V36.0803H189.963V34.0634H188.381V36.0803H187.219Z" fill="white"/>
<path d="M192.302 32.3554V31.3625H195.992V32.3554H194.721V36.0945H193.558V32.3554H192.286H192.302Z" fill="white"/>
<path d="M197.156 38.0061V31.3665H198.319V31.8474C198.443 31.5992 198.892 31.2889 199.466 31.2889C200.892 31.2889 201.621 32.2663 201.621 33.7245C201.621 35.1827 200.892 36.16 199.466 36.16C198.985 36.16 198.536 35.9118 198.319 35.6481V37.9905H197.156V38.0061ZM199.311 35.1672C199.915 35.1672 200.412 34.6553 200.412 33.7245C200.412 32.7937 199.931 32.2818 199.311 32.2818C198.691 32.2818 198.226 32.7937 198.226 33.7245C198.226 34.6553 198.706 35.1672 199.311 35.1672Z" fill="white"/>
<path d="M154.116 35.9247H151V39.043H154.116V35.9247Z" fill="white"/>
<path d="M160.363 29.674H154.116V35.9257H160.363V29.674Z" fill="white"/>
<path d="M169.746 20.3049H160.381V29.6756H169.746V20.3049Z" fill="white"/>
<path d="M463.763 19.3282L464.175 20.4325L464.587 19.3282H464.91V20.7783H464.665V20.2987L464.688 19.6628L464.264 20.7783H464.086L463.663 19.6628L463.685 20.2987V20.7783H463.44V19.3282H463.763Z" fill="white"/>
<path d="M466.37 20.0878C466.37 20.2328 466.347 20.3555 466.292 20.4559C466.247 20.5675 466.169 20.6455 466.08 20.7013C465.991 20.7571 465.88 20.7906 465.768 20.7906C465.657 20.7906 465.545 20.7571 465.456 20.7013C465.367 20.6455 465.289 20.5675 465.245 20.4559C465.2 20.3444 465.167 20.2328 465.167 20.0878V20.0097C465.167 19.8647 465.189 19.742 465.245 19.6416C465.289 19.53 465.367 19.452 465.456 19.3962C465.545 19.3404 465.657 19.3069 465.768 19.3069C465.88 19.3069 465.991 19.3404 466.08 19.3962C466.169 19.452 466.236 19.53 466.292 19.6416C466.336 19.7531 466.37 19.8758 466.37 20.0097V20.0878ZM466.125 20.0097C466.125 19.8535 466.091 19.7308 466.035 19.6416C465.98 19.5524 465.891 19.5077 465.779 19.5077C465.668 19.5077 465.59 19.5524 465.523 19.6304C465.468 19.7197 465.434 19.8312 465.434 19.9874V20.0655C465.434 20.2216 465.468 20.3444 465.523 20.4336C465.59 20.5228 465.668 20.5675 465.779 20.5675C465.891 20.5675 465.98 20.5228 466.035 20.4447C466.091 20.3555 466.125 20.2328 466.125 20.0766V19.9986V20.0097Z" fill="white"/>
<path d="M467.761 19.3282V20.7783H467.516V19.5401H467.071L467.048 20.0979C467.048 20.2764 467.015 20.4102 466.982 20.4995C466.948 20.5999 466.904 20.6668 466.837 20.7114C466.77 20.756 466.692 20.7783 466.592 20.7783H466.525V20.5775H466.57C466.625 20.5775 466.67 20.5441 466.703 20.5106C466.737 20.4771 466.759 20.4214 466.77 20.3544C466.781 20.2875 466.792 20.176 466.803 20.0421L466.837 19.3282H467.772H467.761Z" fill="white"/>
<path d="M469.21 20.0878C469.21 20.2328 469.188 20.3555 469.132 20.4559C469.088 20.5675 469.01 20.6455 468.921 20.7013C468.831 20.7571 468.72 20.7906 468.609 20.7906C468.497 20.7906 468.386 20.7571 468.297 20.7013C468.208 20.6455 468.13 20.5675 468.085 20.4559C468.03 20.3444 468.007 20.2328 468.007 20.0878V20.0097C468.007 19.8647 468.03 19.742 468.085 19.6416C468.13 19.53 468.208 19.452 468.297 19.3962C468.386 19.3404 468.497 19.3069 468.609 19.3069C468.72 19.3069 468.831 19.3404 468.921 19.3962C469.01 19.452 469.076 19.53 469.132 19.6416C469.177 19.7531 469.21 19.8758 469.21 20.0097V20.0878ZM468.965 20.0097C468.965 19.8535 468.932 19.7308 468.876 19.6416C468.82 19.5524 468.731 19.5077 468.62 19.5077C468.509 19.5077 468.431 19.5524 468.364 19.6304C468.297 19.7197 468.275 19.8312 468.275 19.9874V20.0655C468.275 20.2216 468.308 20.3444 468.364 20.4336C468.431 20.5228 468.509 20.5675 468.62 20.5675C468.731 20.5675 468.82 20.5228 468.876 20.4447C468.932 20.3555 468.965 20.2328 468.965 20.0766V19.9986V20.0097Z" fill="white"/>
<path d="M470.791 21.1353H470.557V20.7783H469.61V21.1353H469.365V20.5775H469.476C469.532 20.5218 469.577 20.4437 469.61 20.3321C469.643 20.2206 469.666 20.109 469.677 19.9752L469.71 19.3282H470.623V20.5775H470.802V21.1353H470.791ZM469.744 20.5775H470.367V19.529H469.944L469.922 19.9417C469.9 20.2094 469.844 20.4214 469.744 20.5775Z" fill="white"/>
<path d="M471.838 20.1383H471.248V20.5845H471.938V20.7853H470.991V19.3351H471.927V19.5359H471.236V19.9375H471.827V20.1383H471.838ZM471.114 19.112C471.114 19.112 471.114 19.0563 471.147 19.034C471.17 19.0116 471.203 19.0005 471.236 19.0005C471.27 19.0005 471.303 19.0005 471.326 19.034C471.348 19.0563 471.359 19.0897 471.359 19.112C471.359 19.1344 471.359 19.1678 471.326 19.1901C471.303 19.2124 471.27 19.2236 471.236 19.2236C471.203 19.2236 471.17 19.2236 471.147 19.1901C471.125 19.1678 471.114 19.1344 471.114 19.112ZM471.571 19.112C471.571 19.112 471.571 19.0563 471.604 19.034C471.626 19.0116 471.66 19.0005 471.693 19.0005C471.726 19.0005 471.76 19.0005 471.782 19.034C471.804 19.0563 471.816 19.0897 471.816 19.112C471.816 19.1344 471.816 19.1678 471.782 19.1901C471.76 19.2124 471.726 19.2236 471.693 19.2236C471.66 19.2236 471.626 19.2236 471.604 19.1901C471.582 19.1678 471.571 19.1344 471.571 19.112Z" fill="white"/>
<path d="M473.264 20.1537H473.108V20.7783H472.863V20.1537H472.696L472.34 20.7783H472.028L472.495 20.0086L472.061 19.3282H472.362L472.707 19.9306H472.863V19.3282H473.108V19.9306H473.253L473.598 19.3282H473.899L473.464 19.9975L473.921 20.7672H473.609L473.253 20.1425L473.264 20.1537Z" fill="white"/>
<path d="M474.322 19.8859H474.623C474.734 19.8859 474.823 19.9082 474.901 19.9417C474.979 19.9752 475.035 20.031 475.08 20.0979C475.124 20.1648 475.146 20.2429 475.146 20.3321C475.146 20.466 475.102 20.5775 475.013 20.6556C474.924 20.7337 474.801 20.7783 474.634 20.7783H474.077V19.3282H474.333V19.8859H474.322ZM474.322 20.0867V20.5775H474.612C474.701 20.5775 474.757 20.5552 474.812 20.5106C474.857 20.466 474.879 20.3991 474.879 20.3321C474.879 20.2652 474.857 20.1983 474.812 20.1648C474.768 20.1202 474.701 20.0979 474.623 20.0979H474.322V20.0867Z" fill="white"/>
<path d="M476.74 19.3282H476.996V20.7783H476.74V19.7521L476.105 20.7783H475.849V19.3282H476.105V20.3544L476.74 19.3282Z" fill="white"/>
<path d="M479.132 21.1353H478.898V20.7783H477.951V21.1353H477.706V20.5775H477.818C477.873 20.5218 477.918 20.4437 477.951 20.3321C477.985 20.2206 478.007 20.109 478.018 19.9752L478.052 19.3282H478.965V20.5775H479.143V21.1353H479.132ZM478.085 20.5775H478.709V19.529H478.285L478.263 19.9417C478.241 20.2094 478.185 20.4214 478.085 20.5775Z" fill="white"/>
<path d="M480.18 20.1313H479.59V20.5775H480.281V20.7783H479.334V19.3282H480.269V19.529H479.579V19.9306H480.169V20.1313H480.18Z" fill="white"/>
<path d="M481.529 19.529H481.083V20.7672H480.838V19.529H480.393V19.3282H481.54V19.529H481.529Z" fill="white"/>
<path d="M482.597 19.3282H482.853V20.7783H482.597V19.7521L481.962 20.7783H481.706V19.3282H481.962V20.3544L482.597 19.3282Z" fill="white"/>
<path d="M480.837 28.9468H481.026C481.093 28.9468 481.138 28.9245 481.171 28.891C481.205 28.8575 481.216 28.7906 481.216 28.7014V28.311C481.216 28.2218 481.205 28.1548 481.171 28.1214C481.138 28.0879 481.093 28.0656 481.026 28.0656H480.837V28.9356V28.9468Z" fill="white"/>
<path d="M473.965 30.1999H473.776V31.0699H473.965C474.032 31.0699 474.077 31.0476 474.11 31.0142C474.144 30.9807 474.155 30.9138 474.155 30.8246V30.4342C474.155 30.3449 474.144 30.2892 474.11 30.2446C474.077 30.2111 474.032 30.1888 473.965 30.1888" fill="white"/>
<path d="M464.844 25.4236H465.234L465.044 24.1185L464.855 25.4236H464.844Z" fill="white"/>
<path d="M476.226 25.8641H476.416C476.482 25.8641 476.527 25.8418 476.56 25.8083C476.594 25.7748 476.605 25.7079 476.605 25.6187V25.2283C476.605 25.1391 476.594 25.0721 476.56 25.0387C476.527 25.0052 476.482 24.9829 476.416 24.9829H476.226V25.8529V25.8641Z" fill="white"/>
<path d="M479.368 25.8641H479.557C479.624 25.8641 479.669 25.8418 479.702 25.8083C479.735 25.7748 479.747 25.7079 479.747 25.6187V25.2283C479.747 25.1391 479.735 25.0721 479.702 25.0387C479.669 25.0052 479.624 24.9829 479.557 24.9829H479.368V25.8529V25.8641Z" fill="white"/>
<path d="M475.403 30.165C475.258 30.165 475.191 30.2542 475.191 30.4215V31.8159C475.191 31.9832 475.258 32.0725 475.403 32.0725C475.548 32.0725 475.614 31.9832 475.614 31.8159V30.4215C475.614 30.2542 475.548 30.165 475.403 30.165Z" fill="white"/>
<path d="M472.93 25.4236H473.319L473.13 24.1185L472.941 25.4236H472.93Z" fill="white"/>
<path d="M469.966 24.0021C469.821 24.0021 469.754 24.0914 469.754 24.2587V25.6531C469.754 25.8204 469.821 25.9096 469.966 25.9096C470.111 25.9096 470.177 25.8204 470.177 25.6531V24.2587C470.177 24.0914 470.111 24.0021 469.966 24.0021Z" fill="white"/>
<path d="M485.727 16.3049H463.039C462.938 16.3049 462.838 16.3719 462.805 16.4723L453.026 43.2698C452.925 43.4817 453.137 43.7049 453.349 43.6268L482.641 32.9502C482.742 32.9167 482.808 32.8163 482.808 32.7047V26.8588L485.849 25.1296C485.938 25.085 485.994 24.9957 485.994 24.8953V16.5727C485.994 16.4277 485.882 16.3161 485.738 16.3161L485.727 16.3049ZM464.097 26.2341H463.685V25.1296H463.228V26.2341H462.827V23.6569H463.228V24.7614H463.685V23.6569H464.097V26.2341ZM465.355 26.2341L465.288 25.7655H464.787L464.72 26.2341H464.353L464.765 23.6569H465.355L465.767 26.2341H465.355ZM467.46 26.5799H467.07V26.2341H466.012V23.6569H466.413V25.8659H466.87V23.6569H467.282V25.8771H467.46V26.5799ZM469.031 26.2341H468.663V24.4156L468.496 25.0515L468.162 26.2341H467.75V23.6569H468.106V25.2858L468.251 24.7168L468.585 23.6569H469.031V26.2341ZM470.579 25.6205C470.579 25.8213 470.523 25.9886 470.423 26.1002C470.323 26.2117 470.167 26.2675 469.966 26.2675C469.766 26.2675 469.621 26.2117 469.51 26.1002C469.409 25.9886 469.354 25.8324 469.354 25.6205V24.2817C469.354 24.0809 469.409 23.9135 469.51 23.802C469.61 23.6904 469.766 23.6346 469.966 23.6346C470.167 23.6346 470.312 23.6904 470.423 23.802C470.523 23.9135 470.579 24.0697 470.579 24.2817V25.6205ZM471.314 26.2341H470.913V23.6569H471.314V24.7614H471.771V23.6569H472.183V26.2341H471.771V25.1296H471.314V26.2341ZM472.595 29.3132H472.183V27.1042H471.726V29.3132H471.325V26.7361H472.595V29.3132ZM472.807 26.2341H472.439L472.851 23.6569H473.441L473.853 26.2341H473.441L473.375 25.7655H472.873L472.807 26.2341ZM473.285 29.3132H472.884V26.7361H473.475C473.675 26.7361 473.831 26.7919 473.931 26.9034C474.032 27.015 474.076 27.1712 474.076 27.3832V27.7178C474.076 27.9298 474.021 28.086 473.931 28.1976C473.831 28.3091 473.675 28.3649 473.475 28.3649H473.285V29.3355V29.3132ZM475.524 26.2341H475.112V24.0251H474.756L474.711 25.587C474.711 25.8213 474.655 25.9886 474.566 26.089C474.477 26.1894 474.332 26.2452 474.121 26.2452H474.054V25.8771C474.121 25.8771 474.165 25.8771 474.199 25.8659C474.232 25.8659 474.254 25.8324 474.277 25.7878C474.288 25.7543 474.299 25.6874 474.299 25.6093L474.366 23.6681H475.513V26.2452L475.524 26.2341ZM475.591 27.3608V28.6996C475.591 28.9004 475.535 29.0678 475.435 29.1793C475.335 29.2909 475.179 29.3467 474.978 29.3467C474.778 29.3467 474.633 29.2909 474.522 29.1793C474.421 29.0678 474.366 28.9116 474.366 28.6996V27.3608C474.366 27.16 474.421 26.9927 474.522 26.8811C474.622 26.7696 474.778 26.7138 474.978 26.7138C475.179 26.7138 475.324 26.7696 475.435 26.8811C475.535 26.9927 475.591 27.1489 475.591 27.3608ZM474.566 30.797C474.566 31.009 474.511 31.1652 474.421 31.2767C474.321 31.3883 474.165 31.4441 473.965 31.4441H473.775V32.4147H473.375V29.8375H473.965C474.165 29.8375 474.321 29.8933 474.421 29.9937C474.522 30.1053 474.566 30.2615 474.566 30.4735V30.8081V30.797ZM476.014 31.7787C476.014 31.9796 475.959 32.1469 475.858 32.2585C475.758 32.37 475.602 32.4258 475.402 32.4258C475.201 32.4258 475.056 32.37 474.945 32.2585C474.845 32.1469 474.789 31.9907 474.789 31.7787V30.44C474.789 30.2392 474.845 30.0718 474.945 29.9603C475.045 29.8487 475.201 29.7929 475.402 29.7929C475.602 29.7929 475.747 29.8487 475.858 29.9603C475.959 30.0718 476.014 30.228 476.014 30.44V31.7787ZM476.415 24.6275C476.616 24.6275 476.772 24.6833 476.872 24.7949C476.972 24.9065 477.017 25.0626 477.017 25.2746V25.6093C477.017 25.8213 476.961 25.9775 476.872 26.089C476.772 26.2006 476.616 26.2564 476.415 26.2564H475.825V23.6793H476.226V24.6499H476.415V24.6275ZM476.838 27.8294V28.1976H476.282V28.9562H476.983V29.3244H475.881V26.7472H476.983V27.1154H476.282V27.8294H476.838ZM477.507 30.6854H477.128V30.4065C477.128 30.2392 477.061 30.1499 476.916 30.1499C476.772 30.1499 476.705 30.2392 476.705 30.4065V31.8011C476.705 31.9684 476.772 32.0465 476.916 32.0465C477.061 32.0465 477.128 31.9684 477.128 31.8011V31.4329H477.507V31.7787C477.507 31.9907 477.451 32.1469 477.351 32.2585C477.251 32.37 477.095 32.4258 476.905 32.4258C476.716 32.4258 476.56 32.37 476.46 32.2585C476.36 32.1469 476.304 31.9907 476.304 31.7787V30.44C476.304 30.228 476.36 30.0718 476.46 29.9603C476.56 29.8487 476.716 29.7929 476.905 29.7929C477.095 29.7929 477.251 29.8487 477.351 29.9603C477.451 30.0718 477.507 30.228 477.507 30.44V30.6854ZM477.674 29.3132H477.273V26.7361H477.674V27.8629L478.197 26.7361H478.598L478.041 27.8852L478.598 29.3132H478.186L477.796 28.2868L477.674 28.5211V29.3132ZM478.197 24.7614V23.6569H478.609V26.2341H478.197V25.1296H477.741V26.2341H477.34V23.6569H477.741V24.7614H478.197ZM478.999 30.6854H478.621V30.4065C478.621 30.2392 478.554 30.1499 478.409 30.1499C478.264 30.1499 478.197 30.2392 478.197 30.4065V31.8011C478.197 31.9684 478.264 32.0465 478.409 32.0465C478.554 32.0465 478.621 31.9684 478.621 31.8011V31.4329H478.999V31.7787C478.999 31.9907 478.944 32.1469 478.843 32.2585C478.743 32.37 478.587 32.4258 478.398 32.4258C478.208 32.4258 478.052 32.37 477.952 32.2585C477.852 32.1469 477.796 31.9907 477.796 31.7787V30.44C477.796 30.228 477.852 30.0718 477.952 29.9603C478.052 29.8487 478.208 29.7929 478.398 29.7929C478.587 29.7929 478.743 29.8487 478.843 29.9603C478.944 30.0718 478.999 30.228 478.999 30.44V30.6854ZM479.556 24.6275C479.757 24.6275 479.913 24.6833 480.013 24.7949C480.113 24.9065 480.158 25.0626 480.158 25.2746V25.6093C480.158 25.8213 480.102 25.9775 480.013 26.089C479.913 26.2006 479.757 26.2564 479.556 26.2564H478.966V23.6793H479.367V24.6499H479.556V24.6275ZM480.146 26.7472V27.1154H479.723V29.3244H479.322V27.1154H478.899V26.7472H480.146ZM480.592 32.3923H480.224V30.5739L480.057 31.2098L479.723 32.3923H479.311V29.8152H479.667V31.4441L479.812 30.8751L480.146 29.8152H480.592V32.3923ZM481.026 27.7067C481.227 27.7067 481.383 27.7625 481.483 27.874C481.583 27.9856 481.639 28.1418 481.639 28.3538V28.6884C481.639 28.9004 481.583 29.0566 481.483 29.1682C481.383 29.2797 481.227 29.3355 481.026 29.3355H480.436V26.7584H480.837V27.729H481.026V27.7067ZM480.804 26.2341H480.403V23.6569H480.804V26.2341ZM482.263 32.3923H481.895V30.5739L481.728 31.2098L481.394 32.3923H480.982V29.8152H481.338V31.4441L481.483 30.8751L481.817 29.8152H482.263V32.3923ZM482.263 29.3132H481.862V26.7361H482.263V29.3132ZM482.263 24.0251H481.561V24.7391H482.118V25.1073H481.561V25.8659H482.263V26.2341H481.16V23.6569H482.263V24.0251ZM485.804 24.8953C485.804 24.8953 485.793 24.9511 485.771 24.9622L482.82 26.6357V23.3223C482.82 23.1772 482.708 23.0657 482.563 23.0657H462.615C462.515 23.0657 462.426 23.1214 462.381 23.2107L454.384 40.3803L463.005 16.5392C463.005 16.5392 463.039 16.4946 463.072 16.4946H485.76C485.76 16.4946 485.827 16.5281 485.827 16.5615V24.8841L485.804 24.8953Z" fill="white"/>
<path d="M474.978 27.0871C474.834 27.0871 474.767 27.1763 474.767 27.3437V28.738C474.767 28.9054 474.834 28.9946 474.978 28.9946C475.123 28.9946 475.19 28.9054 475.19 28.738V27.3437C475.19 27.1763 475.123 27.0871 474.978 27.0871Z" fill="white"/>
<path d="M473.632 27.929C473.632 27.929 473.676 27.8286 473.676 27.7394V27.349C473.676 27.2598 473.665 27.1929 473.632 27.1594C473.598 27.1259 473.554 27.1036 473.487 27.1036H473.297V27.9736H473.487C473.554 27.9736 473.598 27.9513 473.632 27.9179" fill="white"/>
</svg>
