<svg width="283" height="68" viewBox="0 0 283 68" fill="none" xmlns="http://www.w3.org/2000/svg">
<path d="M15.872 47.9375H0.0534668V63.7909H15.872V47.9375Z" fill="black"/>
<path d="M63.3275 32.0762H47.509V47.9296H63.3275V32.0762Z" fill="black"/>
<path d="M63.3275 0.384766H47.509V16.2382H63.3275V0.384766Z" fill="black"/>
<path d="M15.872 16.2104H0.0534668V32.0639H15.872V16.2104Z" fill="black"/>
<path d="M7.93552 47.9823C12.3182 47.9823 15.8711 44.4216 15.8711 40.0292C15.8711 35.6369 12.3182 32.0762 7.93552 32.0762C3.55284 32.0762 0 35.6369 0 40.0292C0 44.4216 3.55284 47.9823 7.93552 47.9823Z" fill="black"/>
<path d="M31.5519 25.9698C32.5549 21.694 29.9094 17.4128 25.643 16.4075C21.3767 15.4022 17.1051 18.0535 16.1021 22.3293C15.0992 26.6051 17.7447 30.8863 22.011 31.8916C26.2774 32.8969 30.549 30.2456 31.5519 25.9698Z" fill="black"/>
<path d="M0.0534668 16.2382V0.384766H15.872" fill="black"/>
<path d="M63.3801 16.2104V47.9173L47.509 32.0639" fill="black"/>
<path d="M31.6912 16.2104H47.5097V32.0639" fill="black"/>
<path d="M31.6911 16.2382H15.8726V0.384766" fill="black"/>
<path d="M15.8723 32.0762H31.6909V47.9296" fill="black"/>
<path d="M31.6909 47.9296L15.8723 32.0762H47.5094" fill="black"/>
<path d="M47.5097 0.384766L63.3808 16.2382H31.6912" fill="black"/>
<path d="M55.4446 47.9375C51.0826 47.9375 47.509 51.4663 47.509 55.8906V63.8436H63.3275V55.8906C63.3275 51.519 59.8065 47.9375 55.392 47.9375H55.4446Z" fill="black"/>
<path d="M179.519 36.8191H186.824L188.243 40.4006H190.976L184.565 24.3892H181.779L175.368 40.4006H178.101L179.519 36.8191ZM183.198 27.7073L185.826 34.291H180.571L183.198 27.7073Z" fill="black"/>
<path d="M179.415 16.4792V2.9959H184.933V0.467773H171.374V2.9959H176.893V16.4792H179.415Z" fill="black"/>
<path d="M206.006 16.4792V10.4749H209.685C212.417 10.4749 214.677 8.21015 214.677 5.47135C214.677 2.73255 212.417 0.467773 209.685 0.467773H203.483V16.4792H206.006ZM206.006 2.9959H209.685C211.051 2.9959 212.155 4.10195 212.155 5.47135C212.155 6.84075 211.051 7.94681 209.685 7.94681H206.006V3.04857V2.9959Z" fill="black"/>
<path d="M196.913 24.4517H194.18V40.4104H196.702V28.5072L200.486 33.7214H203.377L207.16 28.5072V40.4104H209.683V24.4517H206.95L201.958 31.4567L196.913 24.4517Z" fill="black"/>
<path d="M188.406 16.4792H198.812V13.9511H190.929V9.73756H198.812V7.20944H190.929V2.9959H198.812V0.467773H188.406V16.4792Z" fill="black"/>
<path d="M141.367 44.0446V37.935H138.477V24.4517H135.744L125.969 37.935H124.025V44.0446H126.547V40.4631H138.845V44.0446H141.367ZM135.954 37.8823H129.122L135.954 28.4545V37.8823Z" fill="black"/>
<path d="M136.532 0.467773V16.4792H139.265L147.831 4.52331V16.4792H150.353V0.467773H147.621L139.054 12.371V0.467773H136.532Z" fill="black"/>
<path d="M144.362 40.4104H154.767V37.8823H146.884V33.7214H154.767V31.1933H146.884V26.9798H154.767V24.4517H144.362V40.4104Z" fill="black"/>
<path d="M154.29 8.46272C154.29 13.1503 158.074 16.9425 162.751 16.9425C164.853 16.9425 166.85 16.1524 168.427 14.783L166.64 12.9923C165.589 13.9403 164.17 14.467 162.751 14.467C159.493 14.467 156.813 11.7809 156.813 8.51539C156.813 5.2499 159.493 2.56377 162.751 2.56377C164.17 2.56377 165.589 3.09046 166.64 4.03851L168.427 2.24775C166.85 0.825683 164.853 0.0356445 162.751 0.0356445C158.074 0.0356445 154.29 3.82783 154.29 8.51539V8.46272Z" fill="black"/>
<path d="M170.903 40.4104H173.636L167.224 24.4517H164.386L157.975 40.4104H160.708L165.805 27.7172L170.903 40.4104Z" fill="black"/>
<path d="M118.086 0.467773V16.4792H120.609V9.73756H129.333V16.4792H131.855V0.467773H129.333V7.20944H120.609V0.467773H118.086Z" fill="black"/>
<path d="M258.768 0.467773H251.726V16.4792H258.716C260.871 16.4792 262.657 14.7411 262.657 12.529C262.657 10.3169 260.976 8.63151 258.874 8.57884V7.73613C260.818 7.73613 262.447 6.05071 262.447 4.10195C262.447 2.15319 260.818 0.467773 258.821 0.467773H258.768ZM260.135 11.739C260.135 12.9504 259.136 13.9511 257.928 13.9511H254.249V9.52688H257.928C259.136 9.52688 260.135 10.5276 260.135 11.739ZM257.928 6.94609H254.249V2.9959H257.928C259.031 2.9959 259.925 3.89127 259.925 4.99733C259.925 6.10338 259.031 6.99876 257.928 6.99876V6.94609Z" fill="black"/>
<path d="M82.1948 0.467773H79.462V16.4792H81.9846V4.57597L85.7159 9.73756H88.6589L92.3901 4.57597V16.4792H94.9127V0.467773H92.18L87.1874 7.47278L82.1948 0.467773Z" fill="black"/>
<path d="M252.674 53.3542C252.674 50.6154 250.414 48.3506 247.682 48.3506H241.48V64.362H244.003V58.3577H247.682C250.414 58.3577 252.674 56.093 252.674 53.3542ZM244.003 50.9314H247.682C249.048 50.9314 250.152 52.0374 250.152 53.4068C250.152 54.7762 249.048 55.8823 247.682 55.8823H244.003V50.984V50.9314Z" fill="black"/>
<path d="M92.5478 40.4104V24.4517H79.462V40.4104H81.9846V26.9798H90.0253V40.4104H92.5478Z" fill="black"/>
<path d="M217.677 8.46272C217.677 13.1503 221.461 16.9425 226.138 16.9425C228.24 16.9425 230.237 16.1524 231.814 14.783L230.027 12.9923C228.976 13.9403 227.557 14.467 226.138 14.467C222.88 14.467 220.2 11.7809 220.2 8.51539C220.2 5.2499 222.88 2.56377 226.138 2.56377C227.557 2.56377 228.976 3.09046 230.027 4.03851L231.814 2.24775C230.237 0.825683 228.24 0.0356445 226.138 0.0356445C221.461 0.0356445 217.677 3.82783 217.677 8.51539V8.46272Z" fill="black"/>
<path d="M268.332 48.4175H254.773V50.9456H260.238V64.3763H262.814V50.9456H268.332V48.4175Z" fill="black"/>
<path d="M274.113 0C269.435 0 265.652 3.79219 265.652 8.47975C265.652 13.1673 269.435 16.9595 274.113 16.9595C278.79 16.9595 282.574 13.1673 282.574 8.47975C282.574 3.79219 278.79 0 274.113 0ZM274.113 14.4314C270.854 14.4314 268.174 11.7452 268.174 8.47975C268.174 5.21425 270.854 2.52812 274.113 2.52812C277.371 2.52812 280.051 5.21425 280.051 8.47975C280.051 11.7452 277.371 14.4314 274.113 14.4314Z" fill="black"/>
<path d="M242.74 16.4792V2.9959H248.258V0.467773H234.699V2.9959H240.217V16.4792H242.74Z" fill="black"/>
<path d="M99.5929 0.467773V16.4792H102.326L110.892 4.52331V16.4792H113.414V0.467773H110.682L102.115 12.371V0.467773H99.5929Z" fill="black"/>
<path d="M104.947 40.9253C109.625 40.9253 113.408 37.1331 113.408 32.4456C113.408 27.758 109.625 23.9658 104.947 23.9658C100.27 23.9658 96.4862 27.758 96.4862 32.4456C96.4862 37.1331 100.27 40.9253 104.947 40.9253ZM104.947 26.4939C108.206 26.4939 110.886 29.1801 110.886 32.4456C110.886 35.7111 108.206 38.3972 104.947 38.3972C101.689 38.3972 99.0088 35.7111 99.0088 32.4456C99.0088 29.1801 101.689 26.4939 104.947 26.4939Z" fill="black"/>
<path d="M175.894 64.3763H186.352V61.8481H178.416V57.6346H186.352V55.1065H178.416V50.9456H186.352V48.4175H175.894V64.3763Z" fill="black"/>
<path d="M212.996 48.4175V64.3763H215.729L224.295 52.473V64.3763H226.818V48.4175H224.085L215.519 60.3207V48.4175H212.996Z" fill="black"/>
<path d="M198.388 56.7392V64.3763H200.963V56.7392L206.271 64.3763H209.371L203.801 56.3705L209.371 48.4175H206.271L200.963 56.0545V48.4175H198.388V56.0545L193.08 48.4175H189.979L195.55 56.3705L189.979 64.3763H193.08L198.388 56.7392Z" fill="black"/>
<path d="M94.9127 64.3763V48.4175H92.18L87.1874 55.4225L82.1948 48.4175H79.462V64.3763H81.9846V52.473L85.7159 57.6873H88.6589L92.3901 52.473V64.3763H94.9127Z" fill="black"/>
<path d="M144.838 47.8872C140.161 47.8872 136.377 51.6794 136.377 56.367C136.377 61.0545 140.161 64.8467 144.838 64.8467C149.515 64.8467 153.299 61.0545 153.299 56.367C153.299 51.6794 149.515 47.8872 144.838 47.8872ZM144.838 62.3186C141.58 62.3186 138.9 59.6324 138.9 56.367C138.9 53.1015 141.58 50.4153 144.838 50.4153C148.096 50.4153 150.777 53.1015 150.777 56.367C150.777 59.6324 148.096 62.3186 144.838 62.3186Z" fill="black"/>
<path d="M107.319 64.8467C111.996 64.8467 115.78 61.0545 115.78 56.367C115.78 51.6794 111.996 47.8872 107.319 47.8872C102.642 47.8872 98.8578 51.6794 98.8578 56.367C98.8578 61.0545 102.642 64.8467 107.319 64.8467ZM107.319 50.4153C110.577 50.4153 113.257 53.1015 113.257 56.367C113.257 59.6324 110.577 62.3186 107.319 62.3186C104.06 62.3186 101.38 59.6324 101.38 56.367C101.38 53.1015 104.06 50.4153 107.319 50.4153Z" fill="black"/>
<path d="M120.969 64.3763L126.067 51.683L131.165 64.3763H133.897L127.486 48.4175H124.701L118.289 64.3763H120.969Z" fill="black"/>
<path d="M155.604 61.8339V67.9435H158.127V64.362H170.425V67.9435H172.947V61.8339H170.057V48.3506H167.324L157.549 61.8339H155.604ZM167.482 52.4061V61.8339H160.65L167.482 52.4061Z" fill="black"/>
</svg>
