<svg width="299" height="90" viewBox="0 0 299 90" fill="none" xmlns="http://www.w3.org/2000/svg">
<path d="M176.347 57.7595V57.2187C176.166 57.1786 175.976 57.1486 175.776 57.1286C175.596 57.0885 175.396 57.0685 175.175 57.0685C174.955 57.0485 174.724 57.0385 174.485 57.0385C174.244 57.0184 173.984 57.0084 173.703 57.0084C173.163 57.0084 172.712 57.0385 172.351 57.0985C171.991 57.1386 171.69 57.2187 171.45 57.3389C171.229 57.439 171.069 57.5692 170.969 57.7294C170.869 57.8896 170.819 58.0698 170.819 58.2701C170.819 58.4704 170.859 58.6506 170.939 58.8109C171.039 58.9711 171.18 59.1112 171.36 59.2314C171.56 59.3515 171.821 59.4417 172.141 59.5017C172.482 59.5618 172.882 59.5919 173.343 59.5919C173.864 59.5919 174.304 59.5518 174.664 59.4717C175.045 59.3916 175.355 59.2714 175.596 59.1112C175.856 58.931 176.046 58.7307 176.166 58.5104C176.287 58.2901 176.347 58.0398 176.347 57.7595ZM182.325 54.0946V63.4069H176.707V61.184H176.617C176.457 61.4844 176.217 61.7848 175.896 62.0852C175.576 62.3655 175.175 62.6259 174.695 62.8662C174.214 63.1066 173.653 63.3068 173.012 63.467C172.391 63.6272 171.68 63.7073 170.879 63.7073C169.818 63.7073 168.907 63.5972 168.146 63.3769C167.384 63.1566 166.753 62.8462 166.252 62.4456C165.752 62.0452 165.371 61.5545 165.111 60.9737C164.87 60.3729 164.75 59.702 164.75 58.9611C164.75 58.1399 164.91 57.429 165.231 56.8282C165.551 56.2274 166.032 55.7268 166.673 55.3262C167.334 54.9256 168.166 54.6353 169.167 54.4551C170.188 54.2748 171.4 54.1847 172.802 54.1847C173.163 54.1847 173.523 54.1947 173.884 54.2147C174.244 54.2348 174.574 54.2548 174.875 54.2748C175.195 54.2948 175.476 54.3249 175.716 54.3649C175.976 54.385 176.186 54.405 176.347 54.425V53.9143C176.347 53.654 176.287 53.4237 176.166 53.2234C176.066 53.0031 175.876 52.8229 175.596 52.6827C175.335 52.5225 174.975 52.4023 174.514 52.3222C174.054 52.2421 173.463 52.2021 172.742 52.2021C172.141 52.2021 171.54 52.2421 170.939 52.3222C170.358 52.3823 169.798 52.4724 169.257 52.5926C168.716 52.7128 168.206 52.8429 167.725 52.9831C167.264 53.1233 166.853 53.2735 166.493 53.4337V48.9277C166.873 48.8075 167.324 48.6774 167.845 48.5372C168.366 48.377 168.936 48.2368 169.557 48.1166C170.198 47.9965 170.889 47.8963 171.63 47.8162C172.371 47.7161 173.143 47.666 173.944 47.666C175.385 47.666 176.637 47.7762 177.699 47.9965C178.761 48.2168 179.631 48.5773 180.312 49.0779C181.013 49.5786 181.524 50.2395 181.844 51.0605C182.165 51.8816 182.325 52.893 182.325 54.0946ZM186.652 63.8275C186.252 63.8275 185.861 63.7975 185.48 63.7374C185.1 63.6773 184.799 63.6172 184.579 63.5571L184.549 58.6006C184.689 58.6206 184.809 58.6406 184.91 58.6606C185.03 58.6606 185.15 58.6606 185.27 58.6606C185.731 58.6606 186.111 58.5505 186.412 58.3302C186.732 58.0899 186.992 57.6693 187.192 57.0685C187.393 56.4677 187.533 55.6567 187.613 54.6353C187.693 53.5939 187.733 52.2722 187.733 50.6701V48.0866H203.325V63.4069H197.317V53.0131H193.261L193.231 53.7642C193.191 55.4464 193.051 56.9183 192.81 58.18C192.57 59.4417 192.189 60.4931 191.669 61.3342C191.148 62.1552 190.477 62.7761 189.656 63.1966C188.855 63.6172 187.853 63.8275 186.652 63.8275ZM217.391 57.7595V57.2187C217.211 57.1786 217.02 57.1486 216.82 57.1286C216.64 57.0885 216.44 57.0685 216.219 57.0685C215.999 57.0485 215.769 57.0385 215.529 57.0385C215.288 57.0184 215.028 57.0084 214.747 57.0084C214.207 57.0084 213.756 57.0385 213.395 57.0985C213.035 57.1386 212.734 57.2187 212.494 57.3389C212.274 57.439 212.114 57.5692 212.014 57.7294C211.914 57.8896 211.863 58.0698 211.863 58.2701C211.863 58.4704 211.903 58.6506 211.983 58.8109C212.083 58.9711 212.224 59.1112 212.404 59.2314C212.604 59.3515 212.865 59.4417 213.185 59.5017C213.526 59.5618 213.926 59.5919 214.387 59.5919C214.908 59.5919 215.348 59.5518 215.709 59.4717C216.089 59.3916 216.4 59.2714 216.64 59.1112C216.9 58.931 217.091 58.7307 217.211 58.5104C217.331 58.2901 217.391 58.0398 217.391 57.7595ZM223.369 54.0946V63.4069H217.752V61.184H217.661C217.501 61.4844 217.261 61.7848 216.94 62.0852C216.62 62.3655 216.219 62.6259 215.739 62.8662C215.258 63.1066 214.697 63.3068 214.056 63.467C213.435 63.6272 212.724 63.7073 211.923 63.7073C210.862 63.7073 209.951 63.5972 209.19 63.3769C208.428 63.1566 207.797 62.8462 207.297 62.4456C206.796 62.0452 206.416 61.5545 206.155 60.9737C205.915 60.3729 205.795 59.702 205.795 58.9611C205.795 58.1399 205.955 57.429 206.276 56.8282C206.596 56.2274 207.077 55.7268 207.717 55.3262C208.378 54.9256 209.21 54.6353 210.211 54.4551C211.233 54.2748 212.444 54.1847 213.846 54.1847C214.207 54.1847 214.567 54.1947 214.928 54.2147C215.288 54.2348 215.618 54.2548 215.919 54.2748C216.239 54.2948 216.52 54.3249 216.76 54.3649C217.02 54.385 217.231 54.405 217.391 54.425V53.9143C217.391 53.654 217.331 53.4237 217.211 53.2234C217.111 53.0031 216.92 52.8229 216.64 52.6827C216.379 52.5225 216.019 52.4023 215.558 52.3222C215.098 52.2421 214.507 52.2021 213.786 52.2021C213.185 52.2021 212.584 52.2421 211.983 52.3222C211.402 52.3823 210.842 52.4724 210.301 52.5926C209.76 52.7128 209.25 52.8429 208.769 52.9831C208.308 53.1233 207.897 53.2735 207.537 53.4337V48.9277C207.917 48.8075 208.368 48.6774 208.889 48.5372C209.41 48.377 209.98 48.2368 210.601 48.1166C211.242 47.9965 211.934 47.8963 212.674 47.8162C213.415 47.7161 214.187 47.666 214.988 47.666C216.43 47.666 217.681 47.7762 218.743 47.9965C219.805 48.2168 220.675 48.5773 221.356 49.0779C222.058 49.5786 222.569 50.2395 222.889 51.0605C223.209 51.8816 223.369 52.893 223.369 54.0946ZM230.161 51.361H230.221C230.461 51.0205 230.781 50.6901 231.182 50.3696C231.603 50.0292 232.103 49.7287 232.684 49.4685C233.265 49.2081 233.936 49.0078 234.698 48.8676C235.459 48.7074 236.319 48.6274 237.281 48.6274C238.723 48.6274 239.985 48.7975 241.066 49.138C242.168 49.4584 243.079 49.939 243.8 50.5799C244.541 51.2208 245.092 52.0018 245.453 52.923C245.813 53.8442 245.993 54.8956 245.993 56.0772C245.993 57.459 245.733 58.6406 245.212 59.6219C244.712 60.6032 244.011 61.4043 243.109 62.0251C242.228 62.6459 241.186 63.1066 239.985 63.4069C238.783 63.6873 237.501 63.8275 236.139 63.8275C235.359 63.8275 234.567 63.7774 233.766 63.6773C232.965 63.5772 232.174 63.3969 231.393 63.1365C230.632 62.8762 229.91 62.5258 229.229 62.0852C228.569 61.6246 227.988 61.0238 227.487 60.2828C227.006 59.5418 226.616 58.6506 226.316 57.6093C226.015 56.5679 225.865 55.3362 225.865 53.9143C225.865 51.4911 226.145 49.5185 226.706 47.9965C227.287 46.4545 228.098 45.2428 229.14 44.3617C230.181 43.4605 231.413 42.8296 232.835 42.4691C234.277 42.0886 235.869 41.8283 237.612 41.6881C238.553 41.608 239.354 41.5379 240.015 41.4778C240.676 41.3977 241.247 41.3176 241.727 41.2375C242.228 41.1574 242.658 41.0773 243.019 40.9972C243.399 40.8971 243.77 40.7969 244.131 40.6968V45.5032C243.89 45.6233 243.59 45.7335 243.229 45.8336C242.869 45.9337 242.458 46.0339 241.997 46.134C241.537 46.2141 241.026 46.2942 240.465 46.3743C239.925 46.4344 239.314 46.4945 238.633 46.5545C237.832 46.6146 237.071 46.6847 236.35 46.7648C235.629 46.8449 234.958 46.9551 234.337 47.0953C233.716 47.2355 233.155 47.4157 232.655 47.636C232.154 47.8563 231.723 48.1367 231.362 48.4771C231.002 48.8175 230.712 49.2281 230.491 49.7087C230.291 50.1694 230.181 50.7201 230.161 51.361ZM232.264 56.1673C232.264 56.5879 232.324 56.9984 232.444 57.399C232.584 57.7795 232.804 58.1199 233.105 58.4203C233.405 58.7007 233.806 58.931 234.307 59.1112C234.807 59.2714 235.419 59.3515 236.139 59.3515C236.8 59.3515 237.361 59.2714 237.821 59.1112C238.302 58.931 238.683 58.7007 238.963 58.4203C239.264 58.1199 239.474 57.7795 239.594 57.399C239.735 57.0184 239.804 56.6079 239.804 56.1673C239.804 55.7468 239.735 55.3462 239.594 54.9657C239.474 54.5852 239.264 54.2548 238.963 53.9744C238.683 53.6941 238.302 53.4738 237.821 53.3135C237.341 53.1533 236.75 53.0732 236.049 53.0732C235.348 53.0732 234.758 53.1633 234.277 53.3436C233.796 53.5038 233.405 53.7241 233.105 54.0044C232.804 54.2848 232.584 54.6153 232.444 54.9957C232.324 55.3763 232.264 55.7668 232.264 56.1673ZM248.848 69.6249L248.939 65.0892C249.219 65.1893 249.519 65.2594 249.839 65.2994C250.16 65.3595 250.46 65.3895 250.741 65.3895C251.161 65.3895 251.522 65.3495 251.822 65.2694C252.123 65.2093 252.383 65.1092 252.603 64.969C252.824 64.8288 253.004 64.6586 253.144 64.4583C253.304 64.2781 253.445 64.0578 253.565 63.7975L253.685 63.497L246.175 48.0866H252.844L257.771 60.3729H255.698L259.423 48.0866H265.551L259.723 63.0465C259.183 64.4483 258.642 65.5998 258.101 66.501C257.56 67.4222 256.979 68.1432 256.358 68.6639C255.738 69.2043 255.047 69.5752 254.286 69.7754C253.545 69.9757 252.674 70.0759 251.672 70.0759C251.232 70.0759 250.741 70.0358 250.2 69.9557C249.679 69.8756 249.229 69.7651 248.848 69.6249ZM273.194 53.0131V63.4069H267.215V48.0866H280.824V53.0131H273.194ZM292.673 57.7595V57.2187C292.493 57.1786 292.303 57.1486 292.102 57.1286C291.922 57.0885 291.722 57.0685 291.501 57.0685C291.281 57.0485 291.05 57.0385 290.81 57.0385C290.57 57.0184 290.309 57.0084 290.029 57.0084C289.488 57.0084 289.038 57.0385 288.677 57.0985C288.317 57.1386 288.016 57.2187 287.776 57.3389C287.556 57.439 287.395 57.5692 287.295 57.7294C287.195 57.8896 287.145 58.0698 287.145 58.2701C287.145 58.4704 287.185 58.6506 287.265 58.8109C287.366 58.9711 287.506 59.1112 287.686 59.2314C287.886 59.3515 288.147 59.4417 288.467 59.5017C288.808 59.5618 289.208 59.5919 289.668 59.5919C290.189 59.5919 290.63 59.5518 290.99 59.4717C291.371 59.3916 291.682 59.2714 291.922 59.1112C292.182 58.931 292.372 58.7307 292.493 58.5104C292.613 58.2901 292.673 58.0398 292.673 57.7595ZM298.651 54.0946V63.4069H293.033V61.184H292.944C292.783 61.4844 292.543 61.7848 292.222 62.0852C291.902 62.3655 291.501 62.6259 291.021 62.8662C290.54 63.1066 289.979 63.3068 289.338 63.467C288.717 63.6272 288.007 63.7073 287.205 63.7073C286.144 63.7073 285.232 63.5972 284.471 63.3769C283.711 63.1566 283.079 62.8462 282.579 62.4456C282.078 62.0452 281.697 61.5545 281.437 60.9737C281.197 60.3729 281.076 59.702 281.076 58.9611C281.076 58.1399 281.237 57.429 281.557 56.8282C281.878 56.2274 282.358 55.7268 282.999 55.3262C283.66 54.9256 284.491 54.6353 285.493 54.4551C286.514 54.2748 287.726 54.1847 289.128 54.1847C289.488 54.1847 289.849 54.1947 290.209 54.2147C290.57 54.2348 290.901 54.2548 291.201 54.2748C291.521 54.2948 291.802 54.3249 292.042 54.3649C292.303 54.385 292.513 54.405 292.673 54.425V53.9143C292.673 53.654 292.613 53.4237 292.493 53.2234C292.392 53.0031 292.202 52.8229 291.922 52.6827C291.662 52.5225 291.301 52.4023 290.84 52.3222C290.38 52.2421 289.789 52.2021 289.067 52.2021C288.467 52.2021 287.866 52.2421 287.265 52.3222C286.685 52.3823 286.124 52.4724 285.583 52.5926C285.042 52.7128 284.531 52.8429 284.05 52.9831C283.59 53.1233 283.179 53.2735 282.819 53.4337V48.9277C283.199 48.8075 283.651 48.6774 284.171 48.5372C284.691 48.377 285.263 48.2368 285.883 48.1166C286.524 47.9965 287.215 47.8963 287.956 47.8162C288.697 47.7161 289.468 47.666 290.269 47.666C291.711 47.666 292.964 47.7762 294.025 47.9965C295.086 48.2168 295.958 48.5773 296.639 49.0779C297.34 49.5786 297.85 50.2395 298.171 51.0605C298.491 51.8816 298.651 52.893 298.651 54.0946Z" fill="black"/>
<path d="M11.5963 57.7574V57.2167C11.4161 57.1766 11.2259 57.1466 11.0256 57.1265C10.8453 57.0865 10.645 57.0665 10.4247 57.0665C10.2044 57.0464 9.97407 57.0364 9.73372 57.0364C9.49336 57.0164 9.23305 57.0064 8.95263 57.0064C8.41184 57.0064 7.96124 57.0364 7.60071 57.0965C7.24018 57.1366 6.9398 57.2167 6.69945 57.3368C6.47912 57.437 6.31888 57.5672 6.21874 57.7274C6.11866 57.8876 6.06858 58.0678 6.06858 58.2681C6.06858 58.4683 6.10864 58.6486 6.18869 58.8088C6.28884 58.969 6.42905 59.1092 6.60931 59.2293C6.80961 59.3495 7.06999 59.4396 7.3904 59.4997C7.7309 59.5598 8.13149 59.5898 8.5921 59.5898C9.11287 59.5898 9.55345 59.5498 9.91398 59.4697C10.2945 59.3896 10.6049 59.2694 10.8453 59.1092C11.1057 58.929 11.296 58.7287 11.4161 58.5084C11.5362 58.2881 11.5963 58.0378 11.5963 57.7574ZM17.5747 54.0925V63.4049H11.9569V61.1819H11.8667C11.7065 61.4823 11.4661 61.7828 11.1457 62.0832C10.8253 62.3635 10.4247 62.6239 9.94403 62.8642C9.46332 63.1045 8.90256 63.3047 8.26161 63.465C7.64077 63.6252 6.92979 63.7053 6.12867 63.7053C5.06714 63.7053 4.15586 63.5952 3.39479 63.3748C2.63372 63.1545 2.00283 62.8442 1.50212 62.4436C1.00142 62.0431 0.620875 61.5524 0.360511 60.9717C0.120171 60.3709 0 59.7 0 58.959C0 58.1379 0.16023 57.427 0.480682 56.8262C0.801134 56.2254 1.28181 55.7247 1.92271 55.3242C2.58364 54.9236 3.41481 54.6333 4.41623 54.453C5.43767 54.2728 6.64937 54.1827 8.05137 54.1827C8.41184 54.1827 8.77237 54.1927 9.1329 54.2127C9.49336 54.2327 9.82385 54.2528 10.1243 54.2728C10.4447 54.2928 10.7251 54.3228 10.9655 54.3629C11.2259 54.3829 11.4361 54.403 11.5963 54.423V53.9123C11.5963 53.652 11.5362 53.4217 11.4161 53.2214C11.316 53.0011 11.1257 52.8208 10.8453 52.6807C10.5849 52.5205 10.2244 52.4003 9.76376 52.3202C9.30308 52.2401 8.71228 52.2 7.99128 52.2C7.3904 52.2 6.78958 52.2401 6.18869 52.3202C5.6079 52.3803 5.04712 52.4704 4.50636 52.5906C3.96559 52.7107 3.45487 52.8409 2.9742 52.981C2.51354 53.1212 2.10297 53.2715 1.74246 53.4317V48.9257C2.123 48.8055 2.57363 48.6753 3.09436 48.5352C3.61509 48.375 4.1859 48.2348 4.80678 48.1146C5.44768 47.9944 6.13869 47.8943 6.87971 47.8142C7.62074 47.7141 8.39181 47.664 9.19299 47.664C10.635 47.664 11.8868 47.7741 12.9483 47.9944C14.0098 48.2147 14.881 48.5753 15.5619 49.0759C16.2629 49.5766 16.7736 50.2374 17.0941 51.0585C17.4146 51.8796 17.5747 52.8909 17.5747 54.0925ZM26.5894 40.875V63.4049H20.6109V40.875H26.5894ZM40.6412 57.7574V57.2167C40.4609 57.1766 40.2707 57.1466 40.0704 57.1265C39.8902 57.0865 39.6899 57.0665 39.4695 57.0665C39.2492 57.0464 39.0189 57.0364 38.7786 57.0364C38.5382 57.0164 38.2779 57.0064 37.9974 57.0064C37.4567 57.0064 37.006 57.0364 36.6456 57.0965C36.285 57.1366 35.9846 57.2167 35.7443 57.3368C35.524 57.437 35.3638 57.5672 35.2636 57.7274C35.1635 57.8876 35.1134 58.0678 35.1134 58.2681C35.1134 58.4683 35.1534 58.6486 35.2336 58.8088C35.3337 58.969 35.4739 59.1092 35.6542 59.2293C35.8544 59.3495 36.1148 59.4396 36.4353 59.4997C36.7758 59.5598 37.1763 59.5898 37.637 59.5898C38.1577 59.5898 38.5983 59.5498 38.9588 59.4697C39.3393 59.3896 39.6498 59.2694 39.8902 59.1092C40.1505 58.929 40.3408 58.7287 40.4609 58.5084C40.5811 58.2881 40.6412 58.0378 40.6412 57.7574ZM46.6196 54.0925V63.4049H41.0017V61.1819H40.9116C40.7514 61.4823 40.511 61.7828 40.1905 62.0832C39.8701 62.3635 39.4695 62.6239 38.9888 62.8642C38.5082 63.1045 37.9474 63.3047 37.3065 63.465C36.6856 63.6252 35.9746 63.7053 35.1735 63.7053C34.112 63.7053 33.2007 63.5952 32.4396 63.3748C31.6785 63.1545 31.0477 62.8442 30.547 62.4436C30.0463 62.0431 29.6657 61.5524 29.4054 60.9717C29.165 60.3709 29.0448 59.7 29.0448 58.959C29.0448 58.1379 29.2051 57.427 29.5256 56.8262C29.846 56.2254 30.3267 55.7247 30.9675 55.3242C31.6285 54.9236 32.4597 54.6333 33.4611 54.453C34.4825 54.2728 35.6942 54.1827 37.0962 54.1827C37.4567 54.1827 37.8172 54.1927 38.1777 54.2127C38.5382 54.2327 38.8687 54.2528 39.1691 54.2728C39.4896 54.2928 39.77 54.3228 40.0103 54.3629C40.2707 54.3829 40.481 54.403 40.6412 54.423V53.9123C40.6412 53.652 40.5811 53.4217 40.4609 53.2214C40.3608 53.0011 40.1705 52.8208 39.8902 52.6807C39.6298 52.5205 39.2692 52.4003 38.8086 52.3202C38.348 52.2401 37.7572 52.2 37.0361 52.2C36.4353 52.2 35.8344 52.2401 35.2336 52.3202C34.6528 52.3803 34.0919 52.4704 33.5512 52.5906C33.0104 52.7107 32.4997 52.8409 32.019 52.981C31.5584 53.1212 31.1478 53.2715 30.7873 53.4317V48.9257C31.1678 48.8055 31.6185 48.6753 32.1392 48.5352C32.66 48.375 33.2307 48.2348 33.8516 48.1146C34.4925 47.9944 35.1835 47.8943 35.9245 47.8142C36.6656 47.7141 37.4367 47.664 38.2378 47.664C39.6799 47.664 40.9316 47.7741 41.9931 47.9944C43.0546 48.2147 43.9258 48.5753 44.6068 49.0759C45.3077 49.5766 45.8185 50.2374 46.1389 51.0585C46.4594 51.8796 46.6196 52.8909 46.6196 54.0925ZM55.5141 61.4823V63.4049H49.6557V40.875H55.6342V50.2174H55.7243C55.9446 49.897 56.225 49.5866 56.5655 49.2862C56.926 48.9858 57.3466 48.7254 57.8273 48.5052C58.328 48.2848 58.8988 48.1146 59.5397 47.9944C60.1806 47.8542 60.9116 47.7841 61.7328 47.7841C62.8944 47.7841 63.9459 47.9344 64.8873 48.2348C65.8286 48.5352 66.6197 49.0058 67.2606 49.6467C67.9215 50.2675 68.4224 51.0685 68.7629 52.0498C69.1234 53.0111 69.3037 54.1526 69.3037 55.4744C69.3037 56.8362 69.1435 58.0277 68.823 59.0491C68.5025 60.0504 68.0117 60.9016 67.3507 61.6025C66.6898 62.3034 65.8686 62.8342 64.8873 63.1946C63.9258 63.5351 62.7843 63.7053 61.4624 63.7053C60.7014 63.7053 60.0003 63.6352 59.3594 63.495C58.7385 63.3748 58.1878 63.2146 57.7071 63.0144C57.2264 62.8141 56.8058 62.5838 56.4454 62.3234C56.1049 62.0632 55.8144 61.7828 55.5741 61.4823H55.5141ZM59.4195 59.2293C60.0404 59.2293 60.5712 59.1693 61.0118 59.0491C61.4724 58.909 61.8529 58.6987 62.1534 58.4183C62.4538 58.1179 62.6741 57.7374 62.8143 57.2768C62.9545 56.8162 63.0246 56.2554 63.0246 55.5945C63.0246 54.9937 62.9344 54.4831 62.7543 54.0625C62.594 53.6219 62.3537 53.2714 62.0332 53.0111C61.7128 52.7508 61.3322 52.5605 60.8916 52.4404C60.451 52.3202 59.9603 52.2601 59.4195 52.2601C58.8186 52.2601 58.2779 52.3302 57.7972 52.4704C57.3366 52.6106 56.946 52.8308 56.6256 53.1313C56.3051 53.4116 56.0548 53.7722 55.8745 54.2127C55.7143 54.6533 55.6342 55.174 55.6342 55.7748C55.6342 56.3355 55.7143 56.8362 55.8745 57.2768C56.0548 57.6973 56.3051 58.0578 56.6256 58.3582C56.9661 58.6386 57.3666 58.8589 57.8273 59.019C58.308 59.1592 58.8387 59.2293 59.4195 59.2293ZM71.6568 57.9076V48.0846H77.665V56.0151C77.665 56.5959 77.7154 57.0865 77.8156 57.4871C77.9157 57.8676 78.076 58.1679 78.2963 58.3882C78.5166 58.6085 78.7963 58.7688 79.1368 58.8689C79.4974 58.949 79.938 58.9891 80.4588 58.9891C81.0597 58.9891 81.5708 58.919 81.9914 58.7788C82.4321 58.6386 82.7926 58.4183 83.073 58.1179C83.3534 57.7975 83.5537 57.3969 83.6739 56.9163C83.8134 56.4357 83.8839 55.8549 83.8839 55.174V48.0846H89.8623V63.4049H83.8839V61.242H83.8238C83.5033 61.6826 83.1331 62.0632 82.7125 62.3835C82.2918 62.684 81.8312 62.9343 81.3304 63.1345C80.8297 63.3348 80.2889 63.475 79.708 63.5551C79.1472 63.6552 78.5664 63.7053 77.9655 63.7053C76.964 63.7053 76.073 63.5952 75.2919 63.3748C74.5307 63.1345 73.8794 62.7841 73.3393 62.3234C72.7985 61.8428 72.3779 61.242 72.0775 60.5211C71.797 59.7801 71.6568 58.909 71.6568 57.9076ZM106.117 50.2174V48.0846H111.975V62.3234C111.975 63.9056 111.675 65.1873 111.074 66.1686C110.493 67.1699 109.702 67.961 108.7 68.5417C107.719 69.1222 106.577 69.5227 105.275 69.743C103.994 69.9633 102.642 70.0738 101.22 70.0738C100.519 70.0738 99.8281 70.0434 99.1471 69.9834C98.4661 69.9433 97.8155 69.8832 97.1945 69.8031C96.5736 69.723 96.0024 69.6332 95.4817 69.5331C94.9609 69.453 94.5306 69.3528 94.1901 69.2327V64.4563C94.4905 64.5564 94.8511 64.6566 95.2717 64.7567C95.7123 64.8769 96.193 64.977 96.7138 65.0571C97.2346 65.1573 97.8051 65.2373 98.426 65.2974C99.0469 65.3575 99.7176 65.3875 100.439 65.3875C101.54 65.3875 102.442 65.3074 103.143 65.1472C103.844 64.987 104.404 64.7467 104.825 64.4262C105.246 64.1259 105.536 63.7554 105.696 63.3148C105.876 62.8542 105.967 62.3234 105.967 61.7227V60.9417H105.907C105.686 61.262 105.386 61.5825 105.005 61.9029C104.645 62.2033 104.224 62.4737 103.744 62.714C103.283 62.9343 102.762 63.1045 102.181 63.2246C101.62 63.3448 101.03 63.4049 100.409 63.4049C99.1471 63.4049 98.0157 63.2647 97.0143 62.9844C96.0128 62.704 95.1612 62.2734 94.4602 61.6926C93.7791 61.0918 93.2487 60.3208 92.8681 59.3796C92.4876 58.4383 92.2976 57.3068 92.2976 55.985C92.2976 54.6233 92.4579 53.4417 92.7784 52.4404C93.1182 51.419 93.6189 50.5679 94.2799 49.8869C94.9409 49.186 95.7724 48.6653 96.7739 48.3249C97.7954 47.9644 98.9765 47.7841 100.318 47.7841C101.06 47.7841 101.731 47.8542 102.332 47.9944C102.933 48.1346 103.463 48.3149 103.924 48.5352C104.404 48.7554 104.825 49.0158 105.186 49.3162C105.546 49.5966 105.836 49.897 106.057 50.2174H106.117ZM102.181 52.2601C101.6 52.2601 101.08 52.3302 100.619 52.4704C100.158 52.5906 99.7777 52.7908 99.4772 53.0712C99.1768 53.3315 98.9468 53.672 98.7865 54.0925C98.6463 54.5131 98.5759 55.0137 98.5759 55.5945C98.5759 56.1753 98.6664 56.676 98.8466 57.0965C99.0269 57.5171 99.2769 57.8676 99.5974 58.1479C99.9179 58.4283 100.298 58.6386 100.739 58.7788C101.18 58.899 101.68 58.959 102.241 58.959C102.842 58.959 103.373 58.8789 103.833 58.7187C104.294 58.5585 104.685 58.3382 105.005 58.0578C105.326 57.7775 105.566 57.437 105.726 57.0364C105.887 56.6159 105.967 56.1352 105.967 55.5945C105.967 55.0738 105.887 54.6032 105.726 54.1827C105.586 53.7621 105.356 53.4116 105.035 53.1313C104.735 52.8509 104.344 52.6406 103.864 52.5004C103.383 52.3402 102.822 52.2601 102.181 52.2601ZM126.045 57.7574V57.2167C125.864 57.1766 125.674 57.1466 125.474 57.1265C125.294 57.0865 125.094 57.0665 124.873 57.0665C124.653 57.0464 124.422 57.0364 124.182 57.0364C123.942 57.0164 123.681 57.0064 123.401 57.0064C122.86 57.0064 122.41 57.0364 122.049 57.0965C121.689 57.1366 121.388 57.2167 121.148 57.3368C120.927 57.437 120.767 57.5672 120.667 57.7274C120.567 57.8876 120.517 58.0678 120.517 58.2681C120.517 58.4683 120.557 58.6486 120.637 58.8088C120.738 58.969 120.878 59.1092 121.058 59.2293C121.258 59.3495 121.519 59.4396 121.838 59.4997C122.179 59.5598 122.58 59.5898 123.04 59.5898C123.561 59.5898 124.002 59.5498 124.362 59.4697C124.743 59.3896 125.054 59.2694 125.294 59.1092C125.554 58.929 125.744 58.7287 125.864 58.5084C125.985 58.2881 126.045 58.0378 126.045 57.7574ZM132.023 54.0925V63.4049H126.405V61.1819H126.315C126.155 61.4823 125.915 61.7828 125.594 62.0832C125.274 62.3635 124.873 62.6239 124.393 62.8642C123.912 63.1045 123.351 63.3047 122.71 63.465C122.089 63.6252 121.379 63.7053 120.577 63.7053C119.516 63.7053 118.604 63.5952 117.843 63.3748C117.082 63.1545 116.451 62.8442 115.95 62.4436C115.45 62.0431 115.069 61.5524 114.809 60.9717C114.568 60.3709 114.448 59.7 114.448 58.959C114.448 58.1379 114.609 57.427 114.929 56.8262C115.249 56.2254 115.73 55.7247 116.371 55.3242C117.032 54.9236 117.863 54.6333 118.864 54.453C119.886 54.2728 121.098 54.1827 122.499 54.1827C122.86 54.1827 123.221 54.1927 123.581 54.2127C123.942 54.2327 124.272 54.2528 124.573 54.2728C124.893 54.2928 125.174 54.3228 125.414 54.3629C125.674 54.3829 125.884 54.403 126.045 54.423V53.9123C126.045 53.652 125.985 53.4217 125.864 53.2214C125.764 53.0011 125.574 52.8208 125.294 52.6807C125.034 52.5205 124.673 52.4003 124.212 52.3202C123.752 52.2401 123.16 52.2 122.439 52.2C121.838 52.2 121.238 52.2401 120.637 52.3202C120.057 52.3803 119.496 52.4704 118.955 52.5906C118.414 52.7107 117.903 52.8409 117.422 52.981C116.962 53.1212 116.551 53.2715 116.191 53.4317V48.9257C116.571 48.8055 117.022 48.6753 117.542 48.5352C118.063 48.375 118.634 48.2348 119.255 48.1146C119.896 47.9944 120.587 47.8943 121.328 47.8142C122.069 47.7141 122.84 47.664 123.641 47.664C125.083 47.664 126.335 47.7741 127.396 47.9944C128.458 48.2147 129.33 48.5753 130.011 49.0759C130.712 49.5766 131.222 50.2374 131.542 51.0585C131.863 51.8796 132.023 52.8909 132.023 54.0925Z" fill="black"/>
<path d="M176.173 74.6245V89.2732H173.64V76.9477H167.404V89.2732H164.85V74.6245H176.173ZM185.951 87.2228C186.607 87.2228 187.179 87.1178 187.668 86.9085C188.17 86.6993 188.588 86.3788 188.923 85.9458C189.272 85.4997 189.53 84.9486 189.697 84.2932C189.865 83.6371 189.948 82.856 189.948 81.9492C189.948 81.0141 189.858 80.2123 189.676 79.5424C189.495 78.8732 189.223 78.329 188.86 77.9105C188.512 77.4781 188.072 77.1639 187.542 76.9685C187.025 76.773 186.419 76.6756 185.721 76.6756C185.093 76.6756 184.521 76.7799 184.005 76.9892C183.503 77.1846 183.07 77.4989 182.707 77.9312C182.358 78.3635 182.086 78.9146 181.891 79.5845C181.71 80.2399 181.619 81.0286 181.619 81.9492C181.619 82.856 181.717 83.644 181.912 84.3139C182.108 84.9693 182.387 85.5135 182.749 85.9458C183.126 86.3788 183.579 86.6993 184.109 86.9085C184.64 87.1178 185.254 87.2228 185.951 87.2228ZM185.805 89.5039C184.689 89.5039 183.705 89.3361 182.854 89.0011C182.003 88.6668 181.284 88.1855 180.698 87.5577C180.112 86.9154 179.665 86.1274 179.359 85.193C179.066 84.2579 178.919 83.1771 178.919 81.9492C178.919 80.7213 179.073 79.6405 179.379 78.7054C179.701 77.771 180.154 76.9892 180.74 76.3614C181.326 75.7198 182.038 75.2316 182.875 74.8966C183.726 74.5624 184.674 74.3945 185.721 74.3945C186.893 74.3945 187.911 74.5693 188.777 74.918C189.641 75.2668 190.36 75.7689 190.932 76.4243C191.504 77.0803 191.93 77.8752 192.209 78.8103C192.502 79.7309 192.648 80.7772 192.648 81.9492C192.648 83.2469 192.488 84.3698 192.167 85.318C191.846 86.2531 191.385 87.0342 190.785 87.662C190.2 88.276 189.481 88.7366 188.63 89.0432C187.793 89.3499 186.851 89.5039 185.805 89.5039ZM206.546 74.6245V89.2732H203.992V76.9477H199.513C199.486 78.9284 199.423 80.7006 199.325 82.2627C199.242 83.8118 199.053 85.1233 198.76 86.1972C198.467 87.2573 198.035 88.0667 197.463 88.6247C196.905 89.1827 196.123 89.4617 195.119 89.4617C194.923 89.4617 194.763 89.4479 194.637 89.4196C194.511 89.4058 194.372 89.3713 194.219 89.3153V86.9299C194.317 86.9438 194.407 86.9576 194.491 86.9714C194.589 86.9714 194.686 86.9714 194.784 86.9714C195.161 86.9714 195.481 86.8388 195.746 86.5736C196.025 86.2946 196.248 85.7787 196.416 85.0252C196.597 84.2718 196.73 83.2393 196.814 81.9285C196.912 80.6025 196.974 78.8939 197.002 76.8013L197.023 74.6245H206.546ZM221.617 74.6245V89.2732H219.085V77.387H219.608L212.597 89.2732H209.813V74.6245H212.367V86.5114H211.823L218.854 74.6245H221.617ZM230.422 76.9892V89.2732H227.889V76.9892H223.641V74.6245H234.67V76.9892H230.422ZM245.48 86.9921V89.2732H236.648V74.6245H245.48V76.9056H239.202V80.6515H244.831V82.807H239.202V86.9921H245.48ZM260.095 89.2732H256.935L253.21 82.9534H253.838L250.134 89.2732H247.099L251.787 81.6771L247.539 74.6245H250.573L253.9 80.5258H253.293L256.747 74.6245H259.677L255.345 81.635L260.095 89.2732Z" fill="black"/>
<path d="M36.9941 76.9056V82.0114H39.024C39.5542 82.0114 40.0007 81.9623 40.3634 81.8649C40.7261 81.7531 41.0191 81.5928 41.2424 81.3836C41.4795 81.1743 41.6469 80.9091 41.7446 80.5887C41.8562 80.2675 41.912 79.8842 41.912 79.4374C41.912 78.9913 41.8562 78.6073 41.7446 78.2868C41.6469 77.9657 41.4795 77.7005 41.2424 77.4913C41.0191 77.282 40.7261 77.1356 40.3634 77.052C40.0007 76.9547 39.5472 76.9056 39.0031 76.9056H36.9941ZM37.0359 84.3132V89.2725H34.4828V74.6245H39.2333C40.1262 74.6245 40.9005 74.7157 41.5563 74.8966C42.212 75.0782 42.7631 75.3711 43.2095 75.7758C43.6699 76.166 44.0117 76.6611 44.235 77.2613C44.4582 77.8469 44.5698 78.5521 44.5698 79.3746C44.5698 80.1564 44.4582 80.8539 44.235 81.4671C44.0117 82.0811 43.6699 82.6046 43.2095 83.0369C42.7491 83.4554 42.1701 83.7759 41.4726 83.9996C40.7889 84.2089 39.9728 84.3132 39.024 84.3132H37.0359ZM53.4164 87.2221C54.0721 87.2221 54.6441 87.1171 55.1324 86.9078C55.6347 86.6986 56.0532 86.3781 56.3881 85.9458C56.7369 85.499 56.995 84.9479 57.1624 84.2925C57.3298 83.6364 57.4135 82.8553 57.4135 81.9485C57.4135 81.0141 57.3228 80.2116 57.1415 79.5424C56.9601 78.8725 56.688 78.3283 56.3253 77.9098C55.9765 77.4774 55.537 77.1639 55.0069 76.9685C54.4907 76.773 53.8838 76.6756 53.1862 76.6756C52.5584 76.6756 51.9863 76.7799 51.4701 76.9892C50.9679 77.1846 50.5354 77.4982 50.1726 77.9312C49.8238 78.3635 49.5518 78.9146 49.3565 79.5838C49.1751 80.2399 49.0844 81.0279 49.0844 81.9485C49.0844 82.8553 49.1821 83.644 49.3774 84.3132C49.5727 84.9693 49.8517 85.5128 50.2145 85.9458C50.5912 86.3781 51.0446 86.6986 51.5748 86.9078C52.1049 87.1171 52.7188 87.2221 53.4164 87.2221ZM53.2699 89.5032C52.1538 89.5032 51.1702 89.3354 50.3191 89.0004C49.4681 88.6662 48.7496 88.1848 48.1636 87.557C47.5776 86.9147 47.1312 86.1267 46.8242 85.1923C46.5313 84.2572 46.3848 83.1764 46.3848 81.9485C46.3848 80.7213 46.5382 79.6398 46.8452 78.7054C47.1661 77.7703 47.6195 76.9892 48.2055 76.3614C48.7914 75.7198 49.503 75.2316 50.3401 74.8966C51.1911 74.5617 52.1398 74.3945 53.1862 74.3945C54.3581 74.3945 55.3766 74.5686 56.2416 74.9173C57.1066 75.2661 57.8251 75.7689 58.3971 76.4243C58.9691 77.0797 59.3947 77.8752 59.6737 78.8097C59.9667 79.7302 60.1132 80.7765 60.1132 81.9485C60.1132 83.2462 59.9527 84.3691 59.6318 85.318C59.311 86.2524 58.8505 87.0335 58.2506 87.6613C57.6647 88.2753 56.9462 88.7359 56.0951 89.0425C55.258 89.3492 54.3163 89.5032 53.2699 89.5032ZM71.4931 86.9078V89.2725H62.8288V74.6245H65.382V86.9078H71.4931ZM77.4412 83.4347V89.2725H74.9085V83.4347L69.7602 74.6245H72.7322L76.5199 81.2165H75.9135L79.5961 74.6245H82.5681L77.4412 83.4347ZM90.3644 76.9892V89.2725H87.8317V76.9892H83.5841V74.6245H94.6128V76.9892H90.3644ZM105.422 86.9921V89.2725H96.5909V74.6245H105.422V76.9056H99.1436V80.6515H104.773V82.8069H99.1436V86.9921H105.422ZM117.693 86.5314V88.9376C117.303 89.1192 116.828 89.2587 116.27 89.3561C115.712 89.4541 115.028 89.5032 114.219 89.5032C113.061 89.5032 112.036 89.3492 111.143 89.0425C110.25 88.7214 109.497 88.2545 108.883 87.6406C108.283 87.0128 107.83 86.2455 107.522 85.3388C107.216 84.4182 107.062 83.3505 107.062 82.137C107.062 80.8677 107.209 79.7517 107.501 78.7889C107.809 77.8262 108.269 77.0175 108.883 76.3614C109.511 75.706 110.285 75.2177 111.206 74.8966C112.141 74.5617 113.229 74.3945 114.47 74.3945C114.847 74.3945 115.189 74.4152 115.496 74.4574C115.816 74.485 116.11 74.5202 116.375 74.5617C116.654 74.6038 116.898 74.6528 117.107 74.7081C117.317 74.764 117.505 74.82 117.672 74.8759V77.2406C117.449 77.157 117.205 77.0872 116.94 77.0313C116.689 76.9754 116.431 76.9263 116.165 76.8849C115.915 76.829 115.67 76.7937 115.433 76.7799C115.196 76.7523 114.979 76.7385 114.785 76.7385C113.919 76.7385 113.166 76.8428 112.524 77.052C111.896 77.2475 111.373 77.561 110.955 77.994C110.55 78.4125 110.25 78.9492 110.055 79.6052C109.859 80.2606 109.762 81.0417 109.762 81.9485C109.762 82.8277 109.866 83.5949 110.076 84.2503C110.285 84.8919 110.599 85.4292 111.018 85.8615C111.436 86.2946 111.959 86.6219 112.587 86.845C113.215 87.0542 113.954 87.1592 114.805 87.1592C115.294 87.1592 115.761 87.1171 116.207 87.0335C116.668 86.9361 117.163 86.7683 117.693 86.5314ZM132.244 74.6245V89.2725H129.691V82.8691H122.994V89.2725H120.441V74.6245H122.994V80.5673H129.691V74.6245H132.244Z" fill="black"/>
<path d="M158.066 7.21675C154.802 4.36183 151.56 1.93848 148.45 0C145.339 1.93848 142.098 4.36183 138.833 7.21675C141.938 8.96484 145.181 11.2157 148.45 13.895C151.718 11.2157 154.961 8.96484 158.066 7.21675Z" fill="black"/>
<path d="M164.864 31.0185C167.982 28.534 171.065 26.4451 174.02 24.8169C172.139 22.2216 170.088 19.6329 167.877 17.093C167.696 16.8873 167.517 16.6856 167.337 16.481C166.047 17.1697 164.72 17.9545 163.362 18.8333C161.547 20.0095 159.714 21.3316 157.882 22.7823C158.759 23.7223 159.631 24.6858 160.493 25.6766C162.018 27.4268 163.477 29.2129 164.864 31.0185Z" fill="black"/>
<path d="M149.25 14.5617C151.902 16.7903 154.565 19.295 157.179 22.0388C160.403 19.4753 163.59 17.3355 166.634 15.6938C164.079 12.8576 161.477 10.2641 158.881 7.93945C157.809 8.53414 156.713 9.19334 155.597 9.916C153.495 11.2782 151.371 12.8348 149.25 14.5617Z" fill="black"/>
<path d="M139.018 22.7824C137.185 21.3311 135.353 20.0086 133.538 18.8329C132.18 17.9545 130.853 17.1697 129.563 16.481C129.383 16.6843 129.201 16.8869 129.023 17.0933C126.811 19.6329 124.76 22.2219 122.879 24.8175C125.834 26.4454 128.918 28.5325 132.035 31.0188C133.423 29.2124 134.882 27.427 136.407 25.6758C137.27 24.6856 138.141 23.7202 139.018 22.7824Z" fill="black"/>
<path d="M153.81 37.4464C153.727 37.3462 153.644 37.2446 153.561 37.1444C153.452 37.0141 153.343 36.8843 153.234 36.7543C153.109 36.6056 152.983 36.4572 152.857 36.3088C152.774 36.2114 152.691 36.1138 152.608 36.0169C152.393 35.7652 152.177 35.5136 151.959 35.2629C151.224 34.4188 150.482 33.592 149.732 32.7825C149.72 32.7696 149.709 32.7572 149.697 32.7458C149.521 32.5559 149.345 32.3666 149.168 32.1791C148.93 31.9234 148.689 31.6719 148.448 31.4204C148.019 31.8685 147.591 32.3226 147.165 32.7825C146.416 33.5923 145.673 34.4188 144.938 35.2629C144.719 35.5136 144.503 35.7652 144.288 36.0174C144.206 36.1138 144.124 36.2107 144.043 36.3067C143.915 36.4559 143.788 36.6056 143.663 36.7564C143.554 36.8844 143.446 37.0136 143.338 37.1434C143.253 37.2446 143.17 37.3467 143.085 37.4482C142.501 38.1556 141.928 38.8663 141.366 39.5817C142.575 40.8419 143.775 42.1525 144.958 43.5115C145.177 43.7618 145.394 44.0135 145.609 44.2656C145.695 44.3663 145.782 44.4689 145.869 44.5699C145.989 44.7121 146.109 44.854 146.229 44.996C146.346 45.1364 146.463 45.2762 146.58 45.4159C146.644 45.4935 146.708 45.5699 146.772 45.6469C147.341 46.3343 147.901 47.0254 148.449 47.7206C148.999 47.0254 149.558 46.333 150.128 45.6453C150.192 45.5694 150.254 45.4935 150.318 45.4176C150.435 45.2762 150.552 45.1353 150.671 44.9946C150.79 44.8527 150.909 44.7121 151.029 44.5714C151.116 44.4694 151.202 44.3671 151.29 44.2656C151.505 44.0135 151.721 43.7618 151.94 43.5115C153.124 42.1522 154.323 40.8419 155.533 39.5817C154.971 38.8666 154.396 38.1543 153.811 37.4464H153.81Z" fill="black"/>
<path d="M130.264 15.6941C133.307 17.3358 136.495 19.4753 139.719 22.0388C142.333 19.294 144.996 16.7903 147.648 14.5617C145.527 12.8348 143.403 11.2769 141.302 9.91621C140.185 9.19355 139.089 8.53414 138.018 7.93945C135.423 10.2641 132.82 12.8582 130.264 15.6941Z" fill="black"/>
</svg>
