<svg width="283" height="41" viewBox="0 0 283 41" fill="none" xmlns="http://www.w3.org/2000/svg">
<path d="M11.1447 6.94155C17.222 6.94155 22.13 11.3897 22.13 17.4683C22.13 23.5469 17.1334 28.0482 11.4636 28.0482C8.80591 28.0482 6.23678 27.3039 4.28779 25.0887H4.05745V40.4181H0V19.1342C0 11.691 4.28779 6.92383 11.1447 6.92383V6.94155ZM11.0738 24.5039C15.0959 24.5039 17.8422 21.3139 17.8422 17.4683C17.8422 13.6227 15.149 10.5036 11.0738 10.5036C6.99866 10.5036 4.18148 13.6227 4.18148 17.4506C4.18148 21.2785 7.01638 24.5039 11.0738 24.5039Z" fill="black"/>
<path d="M25.8887 17.4992C25.8887 11.4206 30.9738 6.93701 36.9625 6.93701C42.9512 6.93701 48.0363 11.4206 48.0363 17.4992C48.0363 23.5778 42.9512 28.0614 36.9625 28.0614C30.9738 28.0614 25.8887 23.5778 25.8887 17.4992ZM36.9625 24.4993C41.02 24.4993 43.7663 21.3803 43.7663 17.4992C43.7663 13.6181 41.02 10.4991 36.9625 10.4991C32.9051 10.4991 30.1587 13.6004 30.1587 17.4992C30.1587 21.398 32.9051 24.4993 36.9625 24.4993Z" fill="black"/>
<path d="M62.9967 28.0614C56.6359 28.0614 51.7988 23.6132 51.7988 17.4992C51.7988 11.3852 56.5119 6.93701 62.855 6.93701C67.7097 6.93701 72.2633 9.57756 73.415 14.5751H69.2512C68.2413 11.8814 65.8139 10.4991 62.979 10.4991C58.6912 10.4991 56.0866 13.689 56.0866 17.5524C56.0866 21.4157 58.7798 24.4993 63.0499 24.4993C65.8316 24.4993 68.3476 23.2234 69.3221 20.2993H73.5213C72.0152 25.6158 67.6743 28.0614 62.9967 28.0614Z" fill="black"/>
<path d="M88.5421 25.1401L81.8978 11.2284H81.7737V27.6388H77.8757V7.38281H84.0948L90.6859 21.2413H90.81L97.4011 7.38281H103.62V27.6388H99.7222V11.2284H99.5982L92.9539 25.1401H88.5598H88.5421Z" fill="black"/>
<path d="M107.946 17.4992C107.946 11.4206 113.031 6.93701 119.02 6.93701C125.009 6.93701 130.094 11.4206 130.094 17.4992C130.094 23.5778 125.009 28.0614 119.02 28.0614C113.031 28.0614 107.946 23.5778 107.946 17.4992ZM119.038 24.4993C123.095 24.4993 125.842 21.3803 125.842 17.4992C125.842 13.6181 123.095 10.4991 119.038 10.4991C114.98 10.4991 112.234 13.6004 112.234 17.4992C112.234 21.398 114.98 24.4993 119.038 24.4993Z" fill="black"/>
<path d="M132.173 27.8157V23.6156H132.262C133.041 23.6156 133.998 23.2612 134.583 22.6054C135.327 21.7725 135.717 20.2662 136.124 18.0687L136.709 14.8256C137.382 11.0863 138.711 7.31152 144.31 7.31152H152.212V27.6562H148.155V11.0863H145.001C141.847 11.0863 141.192 11.9546 140.43 16.261L139.916 19.2915C139.455 22.0738 138.764 24.4662 137.311 26.008C136.213 27.16 134.671 27.8334 132.634 27.8334H132.209L132.173 27.8157Z" fill="black"/>
<path d="M156.659 17.4992C156.659 11.4206 161.745 6.93701 167.733 6.93701C173.722 6.93701 178.807 11.4206 178.807 17.4992C178.807 23.5778 173.722 28.0614 167.733 28.0614C161.745 28.0614 156.659 23.5778 156.659 17.4992ZM167.751 24.4993C171.808 24.4993 174.555 21.3803 174.555 17.4992C174.555 13.6181 171.808 10.4991 167.751 10.4991C163.694 10.4991 160.947 13.6004 160.947 17.4992C160.947 21.398 163.694 24.4993 167.751 24.4993Z" fill="black"/>
<path d="M183.505 32.5651H179.607V23.8814H182.247C183.399 22.5877 184.019 20.6383 184.568 18.299L185.437 14.542C186.269 10.9268 187.829 7.31152 192.843 7.31152H200.71V23.8814H203.633V32.5651H199.735V27.6384H183.541V32.5651H183.505ZM196.705 23.97V11.0154H192.914C190.451 11.0154 189.618 12.9825 189.122 15.0737L188.218 18.9725C187.722 21.1345 186.978 22.9422 186.216 23.6865V23.97H196.688H196.705Z" fill="black"/>
<path d="M217.758 28.0891C211.309 28.0891 206.613 23.6409 206.613 17.5269C206.613 11.4128 211.326 6.96467 217.599 6.96467C222.453 6.96467 228.3 10.1546 228.3 17.8459V18.6788H210.653C211.078 22.0637 213.718 24.527 217.705 24.527C220.079 24.527 222.914 23.6586 223.694 21.6029H227.857C226.582 26.0511 221.869 28.0891 217.74 28.0891H217.758ZM210.724 0H214.923V4.20007H210.724V0ZM224.101 15.5952C223.463 12.5293 221.089 10.4736 217.563 10.4736C214.037 10.4736 211.61 12.6711 210.848 15.5952H224.101ZM219.849 0H224.048V4.20007H219.849V0Z" fill="black"/>
<path d="M247.403 7.38281V15.4285H250.788L255.554 7.38281H260.001L254.066 17.0412L260.479 27.6211H255.944L250.823 19.0792H247.386V27.6211H243.576V19.0792H240.139L235.019 27.6211H230.483L236.897 17.0412L230.961 7.38281H235.408L240.174 15.4285H243.559V7.38281H247.368H247.403Z" fill="black"/>
<path d="M263.356 18.5121L263.303 7.38281H267.361L267.396 13.1424H267.52C269.221 11.0512 271.4 10.0411 274.005 10.0411C278.984 10.0411 283.006 13.7449 283.006 18.9197C283.006 24.0945 278.895 28.0642 273.261 28.0642C267.626 28.0642 263.427 24.0413 263.392 18.5121H263.356ZM273.137 24.5021C276.344 24.5021 278.683 22.2514 278.683 19.0969C278.683 15.9425 276.344 13.6209 273.137 13.6209C269.93 13.6209 267.609 15.9425 267.609 19.0969C267.609 22.2514 269.948 24.5021 273.137 24.5021Z" fill="black"/>
</svg>
