<svg width="343" height="449" viewBox="0 0 343 449" fill="none" xmlns="http://www.w3.org/2000/svg">
<path d="M110.763 156.341C116.766 156.341 122.826 161.089 122.826 169.116C122.826 177.143 117.314 183.035 108.689 183.035C99.247 183.035 94.0618 176.538 94.0618 169.279C94.0618 164.421 95.9183 160.982 98.703 156.835L107.11 144.608H116.062L107.982 156.619C108.8 156.455 109.728 156.345 110.766 156.345L110.763 156.341ZM102.302 169.116C102.302 172.608 104.866 175.229 108.415 175.229C111.965 175.229 114.582 172.608 114.582 169.116C114.582 165.623 112.018 162.949 108.415 162.949C104.813 162.949 102.302 165.57 102.302 169.116Z" fill="white"/>
<path d="M65.1314 148.436C67.4254 146.199 71.2982 144.069 76.9209 144.069C85.218 144.069 90.0229 149.308 90.0229 155.969C90.0229 161.702 86.6941 165.468 82.4904 170.49L78.7241 175.021H92.2598V182.5H63.4956L76.5937 166.507C79.7589 162.74 81.6154 160.23 81.6154 157.228C81.6154 153.736 79.1578 151.769 75.5019 151.769C71.4618 151.769 67.5852 154.28 65.1314 157.392V148.44V148.436Z" fill="white"/>
<path d="M46.3076 183.038C37.0289 183.038 30.6948 175.342 30.6948 163.552C30.6948 151.763 37.0251 144.01 46.3076 144.01C55.59 144.01 61.9736 151.706 61.9736 163.552C61.9736 175.399 55.6433 183.038 46.3076 183.038ZM39.1023 163.552C39.1023 170.594 42.0506 175.505 46.3076 175.505C50.5646 175.505 53.5661 170.594 53.5661 163.552C53.5661 156.511 50.6178 151.542 46.3076 151.542C41.9973 151.542 39.1023 156.454 39.1023 163.552Z" fill="white"/>
<path d="M1.63584 148.436C3.92982 146.199 7.80258 144.069 13.4253 144.069C21.7224 144.069 26.5272 149.308 26.5272 155.969C26.5272 161.702 23.1985 165.468 18.9948 170.49L15.2285 175.021H28.7642V182.5H0L13.1019 166.507C16.2671 162.74 18.1236 160.23 18.1236 157.228C18.1236 153.736 15.666 151.769 12.0101 151.769C7.96997 151.769 4.09721 154.28 1.63964 157.392V148.44L1.63584 148.436Z" fill="white"/>
<path d="M129.382 117.2H120.251L114.621 72.3182H110.665C110.893 98.6396 103.969 118.494 92.4844 118.494C81.9125 118.494 78.8691 105.031 84.3434 93.6941H92.9409C89.5932 100.922 89.2889 109.82 92.3322 109.82C98.419 109.82 103.893 83.9553 102.071 63.9489H122.686L129.382 117.2ZM237.905 62.8115C256.998 62.8115 251.063 93.7702 231.209 93.774C228.014 93.774 225.198 93.0132 222.688 91.5676C222.383 93.3936 222.231 95.2957 222.231 97.2739C222.231 104.73 224.742 109.9 228.927 109.904C233.416 109.904 238.741 103.285 241.176 93.7778H249.85C246.883 107.089 239.731 118.273 228.93 118.273C218.13 118.273 213.109 108.614 213.109 97.2777C213.109 92.4844 213.869 87.9231 215.239 83.8146C212.272 78.6408 210.446 71.7932 209.761 63.9604H218.13C218.435 67.8407 219.043 71.2645 219.956 74.2318C224.826 67.1559 231.593 62.8229 237.908 62.8229L237.905 62.8115ZM69.3015 62.9637C79.7251 62.9637 83.2211 71.6373 83.2211 81.9049C83.2211 96.2049 75.9931 118.113 61.617 118.113C51.1972 118.113 47.6973 109.44 47.6973 99.1722C47.6973 84.8722 54.9253 62.9637 69.3015 62.9637ZM152.504 62.9637C162.927 62.9637 166.423 71.6373 166.423 81.9049C166.423 96.2049 159.195 118.113 144.819 118.113C134.399 118.113 130.899 109.44 130.899 99.1722C130.899 84.8722 138.127 62.9637 152.504 62.9637ZM321.46 63.9528C318.341 71.6373 314.537 84.2635 314.537 94.1545C314.537 102.295 318.265 109.215 323.895 109.215C329.373 109.215 333.25 102.292 333.25 92.1002V63.9528H342.38V117.204H333.25V112.487C330.359 115.911 325.946 118.117 321.841 118.117C309.747 118.117 305.106 105.183 305.106 93.6219C305.106 81.1478 308.986 69.7352 312.334 63.9528H321.464H321.46ZM201.156 108.911H209.753V117.277H166.393V108.911H179.704C174.606 105.639 169.056 99.0961 169.056 89.6655C169.056 77.6479 179.251 64.4853 197.66 63.9528H206.79L201.16 108.911H201.156ZM9.46871 63.9528C9.46871 74.4486 14.1859 81.6005 21.4862 81.6005C27.8773 81.6005 33.9641 74.4486 33.9641 63.9528H43.0904V117.204H33.9641V84.5678C30.7685 88.296 26.5839 90.5024 21.4862 90.5024C16.3125 90.5024 12.3599 88.5242 9.46871 85.1004V117.204H0.338576V63.8767L9.46871 63.9528ZM274.311 79.318L275.985 63.9528H284.658L282.148 82.97C291.05 81.4484 296.6 71.177 296.6 63.9528H305.578C305.578 76.8833 296.067 87.6873 286.408 90.5785L306.643 117.204H295.158L280.554 96.5131L278.271 117.204H269.598L272.717 92.3284C265.565 92.3284 258.95 97.4261 258.95 105.563C258.95 110.737 261.612 114.389 265.036 117.2H253.627C251.421 114.766 249.823 110.048 249.823 105.563C249.823 95.0637 257.888 87.0025 268.612 84.72L250.356 63.9528H261.616L274.319 79.318H274.311ZM69.4537 70.7205C61.3887 70.7205 56.5992 91.5638 56.5992 100.085C56.5992 105.411 57.7405 110.353 61.4686 110.353C69.5335 110.353 74.3231 89.5095 74.3231 80.988C74.3231 75.6621 73.1818 70.7205 69.4537 70.7205ZM152.656 70.7205C144.591 70.7205 139.801 91.5638 139.801 100.085C139.801 105.411 140.943 110.353 144.671 110.353C152.736 110.353 157.525 89.5095 157.525 80.988C157.525 75.6621 156.384 70.7205 152.656 70.7205ZM196.134 72.5465C184.798 72.5465 178.182 81.6005 178.182 90.6508C178.182 99.701 185.943 106.092 192.026 108.755L196.591 72.5465H196.134ZM237.676 71.177C233.796 71.177 228.474 75.8181 225.202 83.1983C226.8 84.6439 228.702 85.4048 230.833 85.4048C237.984 85.4048 240.723 79.1658 240.723 75.2132C240.723 73.0068 239.887 71.1808 237.68 71.1808L237.676 71.177ZM229.763 50.0293C232.503 50.0293 234.709 52.2357 234.709 54.9748C234.709 57.7138 232.503 59.9964 229.763 59.9964C226.948 59.9964 224.746 57.7899 224.746 54.9748C224.746 52.1597 226.952 50.0293 229.763 50.0293ZM244.372 50.0293C247.111 50.0293 249.317 52.2357 249.317 54.9748C249.317 57.7138 247.111 59.9964 244.372 59.9964C241.557 59.9964 239.35 57.7899 239.35 54.9748C239.35 52.2357 241.557 50.0293 244.372 50.0293ZM139.276 29.0566L165.902 28.9805C162.707 44.2697 155.555 55.6824 142.776 55.6824C134.711 55.6824 124.063 48.6826 129.237 30.6544L137.831 1.13746H147.265L139.276 29.0566ZM70.7661 0C89.8595 0 83.9249 30.9626 64.0707 30.9626C60.8751 30.9626 58.06 30.2017 55.5492 28.7561C55.2449 30.5821 55.0927 32.4842 55.0927 34.4624C55.0927 41.9187 57.6035 47.0924 61.7882 47.0924C66.2771 47.0924 71.603 40.4731 74.0377 30.9664H82.7076C79.7403 44.2773 72.5921 55.4617 61.7882 55.4617C50.9842 55.4617 45.9664 45.799 45.9664 34.4662C45.9664 29.6729 46.7272 25.1079 48.0968 21.0031C45.1295 15.8294 43.3034 8.98557 42.6187 1.14887H50.988C51.2923 5.02918 51.901 8.45298 52.814 11.4203C57.6796 4.33681 64.4511 0 70.7661 0ZM34.763 46.0957H43.3605V54.465H0V46.0957H13.311C8.21331 42.8241 2.66295 36.2809 2.66295 26.8502C2.66295 14.8327 12.8583 1.67005 31.2669 1.13746H40.397L34.7668 46.0957H34.763ZM95.2767 23.5786H114.142V1.13746H123.272V54.3851H114.142V31.944H95.2767V54.3851H86.1504V1.13746H95.2767V23.5786ZM137.146 36.6613C135.624 43.8893 139.505 47.3131 142.776 47.3131C147.189 47.3131 150.917 43.7371 153.729 36.5852L137.146 36.6613ZM29.7452 9.735C18.4124 9.735 11.7931 18.789 11.7931 27.8393C11.7931 36.7412 19.5537 43.2806 25.6366 45.9436L30.2017 9.735H29.7452ZM70.5379 8.36928C66.6576 8.36928 61.3316 13.0104 58.0638 20.3868C59.6616 21.8324 61.5637 22.5933 63.6941 22.5933C70.846 22.5933 73.5812 16.3543 73.5812 12.398C73.5812 10.1915 72.7443 8.36548 70.5379 8.36548V8.36928Z" fill="#FEFE8C"/>
<path d="M164.654 150.911C164.654 152.482 163.38 153.554 161.508 153.554H156.3V144.01H161.462C163.288 144.01 164.331 144.854 164.331 146.368C164.331 147.297 163.958 147.936 163.212 148.289C162.82 148.468 162.391 148.56 161.961 148.56V148.639C162.375 148.632 162.79 148.674 163.193 148.765C164.163 149.027 164.654 149.75 164.654 150.911ZM158.278 145.786C158.354 145.969 158.392 146.167 158.385 146.365V147.418C158.385 147.605 158.35 147.791 158.278 147.962L158.301 147.981C158.491 147.909 158.693 147.879 158.895 147.898H160.808C161.554 147.898 162.022 147.487 162.022 146.825C162.022 146.163 161.595 145.855 160.789 145.855H158.898C158.697 145.874 158.495 145.847 158.305 145.775L158.282 145.786H158.278ZM162.337 150.58C162.337 149.834 161.915 149.442 161.086 149.442H158.898C158.697 149.461 158.495 149.431 158.305 149.358L158.282 149.381C158.354 149.552 158.389 149.735 158.389 149.918V151.242C158.389 151.428 158.354 151.614 158.282 151.786L158.305 151.808C158.495 151.736 158.697 151.706 158.898 151.725H161.109C161.934 151.717 162.337 151.344 162.337 150.58Z" fill="white"/>
<path d="M171.795 154.148L169.95 149.937C169.547 148.993 169.399 148.689 169.315 148.236H169.231C169.189 148.837 169.083 149.115 168.805 149.956L167.47 154.038H165.244L168.813 144.01H169.372L171.662 149.206C171.848 149.579 171.985 149.979 172.065 150.389H172.149C172.229 149.979 172.366 149.583 172.552 149.206L174.842 144.01H175.402L178.962 154.041H176.737L175.402 149.96C175.128 149.123 175.029 148.845 174.975 148.24H174.892C174.808 148.693 174.66 148.997 174.256 149.94L172.411 154.152H171.795V154.148Z" fill="white"/>
<path d="M189.108 149.084V149.476H182.896C182.185 149.476 181.85 149.434 181.618 149.312L181.576 149.354L181.66 149.601C181.869 151.291 182.938 152.238 184.65 152.238C185.78 152.238 186.617 151.846 187.579 150.838L188.834 152.177C187.705 153.52 186.346 154.155 184.604 154.155C181.591 154.155 179.56 152.162 179.56 149.149C179.56 146.136 181.508 144.017 184.479 144.017C187.347 144.017 189.104 145.93 189.104 149.088L189.108 149.084ZM181.679 148.118L181.721 148.16C182.097 148.008 182.504 147.935 182.915 147.954H185.361C186.365 147.954 186.7 147.996 186.909 148.137L186.951 148.099C186.826 146.676 185.905 145.851 184.422 145.851C182.938 145.851 181.888 146.695 181.679 148.118Z" fill="white"/>
<path d="M190.304 149.092C190.304 146.083 192.411 144.018 195.451 144.018C196.592 143.999 197.71 144.337 198.654 144.988L197.722 146.7C197.029 146.236 196.223 145.984 195.394 145.973C193.632 145.973 192.415 147.244 192.415 149.089C192.415 150.934 193.632 152.201 195.394 152.201C196.223 152.193 197.033 151.942 197.722 151.474L198.654 153.186C197.71 153.836 196.588 154.175 195.451 154.152C192.411 154.163 190.304 152.094 190.304 149.089V149.092Z" fill="white"/>
<path d="M199.247 144.01H208.792V145.889H205.615C205.406 145.908 205.197 145.881 205.003 145.805L204.98 145.828C205.06 145.999 205.098 146.186 205.086 146.372V153.554H202.941V146.365C202.933 146.178 202.967 145.992 203.051 145.821L203.028 145.798C202.834 145.874 202.625 145.9 202.416 145.881H199.243V144.01H199.247Z" fill="white"/>
<path d="M218.337 149.084V149.476H212.125C211.414 149.476 211.079 149.434 210.851 149.312L210.809 149.354L210.893 149.601C211.102 151.291 212.171 152.238 213.883 152.238C215.013 152.238 215.849 151.846 216.812 150.838L218.067 152.177C216.937 153.52 215.579 154.155 213.837 154.155C210.824 154.155 208.793 152.162 208.793 149.149C208.793 146.136 210.737 144.017 213.712 144.017C216.58 144.017 218.337 145.93 218.337 149.088V149.084ZM210.912 148.118L210.953 148.16C211.33 148.008 211.737 147.935 212.144 147.954H214.594C215.598 147.954 215.933 147.996 216.139 148.137L216.18 148.099C216.055 146.676 215.134 145.851 213.651 145.851C212.167 145.851 211.121 146.695 210.908 148.118H210.912Z" fill="white"/>
<path d="M226.094 149.092C226.094 146.083 228.35 144.018 231.606 144.018C232.828 143.999 234.03 144.337 235.042 144.988L234.045 146.7C233.303 146.236 232.44 145.984 231.549 145.973C229.663 145.973 228.358 147.244 228.358 149.089C228.358 150.934 229.659 152.201 231.549 152.201C232.44 152.193 233.303 151.942 234.045 151.474L235.042 153.186C234.03 153.836 232.831 154.175 231.606 154.152C228.346 154.163 226.094 152.094 226.094 149.089V149.092Z" fill="white"/>
<path d="M163.505 166.683C167.435 166.683 170.615 169.616 170.615 173.618C170.615 177.62 167.378 180.594 163.711 180.594C161.987 180.594 160.325 180.1 159.07 178.65H158.921V188.751H156.3V174.721C156.3 169.821 159.069 166.679 163.505 166.679M163.467 178.247C166.069 178.247 167.842 176.151 167.842 173.614C167.842 171.076 166.103 169.022 163.467 169.022C160.831 169.022 159.012 171.08 159.012 173.595C159.012 176.109 160.846 178.236 163.467 178.236" fill="white"/>
<path d="M173.002 173.538C173.002 169.593 176.43 166.679 180.459 166.679C184.487 166.679 187.915 169.593 187.915 173.538C187.915 177.483 184.487 180.397 180.459 180.397C176.43 180.397 173.002 177.483 173.002 173.538ZM180.459 178.087C183.186 178.087 185.035 176.056 185.035 173.538C185.035 171.019 183.186 168.988 180.459 168.988C177.731 168.988 175.886 171.004 175.886 173.538C175.886 176.071 177.735 178.087 180.459 178.087Z" fill="white"/>
<path d="M197.68 180.4C193.488 180.4 190.304 177.505 190.304 173.538C190.304 169.57 193.412 166.679 197.585 166.679C200.788 166.679 203.778 168.391 204.543 171.643H201.796C201.13 169.893 199.525 168.992 197.661 168.992C194.838 168.992 193.123 171.061 193.123 173.572C193.123 176.083 194.895 178.084 197.714 178.084C199.544 178.084 201.203 177.254 201.853 175.356H204.615C203.622 178.818 200.765 180.397 197.676 180.397" fill="white"/>
<path d="M214.529 178.19L210.212 169.174H210.136V179.803H207.602V166.679H211.638L215.918 175.66H215.994L220.274 166.679H224.31V179.803H221.776V169.174H221.7L217.383 178.19H214.529Z" fill="white"/>
<path d="M227.281 173.538C227.281 169.593 230.572 166.679 234.441 166.679C238.31 166.679 241.596 169.593 241.596 173.538C241.596 177.483 238.317 180.397 234.441 180.397C230.564 180.397 227.281 177.486 227.281 173.538ZM234.441 178.087C237.058 178.087 238.835 176.056 238.835 173.538C238.835 171.019 237.058 168.988 234.441 168.988C231.823 168.988 230.047 171.004 230.047 173.538C230.047 176.071 231.823 178.087 234.441 178.087Z" fill="white"/>
<path d="M242.787 180.4V177.589H242.844C243.129 177.589 243.411 177.524 243.67 177.41C243.928 177.292 244.164 177.125 244.362 176.912C244.857 176.345 245.104 175.345 245.366 173.876L245.735 171.708C246.173 169.212 247.048 166.679 250.73 166.679H255.908V180.279H253.271V169.193H251.202C249.132 169.193 248.695 169.775 248.204 172.655L247.866 174.687C247.561 176.543 247.105 178.148 246.158 179.175C245.435 179.951 244.431 180.393 243.084 180.393H242.791L242.787 180.4Z" fill="white"/>
<path d="M258.903 173.538C258.903 169.593 262.327 166.679 266.359 166.679C270.392 166.679 273.815 169.593 273.815 173.538C273.815 177.483 270.388 180.397 266.359 180.397C262.331 180.397 258.903 177.483 258.903 173.538ZM266.359 178.087C269.087 178.087 270.936 176.056 270.936 173.538C270.936 171.019 269.087 168.988 266.359 168.988C263.632 168.988 261.783 171.004 261.783 173.538C261.783 176.071 263.632 178.087 266.359 178.087Z" fill="white"/>
<path d="M276.43 183.379H273.809V177.639H275.582C276.358 176.779 276.765 175.497 277.134 173.948L277.716 171.461C278.283 169.072 279.325 166.679 282.684 166.679H287.957V177.639H289.916V183.375H287.299V180.126H276.438L276.43 183.379ZM285.275 177.696V169.125H282.734C281.087 169.125 280.524 170.43 280.193 171.803L279.592 174.386C279.261 175.82 278.755 177.007 278.253 177.505V177.692L285.275 177.699V177.696Z" fill="white"/>
<path d="M299.045 180.396C294.788 180.396 291.699 177.463 291.699 173.446C291.699 169.429 294.811 166.492 298.95 166.492C302.157 166.492 306.015 168.588 306.015 173.655V174.211H294.374C294.659 176.436 296.398 178.061 299.023 178.061C300.59 178.061 302.458 177.49 302.975 176.136H305.722C304.885 179.069 301.773 180.404 299.045 180.404M294.404 161.912H297.185V164.674H294.419L294.404 161.912ZM303.222 172.176C302.804 170.156 301.237 168.805 298.908 168.805C296.58 168.805 294.979 170.255 294.48 172.176H303.222ZM300.415 161.912H303.18V164.674H300.419V161.912H300.415Z" fill="white"/>
<path d="M318.308 166.679V171.89H320.526L323.657 166.679H326.575L322.687 172.94L326.898 179.803H323.919L320.564 174.272H318.308V179.803H315.805V174.272H313.549L310.19 179.803H307.215L311.423 172.94L307.535 166.679H310.456L313.584 171.89H315.801V166.679H318.305H318.308Z" fill="white"/>
<path d="M328.733 173.716L328.695 166.325H331.396L331.415 170.144H331.491C332.001 169.49 332.659 168.965 333.408 168.607C334.158 168.249 334.983 168.071 335.816 168.09C339.133 168.09 341.819 170.547 341.819 173.982C341.819 177.418 339.08 180.046 335.318 180.046C331.556 180.046 328.756 177.38 328.737 173.712M335.257 177.684C337.399 177.684 338.962 176.189 338.962 174.093C338.962 171.997 337.399 170.464 335.257 170.464C333.115 170.464 331.571 172 331.571 174.093C331.571 176.185 333.134 177.684 335.257 177.684Z" fill="white"/>
<path d="M140.247 135.165V194.637H138.92V135.165H140.247Z" fill="white"/>
<path d="M11.2235 427.705H13.8171L6.86262 435.095L14.322 443.633H11.5678L4.13135 435.233L11.2235 427.705ZM2.11158 443.633V427.705H4.13135V443.633H2.11158ZM17.9868 431.836V434.131C18.6294 432.823 20.0065 431.606 22.2558 431.606C24.9871 431.606 27.7184 433.833 27.7184 437.712C27.7184 441.59 24.9871 443.84 22.2558 443.84C20.0065 443.84 18.6294 442.6 17.9868 441.292V448.591H15.99V431.836H17.9868ZM17.9868 437.712C17.9868 440.489 19.9836 441.935 21.8427 441.935C23.6329 441.935 25.6527 440.489 25.6527 437.712C25.6527 434.934 23.6329 433.511 21.8427 433.511C19.9836 433.511 17.9868 434.934 17.9868 437.712ZM35.7675 443.84C32.5543 443.84 29.5016 441.682 29.5016 437.62C29.5016 433.97 32.0493 431.629 35.2167 431.629C38.407 431.629 40.5415 433.902 40.5415 437.253V438.308H31.5903C31.7509 440.535 33.6789 441.958 35.7675 441.958C38.1545 441.958 39.4857 440.604 40.0595 439.938V442.371C39.4628 442.991 38.2693 443.84 35.7675 443.84ZM31.6362 436.564H38.4758C38.3381 434.728 37.0299 433.488 35.1708 433.488C32.9903 433.488 31.7509 435.187 31.6362 436.564ZM42.9997 431.629L49.1967 437.964L55.3937 431.629V443.633H53.3969V436.197L49.1967 440.558L44.9965 436.197V443.633H42.9997V431.629ZM68.1616 431.836V443.633H66.1648V433.718H61.6892V439.158C61.6892 442.004 60.3121 443.633 57.948 443.633H57.0988V441.728H57.7185C59.394 441.728 59.7842 440.626 59.7842 438.63V431.836H68.1616ZM76.7752 443.84C73.562 443.84 70.5094 441.682 70.5094 437.62C70.5094 433.97 73.057 431.629 76.2244 431.629C79.4147 431.629 81.5492 433.902 81.5492 437.253V438.308H72.598C72.7587 440.535 74.6866 441.958 76.7752 441.958C79.1622 441.958 80.4935 440.604 81.0673 439.938V442.371C80.4705 442.991 79.277 443.84 76.7752 443.84ZM72.6439 436.564H79.4836C79.3459 434.728 78.0376 433.488 76.1785 433.488C73.9981 433.488 72.7587 435.187 72.6439 436.564ZM84.0074 443.633V431.836H88.4601C90.9389 431.836 92.316 433.052 92.316 434.911C92.316 436.22 91.5816 437.023 90.7553 437.367C91.7193 437.528 93.0734 438.423 93.0734 440.19C93.0734 442.233 91.7422 443.633 89.1028 443.633H84.0074ZM86.0043 441.774H88.9651C90.2963 441.774 91.0307 441.2 91.0307 440.144C91.0307 439.089 90.2963 438.515 88.9651 438.515H86.0043V441.774ZM86.0043 436.748H88.3224C89.5848 436.748 90.2733 436.151 90.2733 435.233C90.2733 434.292 89.5848 433.695 88.3224 433.695H86.0043V436.748ZM104.976 435.6C104.402 434.934 103.071 433.58 100.959 433.58C98.687 433.58 96.8049 435.187 96.8049 437.735C96.8049 440.282 98.687 441.889 100.959 441.889C103.071 441.889 104.402 440.535 104.976 439.869V442.371C104.379 442.991 103.186 443.84 100.959 443.84C97.7919 443.84 94.7622 441.453 94.7622 437.735C94.7622 434.016 97.7919 431.629 100.959 431.629C103.186 431.629 104.379 432.479 104.976 433.098V435.6ZM109.428 431.836V443.633H107.431V431.836H109.428ZM109.428 437.344L114.546 431.836H117.025L111.952 437.275L117.3 443.633H114.776L109.428 437.344ZM118.786 432.983C119.406 432.364 121.104 431.629 122.803 431.629C126.039 431.629 127.829 433.465 127.829 436.357V443.633H125.855V441.568C125.396 442.669 123.927 443.84 121.839 443.84C119.681 443.84 117.822 442.577 117.822 440.236C117.822 437.941 119.865 436.885 121.839 436.587L125.855 435.967C125.718 434.407 124.272 433.534 122.803 433.534C121.219 433.534 119.567 434.338 118.786 435.325V432.983ZM119.865 440.167C119.865 441.384 120.99 441.981 122.298 441.981C123.905 441.981 125.855 440.604 125.855 439.089V437.712L122.298 438.262C121.127 438.446 119.865 438.951 119.865 440.167ZM129.684 443.633L132.921 439.295C131.498 438.721 130.465 437.528 130.465 435.784C130.465 433.328 132.324 431.836 134.94 431.836H139.462V443.633H137.465V439.64H135.055L132.094 443.633H129.684ZM132.508 435.761C132.508 436.977 133.563 437.826 135.055 437.826H137.465V433.718H135.055C133.563 433.718 132.508 434.452 132.508 435.761ZM155.723 431.836H157.719V443.633H155.723V438.561H149.64V443.633H147.643V431.836H149.64V436.656H155.723V431.836ZM160.926 432.983C161.546 432.364 163.244 431.629 164.943 431.629C168.179 431.629 169.969 433.465 169.969 436.357V443.633H167.995V441.568C167.536 442.669 166.068 443.84 163.979 443.84C161.821 443.84 159.962 442.577 159.962 440.236C159.962 437.941 162.005 436.885 163.979 436.587L167.995 435.967C167.858 434.407 166.412 433.534 164.943 433.534C163.359 433.534 161.707 434.338 160.926 435.325V432.983ZM162.005 440.167C162.005 441.384 163.13 441.981 164.438 441.981C166.045 441.981 167.995 440.604 167.995 439.089V437.712L164.438 438.262C163.267 438.446 162.005 438.951 162.005 440.167ZM178.665 443.863C175.154 443.863 172.445 441.453 172.445 436.679C172.445 431.446 173.983 428.737 178.482 427.659C180.708 427.131 182.223 426.855 183.738 426.052V428.118C182.361 428.875 181.029 429.105 178.941 429.541C175.521 430.229 174.901 432.02 174.74 434.108C175.039 433.282 176.577 431.974 179.124 431.974C181.833 431.974 184.656 434.039 184.656 437.757C184.656 441.636 181.81 443.863 178.665 443.863ZM174.626 437.643C174.626 440.282 176.554 441.889 178.619 441.889C180.685 441.889 182.613 440.282 182.613 437.872C182.613 435.393 180.685 433.856 178.619 433.856C176.554 433.856 174.626 435.164 174.626 437.643ZM192.705 443.84C189.492 443.84 186.439 441.682 186.439 437.62C186.439 433.97 188.987 431.629 192.154 431.629C195.344 431.629 197.479 433.902 197.479 437.253V438.308H188.528C188.688 440.535 190.616 441.958 192.705 441.958C195.092 441.958 196.423 440.604 196.997 439.938V442.371C196.4 442.991 195.207 443.84 192.705 443.84ZM188.574 436.564H195.413C195.275 434.728 193.967 433.488 192.108 433.488C189.928 433.488 188.688 435.187 188.574 436.564ZM201.934 431.836V434.131C202.577 432.823 203.954 431.606 206.203 431.606C208.934 431.606 211.665 433.833 211.665 437.712C211.665 441.59 208.934 443.84 206.203 443.84C203.954 443.84 202.577 442.6 201.934 441.292V448.591H199.937V431.836H201.934ZM201.934 437.712C201.934 440.489 203.931 441.935 205.79 441.935C207.58 441.935 209.6 440.489 209.6 437.712C209.6 434.934 207.58 433.511 205.79 433.511C203.931 433.511 201.934 434.934 201.934 437.712ZM219.715 443.84C216.501 443.84 213.449 441.682 213.449 437.62C213.449 433.97 215.996 431.629 219.164 431.629C222.354 431.629 224.489 433.902 224.489 437.253V438.308H215.537C215.698 440.535 217.626 441.958 219.715 441.958C222.102 441.958 223.433 440.604 224.007 439.938V442.371C223.41 442.991 222.216 443.84 219.715 443.84ZM215.583 436.564H222.423C222.285 434.728 220.977 433.488 219.118 433.488C216.937 433.488 215.698 435.187 215.583 436.564ZM232.624 443.633V431.836H234.598V443.633H232.624ZM225.096 443.633L230.053 437.344L225.302 431.836H227.758L232.601 437.367L227.643 443.633H225.096ZM234.598 437.367L239.441 431.836H241.897L237.146 437.344L242.103 443.633H239.555L234.598 437.367ZM251.781 431.836H253.778V443.633H251.781V438.561H245.699V443.633H243.702V431.836H245.699V436.656H251.781V431.836ZM256.985 432.983C257.604 432.364 259.303 431.629 261.001 431.629C264.237 431.629 266.028 433.465 266.028 436.357V443.633H264.054V441.568C263.595 442.669 262.126 443.84 260.037 443.84C257.88 443.84 256.021 442.577 256.021 440.236C256.021 437.941 258.063 436.885 260.037 436.587L264.054 435.967C263.916 434.407 262.47 433.534 261.001 433.534C259.417 433.534 257.765 434.338 256.985 435.325V432.983ZM258.063 440.167C258.063 441.384 259.188 441.981 260.496 441.981C262.103 441.981 264.054 440.604 264.054 439.089V437.712L260.496 438.262C259.326 438.446 258.063 438.951 258.063 440.167ZM267.883 443.633L271.119 439.295C269.696 438.721 268.663 437.528 268.663 435.784C268.663 433.328 270.522 431.836 273.139 431.836H277.66V443.633H275.663V439.64H273.254L270.293 443.633H267.883ZM270.706 435.761C270.706 436.977 271.762 437.826 273.254 437.826H275.663V433.718H273.254C271.762 433.718 270.706 434.452 270.706 435.761ZM282.761 441.292L280.833 446.617H279.226L280.787 441.292H282.761ZM294.761 443.84C292.236 443.84 290.537 442.968 289.78 442.004V439.387C290.721 440.741 292.626 441.843 294.692 441.843C296.574 441.843 298.41 440.81 298.41 438.607C298.41 436.334 296.39 435.439 294.302 435.439C293.728 435.439 293.154 435.462 292.58 435.577L296.39 429.61H289.78V427.705H299.672L295.862 433.718C298.639 434.062 300.499 435.921 300.499 438.676C300.499 441.843 297.882 443.84 294.761 443.84ZM307.257 443.84C304.732 443.84 303.034 442.968 302.276 442.004V439.387C303.217 440.741 305.122 441.843 307.188 441.843C309.07 441.843 310.906 440.81 310.906 438.607C310.906 436.334 308.886 435.439 306.798 435.439C306.224 435.439 305.65 435.462 305.076 435.577L308.886 429.61H302.276V427.705H312.169L308.359 433.718C311.136 434.062 312.995 435.921 312.995 438.676C312.995 441.843 310.378 443.84 307.257 443.84Z" fill="white"/>
<path d="M7.42887 412.565C5.05688 412.565 3.06441 411.782 2.02073 410.81V406.706C2.92209 407.679 4.67736 409.126 7.21539 409.126C9.61111 409.126 11.5561 407.798 12.1491 405.544H5.3178V402.366H12.0543C11.4138 400.326 9.61111 399.069 7.21539 399.069C4.67736 399.069 2.92209 400.515 2.02073 401.488V397.384C3.06441 396.412 5.05688 395.629 7.42887 395.629C12.0068 395.629 15.8732 398.784 15.8732 404.097C15.8732 409.766 12.0305 412.565 7.42887 412.565ZM27.6579 395.866H31.7614L25.9026 403.386L32.4493 412.328H28.0611L21.6093 403.718L27.6579 395.866ZM18.0988 412.328V395.866H21.6093V412.328H18.0988ZM45.7048 401.559C44.8035 400.515 43.238 399.069 40.6999 399.069C37.8535 399.069 35.4816 401.132 35.4816 404.097C35.4816 407.157 37.9959 409.126 40.6999 409.126C43.238 409.126 44.8035 407.679 45.7048 406.635V410.81C44.6612 411.83 42.9533 412.565 40.5813 412.565C35.9797 412.565 31.8524 409.529 31.8524 404.097C31.8524 399.021 36.0034 395.629 40.5813 395.629C42.9533 395.629 44.6612 396.365 45.7048 397.384V401.559ZM47.0054 399.211V395.866H60.6443V399.211H55.5682V412.328H52.0577V399.211H47.0054ZM68.3047 403.457C69.8228 403.457 70.7241 402.555 70.7241 401.275C70.7241 400.017 69.8228 399.163 68.3047 399.163H66.0276V403.457H68.3047ZM62.5171 412.328V395.866H68.447C71.8627 395.866 74.3296 397.788 74.3296 401.275C74.3296 404.738 71.8153 406.635 68.447 406.635H66.0276V412.328H62.5171ZM79.8217 395.866V405.212L90.7091 395.629V412.328H87.246V402.816L76.3348 412.399V395.866H79.8217ZM93.7198 412.328V395.629L102.354 403.386L110.774 395.629V412.328H107.335V403.006L102.378 407.892L97.1592 402.911V412.328H93.7198ZM120.624 403.647V406.872H113.318V403.647H120.624ZM137.536 395.866V412.328H134.026V399.211H126.673V412.328H123.162V395.866H137.536ZM139.053 412.328L147.687 395.629L156.345 412.328H152.526L151.103 409.505H144.105L142.682 412.328H139.053ZM145.576 406.588H149.632L147.616 402.579L145.576 406.588ZM163.604 403.457C165.122 403.457 166.023 402.555 166.023 401.275C166.023 400.017 165.122 399.163 163.604 399.163H161.327V403.457H163.604ZM157.816 412.328V395.866H163.746C167.162 395.866 169.629 397.788 169.629 401.275C169.629 404.738 167.115 406.635 163.746 406.635H161.327V412.328H157.816ZM181.193 395.866H185.297L179.438 403.386L185.985 412.328H181.597L175.145 403.718L181.193 395.866ZM171.634 412.328V395.866H175.145V412.328H171.634ZM199.194 400.397L195.019 405.473L199.17 410.549H195.588L191.437 405.473L195.612 400.397H199.194ZM197.059 405.473L201.234 400.397H204.815L200.641 405.473L204.792 410.549H201.21L197.059 405.473ZM207.462 412.328V409.007H208.743C209.929 409.007 210.783 408.817 211.281 408.106L204.829 395.866H208.648L213.036 404.406L216.642 395.866H220.39L214.863 408.628C213.724 411.237 211.969 412.328 209.692 412.328H207.462ZM227.666 403.457C229.184 403.457 230.086 402.555 230.086 401.275C230.086 400.017 229.184 399.163 227.666 399.163H225.389V403.457H227.666ZM221.879 412.328V395.866H227.809C231.224 395.866 233.691 397.788 233.691 401.275C233.691 404.738 231.177 406.635 227.809 406.635H225.389V412.328H221.879ZM232.303 412.328L240.937 395.629L249.594 412.328H245.776L244.352 409.505H237.355L235.932 412.328H232.303ZM238.826 406.588H242.882L240.866 402.579L238.826 406.588ZM251.066 412.328V395.629L259.7 403.386L268.121 395.629V412.328H264.681V403.006L259.724 407.892L254.506 402.911V412.328H251.066ZM275.622 410.549L279.797 405.473L275.646 400.397H279.227L283.378 405.473L279.204 410.549H275.622ZM270 410.549L274.175 405.473L270.024 400.397H273.606L277.757 405.473L273.582 410.549H270Z" fill="white"/>
<path d="M11.2297 313.984C14.7737 310.525 20.7646 307.234 29.4556 307.234C42.2812 307.234 49.7066 315.334 49.7066 325.629C49.7066 334.489 44.5595 340.311 38.0623 348.074L32.2401 355.077H53.1661V366.637H8.69836L28.9493 341.914C33.8433 336.092 36.7122 332.21 36.7122 327.569C36.7122 322.169 32.9152 319.132 27.2618 319.132C21.0177 319.132 15.0268 323.013 11.2297 327.823V313.984ZM100.857 308.078L73.7711 366.637H59.2579L82.209 319.638H56.8109V308.078H100.857ZM131.353 303.521L106.377 376.931H94.2264L119.287 303.521H131.353ZM159.175 367.481C144.831 367.481 135.043 355.583 135.043 337.357C135.043 319.047 144.831 307.15 159.175 307.15C173.604 307.15 183.392 319.047 183.392 337.357C183.392 355.583 173.604 367.481 159.175 367.481ZM148.037 337.357C148.037 348.242 152.594 355.836 159.175 355.836C165.841 355.836 170.398 348.242 170.398 337.357C170.398 326.388 165.841 318.794 159.175 318.794C152.509 318.794 148.037 326.388 148.037 337.357ZM214.692 326.219C223.974 326.219 233.34 333.56 233.34 345.964C233.34 357.777 224.818 367.481 211.486 367.481C196.888 367.481 188.872 357.44 188.872 346.217C188.872 338.707 191.741 333.392 196.044 326.979L209.039 308.078H222.877L210.389 326.641C211.654 326.388 213.089 326.219 214.692 326.219ZM201.613 345.964C201.613 351.364 205.579 355.415 211.064 355.415C216.633 355.415 220.599 351.364 220.599 345.964C220.599 340.479 216.633 336.429 211.064 336.429C205.579 336.429 201.613 340.479 201.613 345.964Z" fill="#FEFE8C"/>
</svg>
