<svg width="245" height="46" viewBox="0 0 245 46" fill="none" xmlns="http://www.w3.org/2000/svg">
<g clip-path="url(#clip0_177_798)">
<path d="M43.7042 10.8887C46.0644 14.5186 47.4642 18.8321 47.5293 23.4549C47.1387 29.7054 42.0439 36.8674 33.9866 41.5227C25.9293 46.178 17.1884 47.0245 11.5889 44.241C7.47077 41.7832 4.15019 38.1045 2.1318 33.6933C2.22947 33.8886 2.32713 34.084 2.4248 34.2793C2.4248 34.2956 2.44107 34.3281 2.45735 34.3444C3.32005 35.8419 4.58968 37.0139 6.18486 37.8603C11.768 40.8553 21.2251 39.8299 30.0637 34.7188C38.9023 29.6077 44.518 21.9248 44.7296 15.5929C44.7785 13.9 44.4529 12.3049 43.7042 10.8725M23.7644 0.0642969C27.8175 0.0642969 31.6264 1.07349 34.9632 2.864C35.7608 3.40115 36.4119 4.01969 36.884 4.83356C39.7488 9.78188 33.9703 18.4577 24.0086 24.2199C14.0468 29.9821 3.6456 30.6332 0.79706 25.6849C0.325017 24.8547 0.0645791 23.9595 0.0157471 22.9665V23.2758C0.113411 18.7019 1.51326 14.4372 3.84092 10.8562C2.96195 12.3863 2.6364 13.8187 2.9945 14.9581C3.04333 15.1046 3.10844 15.2511 3.17355 15.3976C4.80129 18.2298 11.4099 17.4811 17.9371 13.721C24.4481 9.96093 28.4035 4.60568 26.7757 1.77342C26.6943 1.6432 26.5967 1.51298 26.4827 1.39904C25.7502 0.60145 24.5457 0.178238 23.0319 0.0968516C23.2761 0.0968516 23.5202 0.0968516 23.7644 0.0968516V0.0642969ZM181.069 34.556L181.15 22.9503C181.232 15.5929 176.739 12.5816 170.195 12.5816C164.808 12.5816 159.908 15.5278 159.159 22.3805H164.873C165.198 19.6785 167.314 18.7833 170.179 18.7833C173.044 18.7833 175.079 19.6785 175.372 22.6898L168.063 25.636C163.082 27.6707 159.322 29.9658 159.322 34.7839C159.322 39.602 162.106 42.9551 167.656 42.9551C171.498 42.9551 173.923 41.1483 175.86 37.6324C176.153 41.1483 178.481 42.711 182.517 42.711H184.161V37.079H183.673C181.785 37.079 181.052 36.3465 181.052 34.5397L181.069 34.556ZM169.87 36.8511C167.086 36.8511 165.052 36.1186 165.052 33.5794C165.052 31.3656 166.761 30.389 169.707 29.1682L175.404 26.808L175.339 34.7351C174.362 35.9721 172.393 36.8674 169.87 36.8674V36.8511ZM133.311 31.1378C132.66 34.4095 131.765 35.7931 129.958 35.7931C128.981 35.7931 128.249 35.7117 127.76 35.5489V42.3366C128.493 42.6621 129.144 42.9063 130.707 42.9063C133.816 42.9063 136.013 41.1158 137.087 38.3324C137.738 36.6232 138.145 34.2467 138.471 31.2192C138.796 28.1916 139.041 24.1873 139.041 19.4506H146.968V42.4994H152.925V13.2327H134.06C134.06 22.055 133.816 27.8497 133.327 31.1215L133.311 31.1378ZM195.588 33.3027V13.2327H189.614V42.4831H195.832L207.845 22.0713V42.4831H213.803V13.2327H207.601L195.588 33.3027ZM238.87 13.2327V24.1711H227.264V13.2327H221.306V42.4831H227.264V30.2262H238.87V42.4831H244.843V13.2327H238.87ZM79.6283 13.4768C74.9078 13.4768 70.8711 15.6743 68.7876 19.7599C69.0806 13.135 70.399 9.19589 78.0819 8.17042L90.0132 6.52641L89.5249 -0.0170898L77.1053 1.69203C66.3948 3.15699 63.3835 11.4096 63.3835 24.3989C63.3835 35.7605 68.5271 43.0202 78.0982 43.0202C87.6693 43.0202 92.4711 35.8256 92.4711 27.4103C92.4711 18.9949 86.8391 13.4443 79.6446 13.4443L79.6283 13.4768ZM78.0819 36.607C72.6941 36.607 69.5038 32.6841 69.5038 26.808V23.7804C70.6432 21.4853 73.6708 19.6948 78.0819 19.6948C82.7373 19.6948 86.3346 21.8922 86.3346 27.4591C86.3346 33.0259 83.486 36.607 78.0819 36.607ZM104.37 33.3027V13.2327H98.4123V42.4831H104.63L116.643 22.0713V42.4831H122.6V13.2327H116.399L104.386 33.3027H104.37ZM201.643 10.7097C206.461 10.7097 209.896 8.17042 210.547 2.61984H205.81C205.322 4.57312 204.166 5.56604 201.643 5.56604C199.12 5.56604 197.802 4.5894 197.395 2.61984H192.658C193.309 8.17042 196.825 10.7097 201.643 10.7097Z" fill="black"/>
</g>
<defs>
<clipPath id="clip0_177_798">
<rect width="244.844" height="45.8533" fill="white"/>
</clipPath>
</defs>
</svg>
